<?xml version="1.0" encoding="UTF-8" standalone="no"?>
<!DOCTYPE svg PUBLIC "-//W3C//DTD SVG 1.1//EN"
 "http://www.w3.org/Graphics/SVG/1.1/DTD/svg11.dtd">
<!-- Generated by graphviz version 2.40.1 (20161225.0304)
 -->
<!-- Title: http://schema.mobivoc.org/ Pages: 1 -->
<svg width="2594pt" height="1352pt"
 viewBox="0.00 0.00 1245.00 648.88" xmlns="http://www.w3.org/2000/svg" xmlns:xlink="http://www.w3.org/1999/xlink">
<g id="graph0" class="graph" transform="scale(2.0833 2.0833) rotate(0) translate(4 644.875)">
<title>http://schema.mobivoc.org/</title>
<polygon fill="#ffffff" stroke="transparent" points="-4,4 -4,-644.875 1241,-644.875 1241,4 -4,4"/>
<!-- http://schema.mobivoc.org/AccessCondition -->
<g id="node1" class="node">
<title>http://schema.mobivoc.org/AccessCondition</title>
<polygon fill="#ffd180" stroke="#706f6f" points="207,-375.5 93,-375.5 93,-305.5 207,-305.5 207,-375.5"/>
<g id="a_node1_0"><a xlink:href="http://schema.mobivoc.org/AccessCondition" xlink:title="&lt;TABLE&gt;">
<text text-anchor="start" x="119.3945" y="-361.1" font-family="Roboto" font-size="8.00" fill="#000000">Access condition</text>
</a>
</g>
<text text-anchor="start" x="104.5195" y="-346.1" font-family="Roboto" font-size="8.00" fill="#000000">A condition that has to be</text>
<text text-anchor="start" x="105" y="-331.1" font-family="Roboto" font-size="8.00" fill="#000000">fullfilled to get access</text>
<text text-anchor="start" x="105" y="-316.1" font-family="Roboto" font-size="8.00" fill="#000000">to a civic structure.</text>
<polygon fill="#706f6f" stroke="#706f6f" points="101,-355.5 101,-355.5 199,-355.5 199,-355.5 101,-355.5"/>
</g>
<!-- http://schema.mobivoc.org/Action -->
<g id="node2" class="node">
<title>http://schema.mobivoc.org/Action</title>
<polygon fill="#ffd180" stroke="#706f6f" points="92,-168.25 0,-168.25 0,-128.25 92,-128.25 92,-168.25"/>
<g id="a_node2_1"><a xlink:href="http://schema.mobivoc.org/Action" xlink:title="&lt;TABLE&gt;">
<text text-anchor="start" x="34.5313" y="-153.85" font-family="Roboto" font-size="8.00" fill="#000000">Action</text>
</a>
</g>
<text text-anchor="start" x="11.6191" y="-138.85" font-family="Roboto" font-size="8.00" fill="#000000">Action that is done.</text>
<polygon fill="#706f6f" stroke="#706f6f" points="8,-148.25 8,-148.25 84,-148.25 84,-148.25 8,-148.25"/>
</g>
<!-- http://schema.mobivoc.org/AccessCondition&#45;&gt;http://schema.mobivoc.org/Action -->
<g id="edge11" class="edge">
<title>http://schema.mobivoc.org/AccessCondition&#45;&gt;http://schema.mobivoc.org/Action</title>
<g id="a_edge11"><a xlink:href="http://schema.mobivoc.org/action" xlink:title="action">
<path fill="none" stroke="#000000" d="M110.832,-305.3558C93.8875,-288.0517 75.358,-265.8991 63.9297,-242.5 54.1231,-222.4214 49.6708,-197.5036 47.6541,-178.3326"/>
<polygon fill="#000000" stroke="#000000" points="51.1377,-177.9913 46.7658,-168.3405 44.1652,-178.6112 51.1377,-177.9913"/>
</a>
</g>
<g id="a_edge11&#45;label"><a xlink:href="http://schema.mobivoc.org/action" xlink:title="action">
<text text-anchor="middle" x="75.0352" y="-231.4125" font-family="Roboto" font-size="8.00" fill="#000000">action</text>
</a>
</g>
</g>
<!-- http://schema.mobivoc.org/UserGroup -->
<g id="node3" class="node">
<title>http://schema.mobivoc.org/UserGroup</title>
<polygon fill="#ffd180" stroke="#706f6f" points="236,-175.75 122,-175.75 122,-120.75 236,-120.75 236,-175.75"/>
<g id="a_node3_2"><a xlink:href="http://schema.mobivoc.org/UserGroup" xlink:title="&lt;TABLE&gt;">
<text text-anchor="start" x="159.5918" y="-160.85" font-family="Roboto" font-size="8.00" fill="#000000">User group</text>
</a>
</g>
<text text-anchor="start" x="133.793" y="-145.85" font-family="Roboto" font-size="8.00" fill="#000000">A group of users having a</text>
<text text-anchor="start" x="134" y="-130.85" font-family="Roboto" font-size="8.00" fill="#000000">common characteristic.</text>
<polygon fill="#706f6f" stroke="#706f6f" points="130,-155.25 130,-155.25 228,-155.25 228,-155.25 130,-155.25"/>
</g>
<!-- http://schema.mobivoc.org/AccessCondition&#45;&gt;http://schema.mobivoc.org/UserGroup -->
<g id="edge13" class="edge">
<title>http://schema.mobivoc.org/AccessCondition&#45;&gt;http://schema.mobivoc.org/UserGroup</title>
<g id="a_edge13"><a xlink:href="http://schema.mobivoc.org/restrictedToGroup" xlink:title="restricted to user group">
<path fill="none" stroke="#000000" d="M116.5507,-305.4214C98.7321,-282.3286 82.7902,-251.372 95.0938,-223.75 102.1589,-207.8883 114.3856,-193.9617 127.3543,-182.5309"/>
<polygon fill="#000000" stroke="#000000" points="129.6224,-185.1967 135.0424,-176.0932 125.1283,-179.8298 129.6224,-185.1967"/>
</a>
</g>
<g id="a_edge13&#45;label"><a xlink:href="http://schema.mobivoc.org/restrictedToGroup" xlink:title="restricted to user group">
<text text-anchor="middle" x="137.4531" y="-231.4125" font-family="Roboto" font-size="8.00" fill="#000000">restricted to user group</text>
</a>
</g>
</g>
<!-- http://schema.org/Vehicle -->
<g id="node7" class="node">
<title>http://schema.org/Vehicle</title>
<polygon fill="#e0f7fa" stroke="#706f6f" points="394,-190.75 258,-190.75 258,-105.75 394,-105.75 394,-190.75"/>
<g id="a_node7_3"><a xlink:href="http://schema.org/Vehicle" xlink:title="&lt;TABLE&gt;">
<text text-anchor="start" x="306.2852" y="-175.85" font-family="Roboto" font-size="8.00" fill="#000000">Vehicle (s:)</text>
</a>
</g>
<text text-anchor="start" x="270" y="-160.85" font-family="Roboto" font-size="8.00" fill="#000000">A vehicle is a device that</text>
<text text-anchor="start" x="269.6445" y="-145.85" font-family="Roboto" font-size="8.00" fill="#000000">is designed or used to transport</text>
<text text-anchor="start" x="270" y="-130.85" font-family="Roboto" font-size="8.00" fill="#000000">people or cargo over land,</text>
<text text-anchor="start" x="270" y="-115.85" font-family="Roboto" font-size="8.00" fill="#000000">water, air, or through space.</text>
<polygon fill="#706f6f" stroke="#706f6f" points="266,-170.25 266,-170.25 386,-170.25 386,-170.25 266,-170.25"/>
</g>
<!-- http://schema.mobivoc.org/AccessCondition&#45;&gt;http://schema.org/Vehicle -->
<g id="edge2" class="edge">
<title>http://schema.mobivoc.org/AccessCondition&#45;&gt;http://schema.org/Vehicle</title>
<g id="a_edge2"><a xlink:href="http://schema.mobivoc.org/restrictedToVehicleType" xlink:title="restricted to vehicle type">
<path fill="none" stroke="#000000" d="M159.3081,-305.3593C167.6465,-279.8436 182.1828,-246.0248 205.25,-223.75 219.7857,-209.7136 229.4454,-215.7572 247,-205.75 252.0037,-202.8976 257.0698,-199.7903 262.0937,-196.546"/>
<polygon fill="#000000" stroke="#000000" points="264.0909,-199.4213 270.4903,-190.9775 260.222,-193.5876 264.0909,-199.4213"/>
</a>
</g>
<g id="a_edge2&#45;label"><a xlink:href="http://schema.mobivoc.org/restrictedToVehicleType" xlink:title="restricted to vehicle type">
<text text-anchor="middle" x="249.375" y="-231.4125" font-family="Roboto" font-size="8.00" fill="#000000">restricted to vehicle type</text>
</a>
</g>
</g>
<!-- http://purl.org/goodrelations/v1#BusinessEntity -->
<g id="node13" class="node">
<title>http://purl.org/goodrelations/v1#BusinessEntity</title>
<polygon fill="#cecece" stroke="#706f6f" points="479.2736,-36 292.7264,-36 292.7264,0 479.2736,0 479.2736,-36"/>
<text text-anchor="middle" x="386" y="-16.2875" font-family="Roboto" font-size="8.00" fill="#000000">http://purl.org/goodrelations/v1#BusinessEntity</text>
</g>
<!-- http://schema.mobivoc.org/UserGroup&#45;&gt;http://purl.org/goodrelations/v1#BusinessEntity -->
<g id="edge1" class="edge">
<title>http://schema.mobivoc.org/UserGroup&#45;&gt;http://purl.org/goodrelations/v1#BusinessEntity</title>
<g id="a_edge1"><a xlink:href="http://schema.mobivoc.org/customerOf" xlink:title="customer of&#10;employee of">
<path fill="none" stroke="#000000" d="M208.6746,-120.7071C220.1974,-110.6806 233.7861,-99.6368 247,-90.75 275.4059,-71.6461 309.423,-53.7655 336.6952,-40.5115"/>
<polygon fill="#000000" stroke="#000000" points="338.542,-43.5073 346.0401,-36.022 335.5107,-37.1976 338.542,-43.5073"/>
</a>
</g>
<g id="a_edge1&#45;label"><a xlink:href="http://schema.mobivoc.org/customerOf" xlink:title="customer of&#10;employee of">
<text text-anchor="middle" x="328.8574" y="-66.35" font-family="Roboto" font-size="8.00" fill="#000000">customer of</text>
<text text-anchor="middle" x="328.8574" y="-56.975" font-family="Roboto" font-size="8.00" fill="#000000">employee of</text>
</a>
</g>
</g>
<!-- http://schema.mobivoc.org/TimeSpecification -->
<g id="node4" class="node">
<title>http://schema.mobivoc.org/TimeSpecification</title>
<polygon fill="#ffd180" stroke="#706f6f" points="559.5,-205.75 416.5,-205.75 416.5,-90.75 559.5,-90.75 559.5,-205.75"/>
<g id="a_node4_4"><a xlink:href="http://schema.mobivoc.org/TimeSpecification" xlink:title="&lt;TABLE&gt;">
<text text-anchor="start" x="455.7871" y="-190.85" font-family="Roboto" font-size="8.00" fill="#000000">Time specification</text>
</a>
</g>
<g id="a_node4_5"><a xlink:href="http://schema.mobivoc.org/overnight" xlink:title="&lt;TABLE&gt;">
<text text-anchor="start" x="429" y="-175.85" font-family="Roboto" font-size="8.00" fill="#000000">overnight : boolean</text>
</a>
</g>
<g id="a_node4_6"><a xlink:href="http://schema.mobivoc.org/timeUnit" xlink:title="&lt;TABLE&gt;">
<text text-anchor="start" x="429" y="-160.85" font-family="Roboto" font-size="8.00" fill="#000000">time unit : string</text>
</a>
</g>
<g id="a_node4_7"><a xlink:href="http://schema.mobivoc.org/timeEndValue" xlink:title="&lt;TABLE&gt;">
<text text-anchor="start" x="429" y="-145.85" font-family="Roboto" font-size="8.00" fill="#000000">time end value : float</text>
</a>
</g>
<g id="a_node4_8"><a xlink:href="http://schema.mobivoc.org/timeStartValue" xlink:title="&lt;TABLE&gt;">
<text text-anchor="start" x="429" y="-130.85" font-family="Roboto" font-size="8.00" fill="#000000">time start value : float</text>
</a>
</g>
<text text-anchor="start" x="428.8301" y="-115.85" font-family="Roboto" font-size="8.00" fill="#000000">Specific time a price specification</text>
<text text-anchor="start" x="429" y="-100.85" font-family="Roboto" font-size="8.00" fill="#000000">is due for.</text>
<polygon fill="#706f6f" stroke="#706f6f" points="425,-185.25 425,-185.25 552,-185.25 552,-185.25 425,-185.25"/>
<polygon fill="#706f6f" stroke="#706f6f" points="425,-125.25 425,-125.25 552,-125.25 552,-125.25 425,-125.25"/>
</g>
<!-- http://schema.org/CivicStructure -->
<g id="node5" class="node">
<title>http://schema.org/CivicStructure</title>
<polygon fill="#e0f7fa" stroke="#706f6f" points="762.5,-640.875 617.5,-640.875 617.5,-465.875 762.5,-465.875 762.5,-640.875"/>
<g id="a_node5_9"><a xlink:href="http://schema.org/CivicStructure" xlink:title="&lt;TABLE&gt;">
<text text-anchor="start" x="658.1855" y="-625.975" font-family="Roboto" font-size="8.00" fill="#000000">Civic structure (s:)</text>
</a>
</g>
<g id="a_node5_10"><a xlink:href="http://schema.mobivoc.org/id" xlink:title="&lt;TABLE&gt;">
<text text-anchor="start" x="630" y="-610.975" font-family="Roboto" font-size="8.00" fill="#000000">ID : string</text>
</a>
</g>
<g id="a_node5_11"><a xlink:href="http://schema.mobivoc.org/vehicleWidthLimitInM" xlink:title="&lt;TABLE&gt;">
<text text-anchor="start" x="630" y="-595.975" font-family="Roboto" font-size="8.00" fill="#000000">vehicle width limit : decimal</text>
</a>
</g>
<g id="a_node5_12"><a xlink:href="http://schema.mobivoc.org/vehicleLengthLimitInM" xlink:title="&lt;TABLE&gt;">
<text text-anchor="start" x="630" y="-580.975" font-family="Roboto" font-size="8.00" fill="#000000">vehicle length limit : decimal</text>
</a>
</g>
<g id="a_node5_13"><a xlink:href="http://schema.mobivoc.org/picture" xlink:title="&lt;TABLE&gt;">
<text text-anchor="start" x="630" y="-565.975" font-family="Roboto" font-size="8.00" fill="#000000">picture : string</text>
</a>
</g>
<g id="a_node5_14"><a xlink:href="http://schema.mobivoc.org/vehicleHeightLimitInM" xlink:title="&lt;TABLE&gt;">
<text text-anchor="start" x="630" y="-550.975" font-family="Roboto" font-size="8.00" fill="#000000">vechicle height limit : decimal</text>
</a>
</g>
<g id="a_node5_15"><a xlink:href="http://schema.mobivoc.org/name" xlink:title="&lt;TABLE&gt;">
<text text-anchor="start" x="630" y="-535.975" font-family="Roboto" font-size="8.00" fill="#000000">name : string</text>
</a>
</g>
<g id="a_node5_16"><a xlink:href="http://schema.mobivoc.org/additionalInformation" xlink:title="&lt;TABLE&gt;">
<text text-anchor="start" x="630" y="-520.975" font-family="Roboto" font-size="8.00" fill="#000000">additional information : string</text>
</a>
</g>
<text text-anchor="start" x="630" y="-505.975" font-family="Roboto" font-size="8.00" fill="#000000">A public structure, such as a town</text>
<text text-anchor="start" x="629.9434" y="-490.975" font-family="Roboto" font-size="8.00" fill="#000000">hall or concert hall, parking facility</text>
<text text-anchor="start" x="630" y="-475.975" font-family="Roboto" font-size="8.00" fill="#000000">or charging point.</text>
<polygon fill="#706f6f" stroke="#706f6f" points="626,-620.375 626,-620.375 755,-620.375 755,-620.375 626,-620.375"/>
<polygon fill="#706f6f" stroke="#706f6f" points="626,-515.375 626,-515.375 755,-515.375 755,-515.375 626,-515.375"/>
</g>
<!-- http://schema.org/CivicStructure&#45;&gt;http://schema.mobivoc.org/AccessCondition -->
<g id="edge8" class="edge">
<title>http://schema.org/CivicStructure&#45;&gt;http://schema.mobivoc.org/AccessCondition</title>
<g id="a_edge8"><a xlink:href="http://schema.mobivoc.org/access" xlink:title="access">
<path fill="none" stroke="#000000" d="M617.4536,-524.7763C512.263,-483.3088 318.8579,-407.066 216.9206,-366.881"/>
<polygon fill="#000000" stroke="#000000" points="217.9341,-363.5184 207.3473,-363.107 215.3669,-370.0307 217.9341,-363.5184"/>
</a>
</g>
<g id="a_edge8&#45;label"><a xlink:href="http://schema.mobivoc.org/access" xlink:title="access">
<text text-anchor="middle" x="432.6074" y="-441.475" font-family="Roboto" font-size="8.00" fill="#000000">access</text>
</a>
</g>
</g>
<!-- http://schema.mobivoc.org/CivicStructureStatus -->
<g id="node6" class="node">
<title>http://schema.mobivoc.org/CivicStructureStatus</title>
<polygon fill="#ffd180" stroke="#706f6f" points="751.5,-368 628.5,-368 628.5,-313 751.5,-313 751.5,-368"/>
<g id="a_node6_17"><a xlink:href="http://schema.mobivoc.org/CivicStructureStatus" xlink:title="&lt;TABLE&gt;">
<text text-anchor="start" x="652.8555" y="-353.1" font-family="Roboto" font-size="8.00" fill="#000000">Civic structure status</text>
</a>
</g>
<text text-anchor="start" x="640.5488" y="-338.1" font-family="Roboto" font-size="8.00" fill="#000000">Status information of a civic</text>
<text text-anchor="start" x="641" y="-323.1" font-family="Roboto" font-size="8.00" fill="#000000">structure.</text>
<polygon fill="#706f6f" stroke="#706f6f" points="637,-347.5 637,-347.5 744,-347.5 744,-347.5 637,-347.5"/>
</g>
<!-- http://schema.org/CivicStructure&#45;&gt;http://schema.mobivoc.org/CivicStructureStatus -->
<g id="edge9" class="edge">
<title>http://schema.org/CivicStructure&#45;&gt;http://schema.mobivoc.org/CivicStructureStatus</title>
<g id="a_edge9"><a xlink:href="http://schema.mobivoc.org/civicStructureStatus" xlink:title="civic structure status">
<path fill="none" stroke="#000000" d="M690,-465.869C690,-435.3018 690,-402.582 690,-378.236"/>
<polygon fill="#000000" stroke="#000000" points="693.5001,-378.0119 690,-368.0119 686.5001,-378.012 693.5001,-378.0119"/>
</a>
</g>
<g id="a_edge9&#45;label"><a xlink:href="http://schema.mobivoc.org/civicStructureStatus" xlink:title="civic structure status">
<text text-anchor="middle" x="727.1348" y="-441.475" font-family="Roboto" font-size="8.00" fill="#000000">civic structure status</text>
</a>
</g>
</g>
<!-- http://schema.org/PaymentMethod -->
<g id="node8" class="node">
<title>http://schema.org/PaymentMethod</title>
<polygon fill="#e0f7fa" stroke="#706f6f" points="926.5,-420.5 773.5,-420.5 773.5,-260.5 926.5,-260.5 926.5,-420.5"/>
<g id="a_node8_18"><a xlink:href="http://schema.org/PaymentMethod" xlink:title="&lt;TABLE&gt;">
<text text-anchor="start" x="813.3789" y="-406.1" font-family="Roboto" font-size="8.00" fill="#000000">Payment method (s:)</text>
</a>
</g>
<text text-anchor="start" x="785.584" y="-391.1" font-family="Roboto" font-size="8.00" fill="#000000">A payment method is a standardized</text>
<text text-anchor="start" x="786" y="-376.1" font-family="Roboto" font-size="8.00" fill="#000000">procedure for transferring</text>
<text text-anchor="start" x="786" y="-361.1" font-family="Roboto" font-size="8.00" fill="#000000">the monetary amount for a</text>
<text text-anchor="start" x="786" y="-346.1" font-family="Roboto" font-size="8.00" fill="#000000">purchase. Payment methods</text>
<text text-anchor="start" x="786" y="-331.1" font-family="Roboto" font-size="8.00" fill="#000000">are characterized by the</text>
<text text-anchor="start" x="786" y="-316.1" font-family="Roboto" font-size="8.00" fill="#000000">legal and technical structures</text>
<text text-anchor="start" x="786" y="-301.1" font-family="Roboto" font-size="8.00" fill="#000000">used, and by the organization</text>
<text text-anchor="start" x="786" y="-286.1" font-family="Roboto" font-size="8.00" fill="#000000">or group carrying out the</text>
<text text-anchor="start" x="786" y="-271.1" font-family="Roboto" font-size="8.00" fill="#000000">transaction.</text>
<polygon fill="#706f6f" stroke="#706f6f" points="782,-400.5 782,-400.5 919,-400.5 919,-400.5 782,-400.5"/>
</g>
<!-- http://schema.org/CivicStructure&#45;&gt;http://schema.org/PaymentMethod -->
<g id="edge12" class="edge">
<title>http://schema.org/CivicStructure&#45;&gt;http://schema.org/PaymentMethod</title>
<g id="a_edge12"><a xlink:href="http://schema.org/acceptedPaymentMethod" xlink:title="accepted payment method (s:)">
<path fill="none" stroke="#000000" d="M755.7708,-465.869C764.8748,-453.7564 774.2328,-441.3059 783.3526,-429.1723"/>
<polygon fill="#000000" stroke="#000000" points="786.4117,-430.9275 789.6222,-420.8308 780.8161,-426.7217 786.4117,-430.9275"/>
</a>
</g>
<g id="a_edge12&#45;label"><a xlink:href="http://schema.org/acceptedPaymentMethod" xlink:title="accepted payment method (s:)">
<text text-anchor="middle" x="828.2617" y="-441.475" font-family="Roboto" font-size="8.00" fill="#000000">accepted payment method (s:)</text>
</a>
</g>
</g>
<!-- http://schema.org/Place -->
<g id="node9" class="node">
<title>http://schema.org/Place</title>
<polygon fill="#e0f7fa" stroke="#706f6f" points="1079,-383 949,-383 949,-298 1079,-298 1079,-383"/>
<g id="a_node9_19"><a xlink:href="http://schema.org/Place" xlink:title="&lt;TABLE&gt;">
<text text-anchor="start" x="997.3379" y="-368.1" font-family="Roboto" font-size="8.00" fill="#000000">Place (s:)</text>
</a>
</g>
<g id="a_node9_20"><a xlink:href="http://www.w3.org/2003/01/geo/wgs84_pos#lat" xlink:title="&lt;TABLE&gt;">
<text text-anchor="start" x="961" y="-353.1" font-family="Roboto" font-size="8.00" fill="#000000">latitude (geo:) : string</text>
</a>
</g>
<g id="a_node9_21"><a xlink:href="http://www.w3.org/2003/01/geo/wgs84_pos#long" xlink:title="&lt;TABLE&gt;">
<text text-anchor="start" x="961" y="-338.1" font-family="Roboto" font-size="8.00" fill="#000000">longitude (geo:) : string</text>
</a>
</g>
<text text-anchor="start" x="960.6133" y="-323.1" font-family="Roboto" font-size="8.00" fill="#000000">Entities that have a somewhat</text>
<text text-anchor="start" x="961" y="-308.1" font-family="Roboto" font-size="8.00" fill="#000000">fixed, physical extension.</text>
<polygon fill="#706f6f" stroke="#706f6f" points="957,-362.5 957,-362.5 1071,-362.5 1071,-362.5 957,-362.5"/>
<polygon fill="#706f6f" stroke="#706f6f" points="957,-332.5 957,-332.5 1071,-332.5 1071,-332.5 957,-332.5"/>
</g>
<!-- http://schema.org/CivicStructure&#45;&gt;http://schema.org/Place -->
<g id="edge15" class="edge">
<title>http://schema.org/CivicStructure&#45;&gt;http://schema.org/Place</title>
<path fill="none" stroke="#000000" d="M762.6825,-522.2006C814.2254,-498.2948 883.615,-462.359 938,-420.5 949.4712,-411.6708 960.7919,-401.084 971.0516,-390.5463"/>
<polygon fill="none" stroke="#000000" points="973.6097,-392.9353 977.9738,-383.281 968.5417,-388.1067 973.6097,-392.9353"/>
</g>
<!-- http://schema.org/OpeningHoursSpecification -->
<g id="node10" class="node">
<title>http://schema.org/OpeningHoursSpecification</title>
<polygon fill="#e0f7fa" stroke="#706f6f" points="1237,-383 1101,-383 1101,-298 1237,-298 1237,-383"/>
<g id="a_node10_22"><a xlink:href="http://schema.org/OpeningHoursSpecification" xlink:title="&lt;TABLE&gt;">
<text text-anchor="start" x="1112.6523" y="-368.1" font-family="Roboto" font-size="8.00" fill="#000000">Opening hours specification (s:)</text>
</a>
</g>
<text text-anchor="start" x="1113" y="-353.1" font-family="Roboto" font-size="8.00" fill="#000000">A structured value providing</text>
<text text-anchor="start" x="1113" y="-338.1" font-family="Roboto" font-size="8.00" fill="#000000">information about the opening</text>
<text text-anchor="start" x="1113" y="-323.1" font-family="Roboto" font-size="8.00" fill="#000000">hours of a place or a certain</text>
<text text-anchor="start" x="1113" y="-308.1" font-family="Roboto" font-size="8.00" fill="#000000">service inside a place.</text>
<polygon fill="#706f6f" stroke="#706f6f" points="1109,-362.5 1109,-362.5 1229,-362.5 1229,-362.5 1109,-362.5"/>
</g>
<!-- http://schema.org/CivicStructure&#45;&gt;http://schema.org/OpeningHoursSpecification -->
<g id="edge14" class="edge">
<title>http://schema.org/CivicStructure&#45;&gt;http://schema.org/OpeningHoursSpecification</title>
<g id="a_edge14"><a xlink:href="http://schema.org/openingHoursSpecification" xlink:title="opening hours specification (s:)">
<path fill="none" stroke="#000000" d="M762.665,-539.9956C846.3717,-522.2371 985.7507,-485.309 1090,-420.5 1103.1906,-412.2998 1115.8135,-401.4684 1126.9473,-390.4337"/>
<polygon fill="#000000" stroke="#000000" points="1129.5521,-392.776 1134.0398,-383.1785 1124.5465,-387.8827 1129.5521,-392.776"/>
</a>
</g>
<g id="a_edge14&#45;label"><a xlink:href="http://schema.org/openingHoursSpecification" xlink:title="opening hours specification (s:)">
<text text-anchor="middle" x="1105.8789" y="-441.475" font-family="Roboto" font-size="8.00" fill="#000000">opening hours specification (s:)</text>
</a>
</g>
</g>
<!-- http://schema.org/PriceSpecification -->
<g id="node11" class="node">
<title>http://schema.org/PriceSpecification</title>
<polygon fill="#e0f7fa" stroke="#706f6f" points="520,-390.5 386,-390.5 386,-290.5 520,-290.5 520,-390.5"/>
<g id="a_node11_23"><a xlink:href="http://schema.org/PriceSpecification" xlink:title="&lt;TABLE&gt;">
<text text-anchor="start" x="413.4297" y="-376.1" font-family="Roboto" font-size="8.00" fill="#000000">Price specification (s:)</text>
</a>
</g>
<g id="a_node11_24"><a xlink:href="http://schema.mobivoc.org/freeOfCharge" xlink:title="&lt;TABLE&gt;">
<text text-anchor="start" x="398" y="-361.1" font-family="Roboto" font-size="8.00" fill="#000000">free of charge : boolean</text>
</a>
</g>
<g id="a_node11_25"><a xlink:href="http://schema.mobivoc.org/unspecifiedCharge" xlink:title="&lt;TABLE&gt;">
<text text-anchor="start" x="398" y="-346.1" font-family="Roboto" font-size="8.00" fill="#000000">unspecified charge : boolean</text>
</a>
</g>
<text text-anchor="start" x="397.584" y="-331.1" font-family="Roboto" font-size="8.00" fill="#000000">A structured value representing</text>
<text text-anchor="start" x="398" y="-316.1" font-family="Roboto" font-size="8.00" fill="#000000">a price or price range for an</text>
<text text-anchor="start" x="398" y="-301.1" font-family="Roboto" font-size="8.00" fill="#000000">item.</text>
<polygon fill="#706f6f" stroke="#706f6f" points="394,-370.5 394,-370.5 512,-370.5 512,-370.5 394,-370.5"/>
<polygon fill="#706f6f" stroke="#706f6f" points="394,-340.5 394,-340.5 512,-340.5 512,-340.5 394,-340.5"/>
</g>
<!-- http://schema.org/CivicStructure&#45;&gt;http://schema.org/PriceSpecification -->
<g id="edge10" class="edge">
<title>http://schema.org/CivicStructure&#45;&gt;http://schema.org/PriceSpecification</title>
<g id="a_edge10"><a xlink:href="http://schema.mobivoc.org/price" xlink:title="price">
<path fill="none" stroke="#000000" d="M617.3238,-496.9962C598.145,-481.4875 577.7101,-464.383 559.4375,-447.875 542.1251,-432.2345 524.0031,-414.5104 507.7208,-398.0351"/>
<polygon fill="#000000" stroke="#000000" points="509.8847,-395.2436 500.3787,-390.5652 504.8924,-400.1505 509.8847,-395.2436"/>
</a>
</g>
<g id="a_edge10&#45;label"><a xlink:href="http://schema.mobivoc.org/price" xlink:title="price">
<text text-anchor="middle" x="567.7813" y="-441.475" font-family="Roboto" font-size="8.00" fill="#000000">price</text>
</a>
</g>
</g>
<!-- http://schema.org/CivicStructure&#45;&gt;http://purl.org/goodrelations/v1#BusinessEntity -->
<g id="edge7" class="edge">
<title>http://schema.org/CivicStructure&#45;&gt;http://purl.org/goodrelations/v1#BusinessEntity</title>
<g id="a_edge7"><a xlink:href="http://schema.mobivoc.org/operatedBy" xlink:title="operated by&#10;owned by">
<path fill="none" stroke="#000000" d="M636.8751,-465.6265C629.6266,-450.9421 622.9794,-435.5725 618,-420.5 571.5624,-279.9353 662.7956,-206.8897 571,-90.75 550.5391,-64.8628 519.557,-48.1647 488.7666,-37.4026"/>
<polygon fill="#000000" stroke="#000000" points="489.8222,-34.0653 479.229,-34.2496 487.625,-40.7116 489.8222,-34.0653"/>
</a>
</g>
<g id="a_edge7&#45;label"><a xlink:href="http://schema.mobivoc.org/operatedBy" xlink:title="operated by&#10;owned by">
<text text-anchor="middle" x="633.8828" y="-236.1" font-family="Roboto" font-size="8.00" fill="#000000">operated by</text>
<text text-anchor="middle" x="633.8828" y="-226.725" font-family="Roboto" font-size="8.00" fill="#000000">owned by</text>
</a>
</g>
</g>
<!-- http://schema.org/PostalAddress -->
<g id="node12" class="node">
<title>http://schema.org/PostalAddress</title>
<polygon fill="#e0f7fa" stroke="#706f6f" points="1063,-168.25 965,-168.25 965,-128.25 1063,-128.25 1063,-168.25"/>
<g id="a_node12_26"><a xlink:href="http://schema.org/PostalAddress" xlink:title="&lt;TABLE&gt;">
<text text-anchor="start" x="980.6875" y="-153.85" font-family="Roboto" font-size="8.00" fill="#000000">Postal address (s:)</text>
</a>
</g>
<text text-anchor="start" x="976.9648" y="-138.85" font-family="Roboto" font-size="8.00" fill="#000000">The mailing address.</text>
<polygon fill="#706f6f" stroke="#706f6f" points="973,-148.25 973,-148.25 1055,-148.25 1055,-148.25 973,-148.25"/>
</g>
<!-- http://schema.org/Place&#45;&gt;http://schema.org/PostalAddress -->
<g id="edge6" class="edge">
<title>http://schema.org/Place&#45;&gt;http://schema.org/PostalAddress</title>
<g id="a_edge6"><a xlink:href="http://schema.org/address" xlink:title="address (s:)">
<path fill="none" stroke="#000000" d="M1014,-297.8335C1014,-261.6567 1014,-210.6675 1014,-178.5476"/>
<polygon fill="#000000" stroke="#000000" points="1017.5001,-178.4268 1014,-168.4268 1010.5001,-178.4269 1017.5001,-178.4268"/>
</a>
</g>
<g id="a_edge6&#45;label"><a xlink:href="http://schema.org/address" xlink:title="address (s:)">
<text text-anchor="middle" x="1035.0273" y="-231.4125" font-family="Roboto" font-size="8.00" fill="#000000">address (s:)</text>
</a>
</g>
</g>
<!-- http://schema.org/PriceSpecification&#45;&gt;http://schema.mobivoc.org/UserGroup -->
<g id="edge3" class="edge">
<title>http://schema.org/PriceSpecification&#45;&gt;http://schema.mobivoc.org/UserGroup</title>
<g id="a_edge3"><a xlink:href="http://schema.mobivoc.org/validForGroup" xlink:title="valid for user group">
<path fill="none" stroke="#000000" d="M385.7389,-294.1812C363.109,-278.1812 337.9008,-259.8978 315.3906,-242.5 305.1207,-234.5625 304.1657,-230.3683 293,-223.75 274.1144,-212.5558 265.8587,-216.9894 247,-205.75 235.9967,-199.1923 224.9932,-190.8566 215.142,-182.5806"/>
<polygon fill="#000000" stroke="#000000" points="217.367,-179.8776 207.5107,-175.9913 212.7922,-185.1758 217.367,-179.8776"/>
</a>
</g>
<g id="a_edge3&#45;label"><a xlink:href="http://schema.mobivoc.org/validForGroup" xlink:title="valid for user group">
<text text-anchor="middle" x="350.3047" y="-231.4125" font-family="Roboto" font-size="8.00" fill="#000000">valid for user group</text>
</a>
</g>
</g>
<!-- http://schema.org/PriceSpecification&#45;&gt;http://schema.mobivoc.org/TimeSpecification -->
<g id="edge4" class="edge">
<title>http://schema.org/PriceSpecification&#45;&gt;http://schema.mobivoc.org/TimeSpecification</title>
<g id="a_edge4"><a xlink:href="http://schema.mobivoc.org/dueForTime" xlink:title="due for time">
<path fill="none" stroke="#000000" d="M462.2341,-290.3988C465.0577,-275.0323 468.1655,-258.0723 471,-242.5 472.5684,-233.8832 474.2112,-224.8221 475.8313,-215.8642"/>
<polygon fill="#000000" stroke="#000000" points="479.3115,-216.2866 477.6456,-205.8236 472.4231,-215.0418 479.3115,-216.2866"/>
</a>
</g>
<g id="a_edge4&#45;label"><a xlink:href="http://schema.mobivoc.org/dueForTime" xlink:title="due for time">
<text text-anchor="middle" x="495.4863" y="-231.4125" font-family="Roboto" font-size="8.00" fill="#000000">due for time</text>
</a>
</g>
</g>
<!-- http://schema.org/PriceSpecification&#45;&gt;http://schema.org/Vehicle -->
<g id="edge5" class="edge">
<title>http://schema.org/PriceSpecification&#45;&gt;http://schema.org/Vehicle</title>
<g id="a_edge5"><a xlink:href="http://schema.mobivoc.org/validForVehicle" xlink:title="valid for vehicle">
<path fill="none" stroke="#000000" d="M428.2709,-290.3915C417.1542,-269.2678 403.3235,-244.7579 389,-223.75 383.374,-215.4986 377.0295,-207.0757 370.5886,-198.9907"/>
<polygon fill="#000000" stroke="#000000" points="373.1558,-196.5996 364.1386,-191.0372 367.7189,-201.0087 373.1558,-196.5996"/>
</a>
</g>
<g id="a_edge5&#45;label"><a xlink:href="http://schema.mobivoc.org/validForVehicle" xlink:title="valid for vehicle">
<text text-anchor="middle" x="427.6738" y="-231.4125" font-family="Roboto" font-size="8.00" fill="#000000">valid for vehicle</text>
</a>
</g>
</g>
</g>
</svg>
