<?xml version="1.0" encoding="UTF-8" standalone="no"?>
<!DOCTYPE svg PUBLIC "-//W3C//DTD SVG 1.1//EN"
 "http://www.w3.org/Graphics/SVG/1.1/DTD/svg11.dtd">
<!-- Generated by graphviz version 2.40.1 (20161225.0304)
 -->
<!-- Title: http://schema.mobivoc.org/ Pages: 1 -->
<svg width="2623pt" height="1352pt"
 viewBox="0.00 0.00 1259.00 648.88" xmlns="http://www.w3.org/2000/svg" xmlns:xlink="http://www.w3.org/1999/xlink">
<g id="graph0" class="graph" transform="scale(2.0833 2.0833) rotate(0) translate(4 644.875)">
<title>http://schema.mobivoc.org/</title>
<polygon fill="#ffffff" stroke="transparent" points="-4,4 -4,-644.875 1255,-644.875 1255,4 -4,4"/>
<!-- http://schema.org/PriceSpecification -->
<g id="node1" class="node">
<title>http://schema.org/PriceSpecification</title>
<polygon fill="#fce4ec" stroke="#706f6f" points="249.5,-390.5 115.5,-390.5 115.5,-290.5 249.5,-290.5 249.5,-390.5"/>
<g id="a_node1_0"><a xlink:href="http://schema.org/PriceSpecification" xlink:title="&lt;TABLE&gt;">
<text text-anchor="start" x="142.9297" y="-376.1" font-family="Roboto" font-size="8.00" fill="#000000">Price specification (s:)</text>
</a>
</g>
<g id="a_node1_1"><a xlink:href="http://schema.mobivoc.org/freeOfCharge" xlink:title="&lt;TABLE&gt;">
<text text-anchor="start" x="127.5" y="-361.1" font-family="Roboto" font-size="8.00" fill="#000000">free of charge : boolean</text>
</a>
</g>
<g id="a_node1_2"><a xlink:href="http://schema.mobivoc.org/unspecifiedCharge" xlink:title="&lt;TABLE&gt;">
<text text-anchor="start" x="127.5" y="-346.1" font-family="Roboto" font-size="8.00" fill="#000000">unspecified charge : boolean</text>
</a>
</g>
<text text-anchor="start" x="127.084" y="-331.1" font-family="Roboto" font-size="8.00" fill="#000000">A structured value representing</text>
<text text-anchor="start" x="127.5" y="-316.1" font-family="Roboto" font-size="8.00" fill="#000000">a price or price range for an</text>
<text text-anchor="start" x="127.5" y="-301.1" font-family="Roboto" font-size="8.00" fill="#000000">item.</text>
<polygon fill="#706f6f" stroke="#706f6f" points="123.5,-370.5 123.5,-370.5 241.5,-370.5 241.5,-370.5 123.5,-370.5"/>
<polygon fill="#706f6f" stroke="#706f6f" points="123.5,-340.5 123.5,-340.5 241.5,-340.5 241.5,-340.5 123.5,-340.5"/>
</g>
<!-- http://schema.org/Vehicle -->
<g id="node2" class="node">
<title>http://schema.org/Vehicle</title>
<polygon fill="#fce4ec" stroke="#706f6f" points="312.5,-190.75 176.5,-190.75 176.5,-105.75 312.5,-105.75 312.5,-190.75"/>
<g id="a_node2_3"><a xlink:href="http://schema.org/Vehicle" xlink:title="&lt;TABLE&gt;">
<text text-anchor="start" x="224.7852" y="-175.85" font-family="Roboto" font-size="8.00" fill="#000000">Vehicle (s:)</text>
</a>
</g>
<text text-anchor="start" x="188.5" y="-160.85" font-family="Roboto" font-size="8.00" fill="#000000">A vehicle is a device that</text>
<text text-anchor="start" x="188.1445" y="-145.85" font-family="Roboto" font-size="8.00" fill="#000000">is designed or used to transport</text>
<text text-anchor="start" x="188.5" y="-130.85" font-family="Roboto" font-size="8.00" fill="#000000">people or cargo over land,</text>
<text text-anchor="start" x="188.5" y="-115.85" font-family="Roboto" font-size="8.00" fill="#000000">water, air, or through space.</text>
<polygon fill="#706f6f" stroke="#706f6f" points="184.5,-170.25 184.5,-170.25 304.5,-170.25 304.5,-170.25 184.5,-170.25"/>
</g>
<!-- http://schema.org/PriceSpecification&#45;&gt;http://schema.org/Vehicle -->
<g id="edge12" class="edge">
<title>http://schema.org/PriceSpecification&#45;&gt;http://schema.org/Vehicle</title>
<g id="a_edge12"><a xlink:href="http://schema.mobivoc.org/validForVehicle" xlink:title="valid for vehicle">
<path fill="none" stroke="#000000" d="M147.0429,-290.4706C136.5696,-269.3603 130.4417,-244.839 141.1523,-223.75 144.9228,-216.3261 155.3431,-206.7782 168.1965,-196.9862"/>
<polygon fill="#000000" stroke="#000000" points="170.5093,-199.6293 176.4763,-190.8746 166.3521,-193.9974 170.5093,-199.6293"/>
</a>
</g>
<g id="a_edge12&#45;label"><a xlink:href="http://schema.mobivoc.org/validForVehicle" xlink:title="valid for vehicle">
<text text-anchor="middle" x="169.1738" y="-231.4125" font-family="Roboto" font-size="8.00" fill="#000000">valid for vehicle</text>
</a>
</g>
</g>
<!-- http://schema.mobivoc.org/UserGroup -->
<g id="node5" class="node">
<title>http://schema.mobivoc.org/UserGroup</title>
<polygon fill="#ffd180" stroke="#706f6f" points="459.5,-175.75 345.5,-175.75 345.5,-120.75 459.5,-120.75 459.5,-175.75"/>
<g id="a_node5_4"><a xlink:href="http://schema.mobivoc.org/UserGroup" xlink:title="&lt;TABLE&gt;">
<text text-anchor="start" x="383.0918" y="-160.85" font-family="Roboto" font-size="8.00" fill="#000000">User group</text>
</a>
</g>
<text text-anchor="start" x="357.293" y="-145.85" font-family="Roboto" font-size="8.00" fill="#000000">A group of users having a</text>
<text text-anchor="start" x="357.5" y="-130.85" font-family="Roboto" font-size="8.00" fill="#000000">common characteristic.</text>
<polygon fill="#706f6f" stroke="#706f6f" points="353.5,-155.25 353.5,-155.25 451.5,-155.25 451.5,-155.25 353.5,-155.25"/>
</g>
<!-- http://schema.org/PriceSpecification&#45;&gt;http://schema.mobivoc.org/UserGroup -->
<g id="edge14" class="edge">
<title>http://schema.org/PriceSpecification&#45;&gt;http://schema.mobivoc.org/UserGroup</title>
<g id="a_edge14"><a xlink:href="http://schema.mobivoc.org/validForGroup" xlink:title="valid for user group">
<path fill="none" stroke="#000000" d="M188.6206,-290.2175C194.076,-266.7156 204.3908,-240.323 223.8906,-223.75 258.1703,-194.6156 282.1334,-223.4336 323.5,-205.75 337.4408,-199.7905 351.2765,-190.9838 363.3813,-182.0442"/>
<polygon fill="#000000" stroke="#000000" points="365.6441,-184.72 371.465,-175.8674 361.3941,-179.1579 365.6441,-184.72"/>
</a>
</g>
<g id="a_edge14&#45;label"><a xlink:href="http://schema.mobivoc.org/validForGroup" xlink:title="valid for user group">
<text text-anchor="middle" x="258.8047" y="-231.4125" font-family="Roboto" font-size="8.00" fill="#000000">valid for user group</text>
</a>
</g>
</g>
<!-- http://schema.mobivoc.org/TimeSpecification -->
<g id="node10" class="node">
<title>http://schema.mobivoc.org/TimeSpecification</title>
<polygon fill="#ffd180" stroke="#706f6f" points="143,-205.75 0,-205.75 0,-90.75 143,-90.75 143,-205.75"/>
<g id="a_node10_5"><a xlink:href="http://schema.mobivoc.org/TimeSpecification" xlink:title="&lt;TABLE&gt;">
<text text-anchor="start" x="39.2871" y="-190.85" font-family="Roboto" font-size="8.00" fill="#000000">Time specification</text>
</a>
</g>
<g id="a_node10_6"><a xlink:href="http://schema.mobivoc.org/overnight" xlink:title="&lt;TABLE&gt;">
<text text-anchor="start" x="12.5" y="-175.85" font-family="Roboto" font-size="8.00" fill="#000000">overnight : boolean</text>
</a>
</g>
<g id="a_node10_7"><a xlink:href="http://schema.mobivoc.org/timeEndValue" xlink:title="&lt;TABLE&gt;">
<text text-anchor="start" x="12.5" y="-160.85" font-family="Roboto" font-size="8.00" fill="#000000">time end value : float</text>
</a>
</g>
<g id="a_node10_8"><a xlink:href="http://schema.mobivoc.org/timeStartValue" xlink:title="&lt;TABLE&gt;">
<text text-anchor="start" x="12.5" y="-145.85" font-family="Roboto" font-size="8.00" fill="#000000">time start value : float</text>
</a>
</g>
<g id="a_node10_9"><a xlink:href="http://schema.mobivoc.org/timeUnit" xlink:title="&lt;TABLE&gt;">
<text text-anchor="start" x="12.5" y="-130.85" font-family="Roboto" font-size="8.00" fill="#000000">time unit : string</text>
</a>
</g>
<text text-anchor="start" x="12.3301" y="-115.85" font-family="Roboto" font-size="8.00" fill="#000000">Specific time a price specification</text>
<text text-anchor="start" x="12.5" y="-100.85" font-family="Roboto" font-size="8.00" fill="#000000">is due for.</text>
<polygon fill="#706f6f" stroke="#706f6f" points="8.5,-185.25 8.5,-185.25 135.5,-185.25 135.5,-185.25 8.5,-185.25"/>
<polygon fill="#706f6f" stroke="#706f6f" points="8.5,-125.25 8.5,-125.25 135.5,-125.25 135.5,-125.25 8.5,-125.25"/>
</g>
<!-- http://schema.org/PriceSpecification&#45;&gt;http://schema.mobivoc.org/TimeSpecification -->
<g id="edge2" class="edge">
<title>http://schema.org/PriceSpecification&#45;&gt;http://schema.mobivoc.org/TimeSpecification</title>
<g id="a_edge2"><a xlink:href="http://schema.mobivoc.org/dueForTime" xlink:title="due for time">
<path fill="none" stroke="#000000" d="M123.6895,-290.346C110.2619,-276.1604 97.3619,-259.8244 88.5273,-242.5 84.3113,-234.2326 81.1243,-225.0902 78.718,-215.8473"/>
<polygon fill="#000000" stroke="#000000" points="82.0617,-214.7712 76.4016,-205.815 75.2412,-216.3461 82.0617,-214.7712"/>
</a>
</g>
<g id="a_edge2&#45;label"><a xlink:href="http://schema.mobivoc.org/dueForTime" xlink:title="due for time">
<text text-anchor="middle" x="110.9863" y="-231.4125" font-family="Roboto" font-size="8.00" fill="#000000">due for time</text>
</a>
</g>
</g>
<!-- http://schema.mobivoc.org/CivicStructureStatus -->
<g id="node3" class="node">
<title>http://schema.mobivoc.org/CivicStructureStatus</title>
<polygon fill="#ffd180" stroke="#706f6f" points="765,-368 642,-368 642,-313 765,-313 765,-368"/>
<g id="a_node3_10"><a xlink:href="http://schema.mobivoc.org/CivicStructureStatus" xlink:title="&lt;TABLE&gt;">
<text text-anchor="start" x="666.3555" y="-353.1" font-family="Roboto" font-size="8.00" fill="#000000">Civic structure status</text>
</a>
</g>
<text text-anchor="start" x="654.0488" y="-338.1" font-family="Roboto" font-size="8.00" fill="#000000">Status information of a civic</text>
<text text-anchor="start" x="654.5" y="-323.1" font-family="Roboto" font-size="8.00" fill="#000000">structure.</text>
<polygon fill="#706f6f" stroke="#706f6f" points="650.5,-347.5 650.5,-347.5 757.5,-347.5 757.5,-347.5 650.5,-347.5"/>
</g>
<!-- http://schema.org/Place -->
<g id="node4" class="node">
<title>http://schema.org/Place</title>
<polygon fill="#fce4ec" stroke="#706f6f" points="917.5,-383 787.5,-383 787.5,-298 917.5,-298 917.5,-383"/>
<g id="a_node4_11"><a xlink:href="http://schema.org/Place" xlink:title="&lt;TABLE&gt;">
<text text-anchor="start" x="835.8379" y="-368.1" font-family="Roboto" font-size="8.00" fill="#000000">Place (s:)</text>
</a>
</g>
<g id="a_node4_12"><a xlink:href="http://www.w3.org/2003/01/geo/wgs84_pos#lat" xlink:title="&lt;TABLE&gt;">
<text text-anchor="start" x="799.5" y="-353.1" font-family="Roboto" font-size="8.00" fill="#000000">latitude (geo:) : string</text>
</a>
</g>
<g id="a_node4_13"><a xlink:href="http://www.w3.org/2003/01/geo/wgs84_pos#long" xlink:title="&lt;TABLE&gt;">
<text text-anchor="start" x="799.5" y="-338.1" font-family="Roboto" font-size="8.00" fill="#000000">longitude (geo:) : string</text>
</a>
</g>
<text text-anchor="start" x="799.1133" y="-323.1" font-family="Roboto" font-size="8.00" fill="#000000">Entities that have a somewhat</text>
<text text-anchor="start" x="799.5" y="-308.1" font-family="Roboto" font-size="8.00" fill="#000000">fixed, physical extension.</text>
<polygon fill="#706f6f" stroke="#706f6f" points="795.5,-362.5 795.5,-362.5 909.5,-362.5 909.5,-362.5 795.5,-362.5"/>
<polygon fill="#706f6f" stroke="#706f6f" points="795.5,-332.5 795.5,-332.5 909.5,-332.5 909.5,-332.5 795.5,-332.5"/>
</g>
<!-- http://schema.org/PostalAddress -->
<g id="node12" class="node">
<title>http://schema.org/PostalAddress</title>
<polygon fill="#fce4ec" stroke="#706f6f" points="901.5,-168.25 803.5,-168.25 803.5,-128.25 901.5,-128.25 901.5,-168.25"/>
<g id="a_node12_14"><a xlink:href="http://schema.org/PostalAddress" xlink:title="&lt;TABLE&gt;">
<text text-anchor="start" x="819.1875" y="-153.85" font-family="Roboto" font-size="8.00" fill="#000000">Postal address (s:)</text>
</a>
</g>
<text text-anchor="start" x="815.4648" y="-138.85" font-family="Roboto" font-size="8.00" fill="#000000">The mailing address.</text>
<polygon fill="#706f6f" stroke="#706f6f" points="811.5,-148.25 811.5,-148.25 893.5,-148.25 893.5,-148.25 811.5,-148.25"/>
</g>
<!-- http://schema.org/Place&#45;&gt;http://schema.org/PostalAddress -->
<g id="edge9" class="edge">
<title>http://schema.org/Place&#45;&gt;http://schema.org/PostalAddress</title>
<g id="a_edge9"><a xlink:href="http://schema.org/address" xlink:title="address (s:)">
<path fill="none" stroke="#000000" d="M852.5,-297.8335C852.5,-261.6567 852.5,-210.6675 852.5,-178.5476"/>
<polygon fill="#000000" stroke="#000000" points="856.0001,-178.4268 852.5,-168.4268 849.0001,-178.4269 856.0001,-178.4268"/>
</a>
</g>
<g id="a_edge9&#45;label"><a xlink:href="http://schema.org/address" xlink:title="address (s:)">
<text text-anchor="middle" x="873.5273" y="-231.4125" font-family="Roboto" font-size="8.00" fill="#000000">address (s:)</text>
</a>
</g>
</g>
<!-- http://purl.org/goodrelations/v1#BusinessEntity -->
<g id="node13" class="node">
<title>http://purl.org/goodrelations/v1#BusinessEntity</title>
<polygon fill="#cecece" stroke="#706f6f" points="597.7736,-36 411.2264,-36 411.2264,0 597.7736,0 597.7736,-36"/>
<text text-anchor="middle" x="504.5" y="-16.2875" font-family="Roboto" font-size="8.00" fill="#000000">http://purl.org/goodrelations/v1#BusinessEntity</text>
</g>
<!-- http://schema.mobivoc.org/UserGroup&#45;&gt;http://purl.org/goodrelations/v1#BusinessEntity -->
<g id="edge7" class="edge">
<title>http://schema.mobivoc.org/UserGroup&#45;&gt;http://purl.org/goodrelations/v1#BusinessEntity</title>
<g id="a_edge7"><a xlink:href="http://schema.mobivoc.org/customerOf" xlink:title="customer of&#10;employee of">
<path fill="none" stroke="#000000" d="M424.1316,-120.6273C441.762,-98.1139 466.4956,-66.5301 483.8542,-44.3639"/>
<polygon fill="#000000" stroke="#000000" points="486.7057,-46.3993 490.1157,-36.3682 481.1945,-42.0834 486.7057,-46.3993"/>
</a>
</g>
<g id="a_edge7&#45;label"><a xlink:href="http://schema.mobivoc.org/customerOf" xlink:title="customer of&#10;employee of">
<text text-anchor="middle" x="496.3574" y="-66.35" font-family="Roboto" font-size="8.00" fill="#000000">customer of</text>
<text text-anchor="middle" x="496.3574" y="-56.975" font-family="Roboto" font-size="8.00" fill="#000000">employee of</text>
</a>
</g>
</g>
<!-- http://schema.mobivoc.org/Action -->
<g id="node6" class="node">
<title>http://schema.mobivoc.org/Action</title>
<polygon fill="#ffd180" stroke="#706f6f" points="573.5,-168.25 481.5,-168.25 481.5,-128.25 573.5,-128.25 573.5,-168.25"/>
<g id="a_node6_15"><a xlink:href="http://schema.mobivoc.org/Action" xlink:title="&lt;TABLE&gt;">
<text text-anchor="start" x="516.0313" y="-153.85" font-family="Roboto" font-size="8.00" fill="#000000">Action</text>
</a>
</g>
<text text-anchor="start" x="493.1191" y="-138.85" font-family="Roboto" font-size="8.00" fill="#000000">Action that is done.</text>
<polygon fill="#706f6f" stroke="#706f6f" points="489.5,-148.25 489.5,-148.25 565.5,-148.25 565.5,-148.25 489.5,-148.25"/>
</g>
<!-- http://schema.org/OpeningHoursSpecification -->
<g id="node7" class="node">
<title>http://schema.org/OpeningHoursSpecification</title>
<polygon fill="#fce4ec" stroke="#706f6f" points="1075.5,-383 939.5,-383 939.5,-298 1075.5,-298 1075.5,-383"/>
<g id="a_node7_16"><a xlink:href="http://schema.org/OpeningHoursSpecification" xlink:title="&lt;TABLE&gt;">
<text text-anchor="start" x="951.1523" y="-368.1" font-family="Roboto" font-size="8.00" fill="#000000">Opening hours specification (s:)</text>
</a>
</g>
<text text-anchor="start" x="951.5" y="-353.1" font-family="Roboto" font-size="8.00" fill="#000000">A structured value providing</text>
<text text-anchor="start" x="951.5" y="-338.1" font-family="Roboto" font-size="8.00" fill="#000000">information about the opening</text>
<text text-anchor="start" x="951.5" y="-323.1" font-family="Roboto" font-size="8.00" fill="#000000">hours of a place or a certain</text>
<text text-anchor="start" x="951.5" y="-308.1" font-family="Roboto" font-size="8.00" fill="#000000">service inside a place.</text>
<polygon fill="#706f6f" stroke="#706f6f" points="947.5,-362.5 947.5,-362.5 1067.5,-362.5 1067.5,-362.5 947.5,-362.5"/>
</g>
<!-- http://schema.mobivoc.org/AccessCondition -->
<g id="node8" class="node">
<title>http://schema.mobivoc.org/AccessCondition</title>
<polygon fill="#ffd180" stroke="#706f6f" points="527.5,-375.5 413.5,-375.5 413.5,-305.5 527.5,-305.5 527.5,-375.5"/>
<g id="a_node8_17"><a xlink:href="http://schema.mobivoc.org/AccessCondition" xlink:title="&lt;TABLE&gt;">
<text text-anchor="start" x="439.8945" y="-361.1" font-family="Roboto" font-size="8.00" fill="#000000">Access condition</text>
</a>
</g>
<text text-anchor="start" x="425.0195" y="-346.1" font-family="Roboto" font-size="8.00" fill="#000000">A condition that has to be</text>
<text text-anchor="start" x="425.5" y="-331.1" font-family="Roboto" font-size="8.00" fill="#000000">fullfilled to get access</text>
<text text-anchor="start" x="425.5" y="-316.1" font-family="Roboto" font-size="8.00" fill="#000000">to a civic structure.</text>
<polygon fill="#706f6f" stroke="#706f6f" points="421.5,-355.5 421.5,-355.5 519.5,-355.5 519.5,-355.5 421.5,-355.5"/>
</g>
<!-- http://schema.mobivoc.org/AccessCondition&#45;&gt;http://schema.org/Vehicle -->
<g id="edge5" class="edge">
<title>http://schema.mobivoc.org/AccessCondition&#45;&gt;http://schema.org/Vehicle</title>
<g id="a_edge5"><a xlink:href="http://schema.mobivoc.org/restrictedToVehicleType" xlink:title="restricted to vehicle type">
<path fill="none" stroke="#000000" d="M415.9688,-305.413C389.8642,-287.7026 358.7149,-265.1955 332.75,-242.5 317.3717,-229.0581 301.7607,-213.2449 288.0307,-198.4513"/>
<polygon fill="#000000" stroke="#000000" points="290.3735,-195.8277 281.0335,-190.8261 285.2159,-200.5605 290.3735,-195.8277"/>
</a>
</g>
<g id="a_edge5&#45;label"><a xlink:href="http://schema.mobivoc.org/restrictedToVehicleType" xlink:title="restricted to vehicle type">
<text text-anchor="middle" x="376.875" y="-231.4125" font-family="Roboto" font-size="8.00" fill="#000000">restricted to vehicle type</text>
</a>
</g>
</g>
<!-- http://schema.mobivoc.org/AccessCondition&#45;&gt;http://schema.mobivoc.org/UserGroup -->
<g id="edge6" class="edge">
<title>http://schema.mobivoc.org/AccessCondition&#45;&gt;http://schema.mobivoc.org/UserGroup</title>
<g id="a_edge6"><a xlink:href="http://schema.mobivoc.org/restrictedToGroup" xlink:title="restricted to user group">
<path fill="none" stroke="#000000" d="M454.5365,-305.0447C446.5271,-286.5932 436.9843,-263.5485 429.5938,-242.5 423.1342,-224.1029 417.0318,-203.3038 412.2599,-185.9337"/>
<polygon fill="#000000" stroke="#000000" points="415.6021,-184.8851 409.6113,-176.1467 408.8451,-186.7138 415.6021,-184.8851"/>
</a>
</g>
<g id="a_edge6&#45;label"><a xlink:href="http://schema.mobivoc.org/restrictedToGroup" xlink:title="restricted to user group">
<text text-anchor="middle" x="471.9531" y="-231.4125" font-family="Roboto" font-size="8.00" fill="#000000">restricted to user group</text>
</a>
</g>
</g>
<!-- http://schema.mobivoc.org/AccessCondition&#45;&gt;http://schema.mobivoc.org/Action -->
<g id="edge1" class="edge">
<title>http://schema.mobivoc.org/AccessCondition&#45;&gt;http://schema.mobivoc.org/Action</title>
<g id="a_edge1"><a xlink:href="http://schema.mobivoc.org/action" xlink:title="action">
<path fill="none" stroke="#000000" d="M490.9676,-305.3559C500.6064,-287.1782 511.3198,-264.2835 517.5,-242.5 523.4218,-221.6274 525.8963,-197.2528 526.9037,-178.5209"/>
<polygon fill="#000000" stroke="#000000" points="530.4024,-178.6242 527.3336,-168.4835 523.4088,-178.3245 530.4024,-178.6242"/>
</a>
</g>
<g id="a_edge1&#45;label"><a xlink:href="http://schema.mobivoc.org/action" xlink:title="action">
<text text-anchor="middle" x="532.5352" y="-231.4125" font-family="Roboto" font-size="8.00" fill="#000000">action</text>
</a>
</g>
</g>
<!-- http://schema.org/CivicStructure -->
<g id="node9" class="node">
<title>http://schema.org/CivicStructure</title>
<polygon fill="#fce4ec" stroke="#706f6f" points="776,-640.875 631,-640.875 631,-465.875 776,-465.875 776,-640.875"/>
<g id="a_node9_18"><a xlink:href="http://schema.org/CivicStructure" xlink:title="&lt;TABLE&gt;">
<text text-anchor="start" x="671.6855" y="-625.975" font-family="Roboto" font-size="8.00" fill="#000000">Civic structure (s:)</text>
</a>
</g>
<g id="a_node9_19"><a xlink:href="http://schema.mobivoc.org/id" xlink:title="&lt;TABLE&gt;">
<text text-anchor="start" x="643.5" y="-610.975" font-family="Roboto" font-size="8.00" fill="#000000">ID : string</text>
</a>
</g>
<g id="a_node9_20"><a xlink:href="http://schema.mobivoc.org/additionalInformation" xlink:title="&lt;TABLE&gt;">
<text text-anchor="start" x="643.5" y="-595.975" font-family="Roboto" font-size="8.00" fill="#000000">additional information : string</text>
</a>
</g>
<g id="a_node9_21"><a xlink:href="http://schema.mobivoc.org/name" xlink:title="&lt;TABLE&gt;">
<text text-anchor="start" x="643.5" y="-580.975" font-family="Roboto" font-size="8.00" fill="#000000">name : string</text>
</a>
</g>
<g id="a_node9_22"><a xlink:href="http://schema.mobivoc.org/picture" xlink:title="&lt;TABLE&gt;">
<text text-anchor="start" x="643.5" y="-565.975" font-family="Roboto" font-size="8.00" fill="#000000">picture : string</text>
</a>
</g>
<g id="a_node9_23"><a xlink:href="http://schema.mobivoc.org/vehicleHeightLimitInM" xlink:title="&lt;TABLE&gt;">
<text text-anchor="start" x="643.5" y="-550.975" font-family="Roboto" font-size="8.00" fill="#000000">vechicle height limit : decimal</text>
</a>
</g>
<g id="a_node9_24"><a xlink:href="http://schema.mobivoc.org/vehicleLengthLimitInM" xlink:title="&lt;TABLE&gt;">
<text text-anchor="start" x="643.5" y="-535.975" font-family="Roboto" font-size="8.00" fill="#000000">vehicle length limit : decimal</text>
</a>
</g>
<g id="a_node9_25"><a xlink:href="http://schema.mobivoc.org/vehicleWidthLimitInM" xlink:title="&lt;TABLE&gt;">
<text text-anchor="start" x="643.5" y="-520.975" font-family="Roboto" font-size="8.00" fill="#000000">vehicle width limit : decimal</text>
</a>
</g>
<text text-anchor="start" x="643.5" y="-505.975" font-family="Roboto" font-size="8.00" fill="#000000">A public structure, such as a town</text>
<text text-anchor="start" x="643.4434" y="-490.975" font-family="Roboto" font-size="8.00" fill="#000000">hall or concert hall, parking facility</text>
<text text-anchor="start" x="643.5" y="-475.975" font-family="Roboto" font-size="8.00" fill="#000000">or charging point.</text>
<polygon fill="#706f6f" stroke="#706f6f" points="639.5,-620.375 639.5,-620.375 768.5,-620.375 768.5,-620.375 639.5,-620.375"/>
<polygon fill="#706f6f" stroke="#706f6f" points="639.5,-515.375 639.5,-515.375 768.5,-515.375 768.5,-515.375 639.5,-515.375"/>
</g>
<!-- http://schema.org/CivicStructure&#45;&gt;http://schema.org/PriceSpecification -->
<g id="edge13" class="edge">
<title>http://schema.org/CivicStructure&#45;&gt;http://schema.org/PriceSpecification</title>
<g id="a_edge13"><a xlink:href="http://schema.mobivoc.org/price" xlink:title="price">
<path fill="none" stroke="#000000" d="M630.7831,-523.6637C532.7865,-483.6233 359.1213,-412.6656 259.1477,-371.8174"/>
<polygon fill="#000000" stroke="#000000" points="260.2888,-368.5028 249.7079,-367.9604 257.6412,-374.9828 260.2888,-368.5028"/>
</a>
</g>
<g id="a_edge13&#45;label"><a xlink:href="http://schema.mobivoc.org/price" xlink:title="price">
<text text-anchor="middle" x="452.2813" y="-441.475" font-family="Roboto" font-size="8.00" fill="#000000">price</text>
</a>
</g>
</g>
<!-- http://schema.org/CivicStructure&#45;&gt;http://schema.mobivoc.org/CivicStructureStatus -->
<g id="edge8" class="edge">
<title>http://schema.org/CivicStructure&#45;&gt;http://schema.mobivoc.org/CivicStructureStatus</title>
<g id="a_edge8"><a xlink:href="http://schema.mobivoc.org/civicStructureStatus" xlink:title="civic structure status">
<path fill="none" stroke="#000000" d="M703.5,-465.869C703.5,-435.3018 703.5,-402.582 703.5,-378.236"/>
<polygon fill="#000000" stroke="#000000" points="707.0001,-378.0119 703.5,-368.0119 700.0001,-378.012 707.0001,-378.0119"/>
</a>
</g>
<g id="a_edge8&#45;label"><a xlink:href="http://schema.mobivoc.org/civicStructureStatus" xlink:title="civic structure status">
<text text-anchor="middle" x="740.6348" y="-441.475" font-family="Roboto" font-size="8.00" fill="#000000">civic structure status</text>
</a>
</g>
</g>
<!-- http://schema.org/CivicStructure&#45;&gt;http://schema.org/Place -->
<g id="edge15" class="edge">
<title>http://schema.org/CivicStructure&#45;&gt;http://schema.org/Place</title>
<path fill="none" stroke="#000000" d="M769.8851,-465.6129C774.1962,-459.6404 778.4351,-453.6881 782.5,-447.875 795.1028,-429.8521 808.4074,-409.7422 819.9936,-391.8427"/>
<polygon fill="none" stroke="#000000" points="823.0552,-393.5531 825.5327,-383.252 817.1721,-389.7597 823.0552,-393.5531"/>
</g>
<!-- http://schema.org/CivicStructure&#45;&gt;http://schema.org/OpeningHoursSpecification -->
<g id="edge4" class="edge">
<title>http://schema.org/CivicStructure&#45;&gt;http://schema.org/OpeningHoursSpecification</title>
<g id="a_edge4"><a xlink:href="http://schema.org/openingHoursSpecification" xlink:title="opening hours specification (s:)">
<path fill="none" stroke="#000000" d="M776.2099,-516.6707C821.8364,-492.1596 880.8405,-457.6852 928.5,-420.5 940.0036,-411.5246 951.5248,-400.9699 962.0725,-390.5235"/>
<polygon fill="#000000" stroke="#000000" points="964.6506,-392.8944 969.2071,-383.3294 959.6803,-387.9652 964.6506,-392.8944"/>
</a>
</g>
<g id="a_edge4&#45;label"><a xlink:href="http://schema.org/openingHoursSpecification" xlink:title="opening hours specification (s:)">
<text text-anchor="middle" x="955.3789" y="-441.475" font-family="Roboto" font-size="8.00" fill="#000000">opening hours specification (s:)</text>
</a>
</g>
</g>
<!-- http://schema.org/CivicStructure&#45;&gt;http://schema.mobivoc.org/AccessCondition -->
<g id="edge3" class="edge">
<title>http://schema.org/CivicStructure&#45;&gt;http://schema.mobivoc.org/AccessCondition</title>
<g id="a_edge3"><a xlink:href="http://schema.mobivoc.org/access" xlink:title="access">
<path fill="none" stroke="#000000" d="M630.6741,-501.9903C608.9208,-485.5435 585.4995,-466.6982 565.2852,-447.875 544.0792,-428.1284 522.539,-404.1103 505.3629,-383.801"/>
<polygon fill="#000000" stroke="#000000" points="507.8704,-381.344 498.7645,-375.928 502.5054,-385.8404 507.8704,-381.344"/>
</a>
</g>
<g id="a_edge3&#45;label"><a xlink:href="http://schema.mobivoc.org/access" xlink:title="access">
<text text-anchor="middle" x="577.1074" y="-441.475" font-family="Roboto" font-size="8.00" fill="#000000">access</text>
</a>
</g>
</g>
<!-- http://schema.org/PaymentMethod -->
<g id="node11" class="node">
<title>http://schema.org/PaymentMethod</title>
<polygon fill="#fce4ec" stroke="#706f6f" points="1251,-420.5 1098,-420.5 1098,-260.5 1251,-260.5 1251,-420.5"/>
<g id="a_node11_26"><a xlink:href="http://schema.org/PaymentMethod" xlink:title="&lt;TABLE&gt;">
<text text-anchor="start" x="1137.8789" y="-406.1" font-family="Roboto" font-size="8.00" fill="#000000">Payment method (s:)</text>
</a>
</g>
<text text-anchor="start" x="1110.084" y="-391.1" font-family="Roboto" font-size="8.00" fill="#000000">A payment method is a standardized</text>
<text text-anchor="start" x="1110.5" y="-376.1" font-family="Roboto" font-size="8.00" fill="#000000">procedure for transferring</text>
<text text-anchor="start" x="1110.5" y="-361.1" font-family="Roboto" font-size="8.00" fill="#000000">the monetary amount for a</text>
<text text-anchor="start" x="1110.5" y="-346.1" font-family="Roboto" font-size="8.00" fill="#000000">purchase. Payment methods</text>
<text text-anchor="start" x="1110.5" y="-331.1" font-family="Roboto" font-size="8.00" fill="#000000">are characterized by the</text>
<text text-anchor="start" x="1110.5" y="-316.1" font-family="Roboto" font-size="8.00" fill="#000000">legal and technical structures</text>
<text text-anchor="start" x="1110.5" y="-301.1" font-family="Roboto" font-size="8.00" fill="#000000">used, and by the organization</text>
<text text-anchor="start" x="1110.5" y="-286.1" font-family="Roboto" font-size="8.00" fill="#000000">or group carrying out the</text>
<text text-anchor="start" x="1110.5" y="-271.1" font-family="Roboto" font-size="8.00" fill="#000000">transaction.</text>
<polygon fill="#706f6f" stroke="#706f6f" points="1106.5,-400.5 1106.5,-400.5 1243.5,-400.5 1243.5,-400.5 1106.5,-400.5"/>
</g>
<!-- http://schema.org/CivicStructure&#45;&gt;http://schema.org/PaymentMethod -->
<g id="edge10" class="edge">
<title>http://schema.org/CivicStructure&#45;&gt;http://schema.org/PaymentMethod</title>
<g id="a_edge10"><a xlink:href="http://schema.org/acceptedPaymentMethod" xlink:title="accepted payment method (s:)">
<path fill="none" stroke="#000000" d="M776.1434,-538.3216C856.4473,-519.4517 987.5216,-481.9084 1086.5,-420.5 1087.443,-419.9149 1088.3853,-419.3191 1089.3263,-418.7134"/>
<polygon fill="#000000" stroke="#000000" points="1091.4329,-421.5139 1097.7533,-413.0108 1087.5098,-415.7166 1091.4329,-421.5139"/>
</a>
</g>
<g id="a_edge10&#45;label"><a xlink:href="http://schema.org/acceptedPaymentMethod" xlink:title="accepted payment method (s:)">
<text text-anchor="middle" x="1101.7617" y="-441.475" font-family="Roboto" font-size="8.00" fill="#000000">accepted payment method (s:)</text>
</a>
</g>
</g>
<!-- http://schema.org/CivicStructure&#45;&gt;http://purl.org/goodrelations/v1#BusinessEntity -->
<g id="edge11" class="edge">
<title>http://schema.org/CivicStructure&#45;&gt;http://purl.org/goodrelations/v1#BusinessEntity</title>
<g id="a_edge11"><a xlink:href="http://schema.mobivoc.org/operatedBy" xlink:title="operated by&#10;owned by">
<path fill="none" stroke="#000000" d="M650.3751,-465.6265C643.1266,-450.9421 636.4794,-435.5725 631.5,-420.5 585.0624,-279.9353 653.8042,-221.5621 584.5,-90.75 574.3216,-71.5383 556.9798,-54.8201 541.039,-42.2712"/>
<polygon fill="#000000" stroke="#000000" points="542.9632,-39.3382 532.876,-36.0978 538.7408,-44.9214 542.9632,-39.3382"/>
</a>
</g>
<g id="a_edge11&#45;label"><a xlink:href="http://schema.mobivoc.org/operatedBy" xlink:title="operated by&#10;owned by">
<text text-anchor="middle" x="638.3828" y="-236.1" font-family="Roboto" font-size="8.00" fill="#000000">operated by</text>
<text text-anchor="middle" x="638.3828" y="-226.725" font-family="Roboto" font-size="8.00" fill="#000000">owned by</text>
</a>
</g>
</g>
</g>
</svg>
