<?xml version="1.0" encoding="UTF-8" standalone="no"?>
<!DOCTYPE svg PUBLIC "-//W3C//DTD SVG 1.1//EN"
 "http://www.w3.org/Graphics/SVG/1.1/DTD/svg11.dtd">
<!-- Generated by graphviz version 2.40.1 (20161225.0304)
 -->
<!-- Title: http://schema.mobivoc.org/ Pages: 1 -->
<svg width="2621pt" height="1352pt"
 viewBox="0.00 0.00 1258.00 648.88" xmlns="http://www.w3.org/2000/svg" xmlns:xlink="http://www.w3.org/1999/xlink">
<g id="graph0" class="graph" transform="scale(2.0833 2.0833) rotate(0) translate(4 644.875)">
<title>http://schema.mobivoc.org/</title>
<polygon fill="#ffffff" stroke="transparent" points="-4,4 -4,-644.875 1254,-644.875 1254,4 -4,4"/>
<!-- http://schema.org/Vehicle -->
<g id="node1" class="node">
<title>http://schema.org/Vehicle</title>
<polygon fill="#e0f7fa" stroke="#706f6f" points="459.5,-190.75 323.5,-190.75 323.5,-105.75 459.5,-105.75 459.5,-190.75"/>
<g id="a_node1_0"><a xlink:href="http://schema.org/Vehicle" xlink:title="&lt;TABLE&gt;">
<text text-anchor="start" x="371.7852" y="-175.85" font-family="Roboto" font-size="8.00" fill="#000000">Vehicle (s:)</text>
</a>
</g>
<text text-anchor="start" x="335.5" y="-160.85" font-family="Roboto" font-size="8.00" fill="#000000">A vehicle is a device that</text>
<text text-anchor="start" x="335.1445" y="-145.85" font-family="Roboto" font-size="8.00" fill="#000000">is designed or used to transport</text>
<text text-anchor="start" x="335.5" y="-130.85" font-family="Roboto" font-size="8.00" fill="#000000">people or cargo over land,</text>
<text text-anchor="start" x="335.5" y="-115.85" font-family="Roboto" font-size="8.00" fill="#000000">water, air, or through space.</text>
<polygon fill="#706f6f" stroke="#706f6f" points="331.5,-170.25 331.5,-170.25 451.5,-170.25 451.5,-170.25 331.5,-170.25"/>
</g>
<!-- http://schema.mobivoc.org/Action -->
<g id="node2" class="node">
<title>http://schema.mobivoc.org/Action</title>
<polygon fill="#ffd180" stroke="#706f6f" points="573.5,-168.25 481.5,-168.25 481.5,-128.25 573.5,-128.25 573.5,-168.25"/>
<g id="a_node2_1"><a xlink:href="http://schema.mobivoc.org/Action" xlink:title="&lt;TABLE&gt;">
<text text-anchor="start" x="516.0313" y="-153.85" font-family="Roboto" font-size="8.00" fill="#000000">Action</text>
</a>
</g>
<text text-anchor="start" x="493.1191" y="-138.85" font-family="Roboto" font-size="8.00" fill="#000000">Action that is done.</text>
<polygon fill="#706f6f" stroke="#706f6f" points="489.5,-148.25 489.5,-148.25 565.5,-148.25 565.5,-148.25 489.5,-148.25"/>
</g>
<!-- http://schema.org/CivicStructure -->
<g id="node3" class="node">
<title>http://schema.org/CivicStructure</title>
<polygon fill="#e0f7fa" stroke="#706f6f" points="779,-640.875 634,-640.875 634,-465.875 779,-465.875 779,-640.875"/>
<g id="a_node3_2"><a xlink:href="http://schema.org/CivicStructure" xlink:title="&lt;TABLE&gt;">
<text text-anchor="start" x="674.6855" y="-625.975" font-family="Roboto" font-size="8.00" fill="#000000">Civic structure (s:)</text>
</a>
</g>
<g id="a_node3_3"><a xlink:href="http://schema.mobivoc.org/vehicleWidthLimitInM" xlink:title="&lt;TABLE&gt;">
<text text-anchor="start" x="646.5" y="-610.975" font-family="Roboto" font-size="8.00" fill="#000000">vehicle width limit : decimal</text>
</a>
</g>
<g id="a_node3_4"><a xlink:href="http://schema.mobivoc.org/vehicleHeightLimitInM" xlink:title="&lt;TABLE&gt;">
<text text-anchor="start" x="646.5" y="-595.975" font-family="Roboto" font-size="8.00" fill="#000000">vechicle height limit : decimal</text>
</a>
</g>
<g id="a_node3_5"><a xlink:href="http://schema.mobivoc.org/picture" xlink:title="&lt;TABLE&gt;">
<text text-anchor="start" x="646.5" y="-580.975" font-family="Roboto" font-size="8.00" fill="#000000">picture : string</text>
</a>
</g>
<g id="a_node3_6"><a xlink:href="http://schema.mobivoc.org/id" xlink:title="&lt;TABLE&gt;">
<text text-anchor="start" x="646.5" y="-565.975" font-family="Roboto" font-size="8.00" fill="#000000">ID : string</text>
</a>
</g>
<g id="a_node3_7"><a xlink:href="http://schema.mobivoc.org/name" xlink:title="&lt;TABLE&gt;">
<text text-anchor="start" x="646.5" y="-550.975" font-family="Roboto" font-size="8.00" fill="#000000">name : string</text>
</a>
</g>
<g id="a_node3_8"><a xlink:href="http://schema.mobivoc.org/additionalInformation" xlink:title="&lt;TABLE&gt;">
<text text-anchor="start" x="646.5" y="-535.975" font-family="Roboto" font-size="8.00" fill="#000000">additional information : string</text>
</a>
</g>
<g id="a_node3_9"><a xlink:href="http://schema.mobivoc.org/vehicleLengthLimitInM" xlink:title="&lt;TABLE&gt;">
<text text-anchor="start" x="646.5" y="-520.975" font-family="Roboto" font-size="8.00" fill="#000000">vehicle length limit : decimal</text>
</a>
</g>
<text text-anchor="start" x="646.5" y="-505.975" font-family="Roboto" font-size="8.00" fill="#000000">A public structure, such as a town</text>
<text text-anchor="start" x="646.4434" y="-490.975" font-family="Roboto" font-size="8.00" fill="#000000">hall or concert hall, parking facility</text>
<text text-anchor="start" x="646.5" y="-475.975" font-family="Roboto" font-size="8.00" fill="#000000">or charging point.</text>
<polygon fill="#706f6f" stroke="#706f6f" points="642.5,-620.375 642.5,-620.375 771.5,-620.375 771.5,-620.375 642.5,-620.375"/>
<polygon fill="#706f6f" stroke="#706f6f" points="642.5,-515.375 642.5,-515.375 771.5,-515.375 771.5,-515.375 642.5,-515.375"/>
</g>
<!-- http://schema.org/Place -->
<g id="node4" class="node">
<title>http://schema.org/Place</title>
<polygon fill="#e0f7fa" stroke="#706f6f" points="771.5,-383 641.5,-383 641.5,-298 771.5,-298 771.5,-383"/>
<g id="a_node4_10"><a xlink:href="http://schema.org/Place" xlink:title="&lt;TABLE&gt;">
<text text-anchor="start" x="689.8379" y="-368.1" font-family="Roboto" font-size="8.00" fill="#000000">Place (s:)</text>
</a>
</g>
<g id="a_node4_11"><a xlink:href="http://www.w3.org/2003/01/geo/wgs84_pos#long" xlink:title="&lt;TABLE&gt;">
<text text-anchor="start" x="653.5" y="-353.1" font-family="Roboto" font-size="8.00" fill="#000000">longitude (geo:) : string</text>
</a>
</g>
<g id="a_node4_12"><a xlink:href="http://www.w3.org/2003/01/geo/wgs84_pos#lat" xlink:title="&lt;TABLE&gt;">
<text text-anchor="start" x="653.5" y="-338.1" font-family="Roboto" font-size="8.00" fill="#000000">latitude (geo:) : string</text>
</a>
</g>
<text text-anchor="start" x="653.1133" y="-323.1" font-family="Roboto" font-size="8.00" fill="#000000">Entities that have a somewhat</text>
<text text-anchor="start" x="653.5" y="-308.1" font-family="Roboto" font-size="8.00" fill="#000000">fixed, physical extension.</text>
<polygon fill="#706f6f" stroke="#706f6f" points="649.5,-362.5 649.5,-362.5 763.5,-362.5 763.5,-362.5 649.5,-362.5"/>
<polygon fill="#706f6f" stroke="#706f6f" points="649.5,-332.5 649.5,-332.5 763.5,-332.5 763.5,-332.5 649.5,-332.5"/>
</g>
<!-- http://schema.org/CivicStructure&#45;&gt;http://schema.org/Place -->
<g id="edge15" class="edge">
<title>http://schema.org/CivicStructure&#45;&gt;http://schema.org/Place</title>
<path fill="none" stroke="#000000" d="M706.5,-465.869C706.5,-441.2187 706.5,-415.1687 706.5,-393.2391"/>
<polygon fill="none" stroke="#000000" points="710.0001,-393.1521 706.5,-383.1521 703.0001,-393.1521 710.0001,-393.1521"/>
</g>
<!-- http://schema.org/PriceSpecification -->
<g id="node7" class="node">
<title>http://schema.org/PriceSpecification</title>
<polygon fill="#e0f7fa" stroke="#706f6f" points="256.5,-390.5 122.5,-390.5 122.5,-290.5 256.5,-290.5 256.5,-390.5"/>
<g id="a_node7_13"><a xlink:href="http://schema.org/PriceSpecification" xlink:title="&lt;TABLE&gt;">
<text text-anchor="start" x="149.9297" y="-376.1" font-family="Roboto" font-size="8.00" fill="#000000">Price specification (s:)</text>
</a>
</g>
<g id="a_node7_14"><a xlink:href="http://schema.mobivoc.org/unspecifiedCharge" xlink:title="&lt;TABLE&gt;">
<text text-anchor="start" x="134.5" y="-361.1" font-family="Roboto" font-size="8.00" fill="#000000">unspecified charge : boolean</text>
</a>
</g>
<g id="a_node7_15"><a xlink:href="http://schema.mobivoc.org/freeOfCharge" xlink:title="&lt;TABLE&gt;">
<text text-anchor="start" x="134.5" y="-346.1" font-family="Roboto" font-size="8.00" fill="#000000">free of charge : boolean</text>
</a>
</g>
<text text-anchor="start" x="134.084" y="-331.1" font-family="Roboto" font-size="8.00" fill="#000000">A structured value representing</text>
<text text-anchor="start" x="134.5" y="-316.1" font-family="Roboto" font-size="8.00" fill="#000000">a price or price range for an</text>
<text text-anchor="start" x="134.5" y="-301.1" font-family="Roboto" font-size="8.00" fill="#000000">item.</text>
<polygon fill="#706f6f" stroke="#706f6f" points="130.5,-370.5 130.5,-370.5 248.5,-370.5 248.5,-370.5 130.5,-370.5"/>
<polygon fill="#706f6f" stroke="#706f6f" points="130.5,-340.5 130.5,-340.5 248.5,-340.5 248.5,-340.5 130.5,-340.5"/>
</g>
<!-- http://schema.org/CivicStructure&#45;&gt;http://schema.org/PriceSpecification -->
<g id="edge12" class="edge">
<title>http://schema.org/CivicStructure&#45;&gt;http://schema.org/PriceSpecification</title>
<g id="a_edge12"><a xlink:href="http://schema.mobivoc.org/price" xlink:title="price">
<path fill="none" stroke="#000000" d="M633.7962,-523.4392C536.6662,-483.4458 365.3282,-412.8973 266.207,-372.0841"/>
<polygon fill="#000000" stroke="#000000" points="267.4244,-368.8004 256.845,-368.2293 264.7592,-375.2732 267.4244,-368.8004"/>
</a>
</g>
<g id="a_edge12&#45;label"><a xlink:href="http://schema.mobivoc.org/price" xlink:title="price">
<text text-anchor="middle" x="457.2813" y="-441.475" font-family="Roboto" font-size="8.00" fill="#000000">price</text>
</a>
</g>
</g>
<!-- http://schema.org/OpeningHoursSpecification -->
<g id="node8" class="node">
<title>http://schema.org/OpeningHoursSpecification</title>
<polygon fill="#e0f7fa" stroke="#706f6f" points="929.5,-383 793.5,-383 793.5,-298 929.5,-298 929.5,-383"/>
<g id="a_node8_16"><a xlink:href="http://schema.org/OpeningHoursSpecification" xlink:title="&lt;TABLE&gt;">
<text text-anchor="start" x="805.1523" y="-368.1" font-family="Roboto" font-size="8.00" fill="#000000">Opening hours specification (s:)</text>
</a>
</g>
<text text-anchor="start" x="805.5" y="-353.1" font-family="Roboto" font-size="8.00" fill="#000000">A structured value providing</text>
<text text-anchor="start" x="805.5" y="-338.1" font-family="Roboto" font-size="8.00" fill="#000000">information about the opening</text>
<text text-anchor="start" x="805.5" y="-323.1" font-family="Roboto" font-size="8.00" fill="#000000">hours of a place or a certain</text>
<text text-anchor="start" x="805.5" y="-308.1" font-family="Roboto" font-size="8.00" fill="#000000">service inside a place.</text>
<polygon fill="#706f6f" stroke="#706f6f" points="801.5,-362.5 801.5,-362.5 921.5,-362.5 921.5,-362.5 801.5,-362.5"/>
</g>
<!-- http://schema.org/CivicStructure&#45;&gt;http://schema.org/OpeningHoursSpecification -->
<g id="edge10" class="edge">
<title>http://schema.org/CivicStructure&#45;&gt;http://schema.org/OpeningHoursSpecification</title>
<g id="a_edge10"><a xlink:href="http://schema.org/openingHoursSpecification" xlink:title="opening hours specification (s:)">
<path fill="none" stroke="#000000" d="M770.2154,-465.869C788.6513,-440.5495 808.1624,-413.7532 824.393,-391.4622"/>
<polygon fill="#000000" stroke="#000000" points="827.387,-393.2964 830.4439,-383.1521 821.7282,-389.176 827.387,-393.2964"/>
</a>
</g>
<g id="a_edge10&#45;label"><a xlink:href="http://schema.org/openingHoursSpecification" xlink:title="opening hours specification (s:)">
<text text-anchor="middle" x="845.3789" y="-441.475" font-family="Roboto" font-size="8.00" fill="#000000">opening hours specification (s:)</text>
</a>
</g>
</g>
<!-- http://schema.mobivoc.org/AccessCondition -->
<g id="node9" class="node">
<title>http://schema.mobivoc.org/AccessCondition</title>
<polygon fill="#ffd180" stroke="#706f6f" points="524.5,-375.5 410.5,-375.5 410.5,-305.5 524.5,-305.5 524.5,-375.5"/>
<g id="a_node9_17"><a xlink:href="http://schema.mobivoc.org/AccessCondition" xlink:title="&lt;TABLE&gt;">
<text text-anchor="start" x="436.8945" y="-361.1" font-family="Roboto" font-size="8.00" fill="#000000">Access condition</text>
</a>
</g>
<text text-anchor="start" x="422.0195" y="-346.1" font-family="Roboto" font-size="8.00" fill="#000000">A condition that has to be</text>
<text text-anchor="start" x="422.5" y="-331.1" font-family="Roboto" font-size="8.00" fill="#000000">fullfilled to get access</text>
<text text-anchor="start" x="422.5" y="-316.1" font-family="Roboto" font-size="8.00" fill="#000000">to a civic structure.</text>
<polygon fill="#706f6f" stroke="#706f6f" points="418.5,-355.5 418.5,-355.5 516.5,-355.5 516.5,-355.5 418.5,-355.5"/>
</g>
<!-- http://schema.org/CivicStructure&#45;&gt;http://schema.mobivoc.org/AccessCondition -->
<g id="edge9" class="edge">
<title>http://schema.org/CivicStructure&#45;&gt;http://schema.mobivoc.org/AccessCondition</title>
<g id="a_edge9"><a xlink:href="http://schema.mobivoc.org/access" xlink:title="access">
<path fill="none" stroke="#000000" d="M633.6522,-503.0568C611.0247,-486.3584 586.4757,-467.1026 565.2852,-447.875 543.4298,-428.0441 521.1181,-403.901 503.3361,-383.5343"/>
<polygon fill="#000000" stroke="#000000" points="505.9446,-381.2 496.7532,-375.9304 500.6523,-385.7817 505.9446,-381.2"/>
</a>
</g>
<g id="a_edge9&#45;label"><a xlink:href="http://schema.mobivoc.org/access" xlink:title="access">
<text text-anchor="middle" x="578.1074" y="-441.475" font-family="Roboto" font-size="8.00" fill="#000000">access</text>
</a>
</g>
</g>
<!-- http://schema.org/PaymentMethod -->
<g id="node11" class="node">
<title>http://schema.org/PaymentMethod</title>
<polygon fill="#e0f7fa" stroke="#706f6f" points="1105,-420.5 952,-420.5 952,-260.5 1105,-260.5 1105,-420.5"/>
<g id="a_node11_18"><a xlink:href="http://schema.org/PaymentMethod" xlink:title="&lt;TABLE&gt;">
<text text-anchor="start" x="991.8789" y="-406.1" font-family="Roboto" font-size="8.00" fill="#000000">Payment method (s:)</text>
</a>
</g>
<text text-anchor="start" x="964.084" y="-391.1" font-family="Roboto" font-size="8.00" fill="#000000">A payment method is a standardized</text>
<text text-anchor="start" x="964.5" y="-376.1" font-family="Roboto" font-size="8.00" fill="#000000">procedure for transferring</text>
<text text-anchor="start" x="964.5" y="-361.1" font-family="Roboto" font-size="8.00" fill="#000000">the monetary amount for a</text>
<text text-anchor="start" x="964.5" y="-346.1" font-family="Roboto" font-size="8.00" fill="#000000">purchase. Payment methods</text>
<text text-anchor="start" x="964.5" y="-331.1" font-family="Roboto" font-size="8.00" fill="#000000">are characterized by the</text>
<text text-anchor="start" x="964.5" y="-316.1" font-family="Roboto" font-size="8.00" fill="#000000">legal and technical structures</text>
<text text-anchor="start" x="964.5" y="-301.1" font-family="Roboto" font-size="8.00" fill="#000000">used, and by the organization</text>
<text text-anchor="start" x="964.5" y="-286.1" font-family="Roboto" font-size="8.00" fill="#000000">or group carrying out the</text>
<text text-anchor="start" x="964.5" y="-271.1" font-family="Roboto" font-size="8.00" fill="#000000">transaction.</text>
<polygon fill="#706f6f" stroke="#706f6f" points="960.5,-400.5 960.5,-400.5 1097.5,-400.5 1097.5,-400.5 960.5,-400.5"/>
</g>
<!-- http://schema.org/CivicStructure&#45;&gt;http://schema.org/PaymentMethod -->
<g id="edge11" class="edge">
<title>http://schema.org/CivicStructure&#45;&gt;http://schema.org/PaymentMethod</title>
<g id="a_edge11"><a xlink:href="http://schema.org/acceptedPaymentMethod" xlink:title="accepted payment method (s:)">
<path fill="none" stroke="#000000" d="M779.2149,-519.2506C818.0196,-500.0004 865.9899,-474.5109 906.5,-447.875 922.7102,-437.2166 925.7603,-433.114 940.5,-420.5 941.6765,-419.4931 942.8597,-418.4766 944.048,-417.4518"/>
<polygon fill="#000000" stroke="#000000" points="946.6989,-419.7851 951.9515,-410.584 942.1075,-414.5013 946.6989,-419.7851"/>
</a>
</g>
<g id="a_edge11&#45;label"><a xlink:href="http://schema.org/acceptedPaymentMethod" xlink:title="accepted payment method (s:)">
<text text-anchor="middle" x="973.7617" y="-441.475" font-family="Roboto" font-size="8.00" fill="#000000">accepted payment method (s:)</text>
</a>
</g>
</g>
<!-- http://schema.mobivoc.org/CivicStructureStatus -->
<g id="node12" class="node">
<title>http://schema.mobivoc.org/CivicStructureStatus</title>
<polygon fill="#ffd180" stroke="#706f6f" points="1250,-368 1127,-368 1127,-313 1250,-313 1250,-368"/>
<g id="a_node12_19"><a xlink:href="http://schema.mobivoc.org/CivicStructureStatus" xlink:title="&lt;TABLE&gt;">
<text text-anchor="start" x="1151.3555" y="-353.1" font-family="Roboto" font-size="8.00" fill="#000000">Civic structure status</text>
</a>
</g>
<text text-anchor="start" x="1139.0488" y="-338.1" font-family="Roboto" font-size="8.00" fill="#000000">Status information of a civic</text>
<text text-anchor="start" x="1139.5" y="-323.1" font-family="Roboto" font-size="8.00" fill="#000000">structure.</text>
<polygon fill="#706f6f" stroke="#706f6f" points="1135.5,-347.5 1135.5,-347.5 1242.5,-347.5 1242.5,-347.5 1135.5,-347.5"/>
</g>
<!-- http://schema.org/CivicStructure&#45;&gt;http://schema.mobivoc.org/CivicStructureStatus -->
<g id="edge6" class="edge">
<title>http://schema.org/CivicStructure&#45;&gt;http://schema.mobivoc.org/CivicStructureStatus</title>
<g id="a_edge6"><a xlink:href="http://schema.mobivoc.org/civicStructureStatus" xlink:title="civic structure status">
<path fill="none" stroke="#000000" d="M779.3003,-541.7876C865.4165,-525.4925 1010.4498,-489.7208 1116.5,-420.5 1134.3551,-408.8457 1150.598,-391.6862 1163.1184,-376.2449"/>
<polygon fill="#000000" stroke="#000000" points="1165.8848,-378.389 1169.3153,-368.3649 1160.3824,-374.0619 1165.8848,-378.389"/>
</a>
</g>
<g id="a_edge6&#45;label"><a xlink:href="http://schema.mobivoc.org/civicStructureStatus" xlink:title="civic structure status">
<text text-anchor="middle" x="1123.6348" y="-441.475" font-family="Roboto" font-size="8.00" fill="#000000">civic structure status</text>
</a>
</g>
</g>
<!-- http://purl.org/goodrelations/v1#BusinessEntity -->
<g id="node13" class="node">
<title>http://purl.org/goodrelations/v1#BusinessEntity</title>
<polygon fill="#cecece" stroke="#706f6f" points="518.7736,-36 332.2264,-36 332.2264,0 518.7736,0 518.7736,-36"/>
<text text-anchor="middle" x="425.5" y="-16.2875" font-family="Roboto" font-size="8.00" fill="#000000">http://purl.org/goodrelations/v1#BusinessEntity</text>
</g>
<!-- http://schema.org/CivicStructure&#45;&gt;http://purl.org/goodrelations/v1#BusinessEntity -->
<g id="edge7" class="edge">
<title>http://schema.org/CivicStructure&#45;&gt;http://purl.org/goodrelations/v1#BusinessEntity</title>
<g id="a_edge7"><a xlink:href="http://schema.mobivoc.org/operatedBy" xlink:title="operated by&#10;owned by">
<path fill="none" stroke="#000000" d="M650.1293,-465.5115C642.5654,-450.905 635.653,-435.5896 630.5,-420.5 582.6789,-280.4655 672.887,-209.4271 584.5,-90.75 566.7393,-66.9027 539.2923,-50.6538 512.1716,-39.68"/>
<polygon fill="#000000" stroke="#000000" points="513.199,-36.3255 502.6087,-36.0146 510.6936,-42.8618 513.199,-36.3255"/>
</a>
</g>
<g id="a_edge7&#45;label"><a xlink:href="http://schema.mobivoc.org/operatedBy" xlink:title="operated by&#10;owned by">
<text text-anchor="middle" x="646.3828" y="-236.1" font-family="Roboto" font-size="8.00" fill="#000000">operated by</text>
<text text-anchor="middle" x="646.3828" y="-226.725" font-family="Roboto" font-size="8.00" fill="#000000">owned by</text>
</a>
</g>
</g>
<!-- http://schema.org/PostalAddress -->
<g id="node10" class="node">
<title>http://schema.org/PostalAddress</title>
<polygon fill="#e0f7fa" stroke="#706f6f" points="755.5,-168.25 657.5,-168.25 657.5,-128.25 755.5,-128.25 755.5,-168.25"/>
<g id="a_node10_20"><a xlink:href="http://schema.org/PostalAddress" xlink:title="&lt;TABLE&gt;">
<text text-anchor="start" x="673.1875" y="-153.85" font-family="Roboto" font-size="8.00" fill="#000000">Postal address (s:)</text>
</a>
</g>
<text text-anchor="start" x="669.4648" y="-138.85" font-family="Roboto" font-size="8.00" fill="#000000">The mailing address.</text>
<polygon fill="#706f6f" stroke="#706f6f" points="665.5,-148.25 665.5,-148.25 747.5,-148.25 747.5,-148.25 665.5,-148.25"/>
</g>
<!-- http://schema.org/Place&#45;&gt;http://schema.org/PostalAddress -->
<g id="edge2" class="edge">
<title>http://schema.org/Place&#45;&gt;http://schema.org/PostalAddress</title>
<g id="a_edge2"><a xlink:href="http://schema.org/address" xlink:title="address (s:)">
<path fill="none" stroke="#000000" d="M706.5,-297.8335C706.5,-261.6567 706.5,-210.6675 706.5,-178.5476"/>
<polygon fill="#000000" stroke="#000000" points="710.0001,-178.4268 706.5,-168.4268 703.0001,-178.4269 710.0001,-178.4268"/>
</a>
</g>
<g id="a_edge2&#45;label"><a xlink:href="http://schema.org/address" xlink:title="address (s:)">
<text text-anchor="middle" x="727.5273" y="-231.4125" font-family="Roboto" font-size="8.00" fill="#000000">address (s:)</text>
</a>
</g>
</g>
<!-- http://schema.mobivoc.org/TimeSpecification -->
<g id="node5" class="node">
<title>http://schema.mobivoc.org/TimeSpecification</title>
<polygon fill="#ffd180" stroke="#706f6f" points="143,-205.75 0,-205.75 0,-90.75 143,-90.75 143,-205.75"/>
<g id="a_node5_21"><a xlink:href="http://schema.mobivoc.org/TimeSpecification" xlink:title="&lt;TABLE&gt;">
<text text-anchor="start" x="39.2871" y="-190.85" font-family="Roboto" font-size="8.00" fill="#000000">Time specification</text>
</a>
</g>
<g id="a_node5_22"><a xlink:href="http://schema.mobivoc.org/timeUnit" xlink:title="&lt;TABLE&gt;">
<text text-anchor="start" x="12.5" y="-175.85" font-family="Roboto" font-size="8.00" fill="#000000">time unit : string</text>
</a>
</g>
<g id="a_node5_23"><a xlink:href="http://schema.mobivoc.org/overnight" xlink:title="&lt;TABLE&gt;">
<text text-anchor="start" x="12.5" y="-160.85" font-family="Roboto" font-size="8.00" fill="#000000">overnight : boolean</text>
</a>
</g>
<g id="a_node5_24"><a xlink:href="http://schema.mobivoc.org/timeEndValue" xlink:title="&lt;TABLE&gt;">
<text text-anchor="start" x="12.5" y="-145.85" font-family="Roboto" font-size="8.00" fill="#000000">time end value : float</text>
</a>
</g>
<g id="a_node5_25"><a xlink:href="http://schema.mobivoc.org/timeStartValue" xlink:title="&lt;TABLE&gt;">
<text text-anchor="start" x="12.5" y="-130.85" font-family="Roboto" font-size="8.00" fill="#000000">time start value : float</text>
</a>
</g>
<text text-anchor="start" x="12.3301" y="-115.85" font-family="Roboto" font-size="8.00" fill="#000000">Specific time a price specification</text>
<text text-anchor="start" x="12.5" y="-100.85" font-family="Roboto" font-size="8.00" fill="#000000">is due for.</text>
<polygon fill="#706f6f" stroke="#706f6f" points="8.5,-185.25 8.5,-185.25 135.5,-185.25 135.5,-185.25 8.5,-185.25"/>
<polygon fill="#706f6f" stroke="#706f6f" points="8.5,-125.25 8.5,-125.25 135.5,-125.25 135.5,-125.25 8.5,-125.25"/>
</g>
<!-- http://schema.mobivoc.org/UserGroup -->
<g id="node6" class="node">
<title>http://schema.mobivoc.org/UserGroup</title>
<polygon fill="#ffd180" stroke="#706f6f" points="301.5,-175.75 187.5,-175.75 187.5,-120.75 301.5,-120.75 301.5,-175.75"/>
<g id="a_node6_26"><a xlink:href="http://schema.mobivoc.org/UserGroup" xlink:title="&lt;TABLE&gt;">
<text text-anchor="start" x="225.0918" y="-160.85" font-family="Roboto" font-size="8.00" fill="#000000">User group</text>
</a>
</g>
<text text-anchor="start" x="199.293" y="-145.85" font-family="Roboto" font-size="8.00" fill="#000000">A group of users having a</text>
<text text-anchor="start" x="199.5" y="-130.85" font-family="Roboto" font-size="8.00" fill="#000000">common characteristic.</text>
<polygon fill="#706f6f" stroke="#706f6f" points="195.5,-155.25 195.5,-155.25 293.5,-155.25 293.5,-155.25 195.5,-155.25"/>
</g>
<!-- http://schema.mobivoc.org/UserGroup&#45;&gt;http://purl.org/goodrelations/v1#BusinessEntity -->
<g id="edge8" class="edge">
<title>http://schema.mobivoc.org/UserGroup&#45;&gt;http://purl.org/goodrelations/v1#BusinessEntity</title>
<g id="a_edge8"><a xlink:href="http://schema.mobivoc.org/customerOf" xlink:title="customer of&#10;employee of">
<path fill="none" stroke="#000000" d="M275.6326,-120.4605C286.9766,-110.7305 300.0713,-99.9452 312.5,-90.75 336.2391,-73.1869 364.1247,-55.2083 386.2547,-41.5179"/>
<polygon fill="#000000" stroke="#000000" points="388.3597,-44.3324 395.0481,-36.1156 384.6955,-38.3681 388.3597,-44.3324"/>
</a>
</g>
<g id="a_edge8&#45;label"><a xlink:href="http://schema.mobivoc.org/customerOf" xlink:title="customer of&#10;employee of">
<text text-anchor="middle" x="386.3574" y="-66.35" font-family="Roboto" font-size="8.00" fill="#000000">customer of</text>
<text text-anchor="middle" x="386.3574" y="-56.975" font-family="Roboto" font-size="8.00" fill="#000000">employee of</text>
</a>
</g>
</g>
<!-- http://schema.org/PriceSpecification&#45;&gt;http://schema.org/Vehicle -->
<g id="edge14" class="edge">
<title>http://schema.org/PriceSpecification&#45;&gt;http://schema.org/Vehicle</title>
<g id="a_edge14"><a xlink:href="http://schema.mobivoc.org/validForVehicle" xlink:title="valid for vehicle">
<path fill="none" stroke="#000000" d="M198.9307,-290.2543C205.7878,-266.9075 217.4597,-240.6383 237.1523,-223.75 263.2878,-201.3363 281.2306,-220.1603 312.5,-205.75 318.5036,-202.9833 324.51,-199.7265 330.3793,-196.193"/>
<polygon fill="#000000" stroke="#000000" points="332.272,-199.1372 338.8639,-190.8428 328.5383,-193.2161 332.272,-199.1372"/>
</a>
</g>
<g id="a_edge14&#45;label"><a xlink:href="http://schema.mobivoc.org/validForVehicle" xlink:title="valid for vehicle">
<text text-anchor="middle" x="265.1738" y="-231.4125" font-family="Roboto" font-size="8.00" fill="#000000">valid for vehicle</text>
</a>
</g>
</g>
<!-- http://schema.org/PriceSpecification&#45;&gt;http://schema.mobivoc.org/TimeSpecification -->
<g id="edge3" class="edge">
<title>http://schema.org/PriceSpecification&#45;&gt;http://schema.mobivoc.org/TimeSpecification</title>
<g id="a_edge3"><a xlink:href="http://schema.mobivoc.org/dueForTime" xlink:title="due for time">
<path fill="none" stroke="#000000" d="M126.5206,-290.307C112.4206,-276.2316 98.8876,-259.9572 89.5273,-242.5 85.0869,-234.2184 81.728,-225.0106 79.1896,-215.6868"/>
<polygon fill="#000000" stroke="#000000" points="82.5895,-214.8553 76.8305,-205.9624 75.7869,-216.5057 82.5895,-214.8553"/>
</a>
</g>
<g id="a_edge3&#45;label"><a xlink:href="http://schema.mobivoc.org/dueForTime" xlink:title="due for time">
<text text-anchor="middle" x="111.9863" y="-231.4125" font-family="Roboto" font-size="8.00" fill="#000000">due for time</text>
</a>
</g>
</g>
<!-- http://schema.org/PriceSpecification&#45;&gt;http://schema.mobivoc.org/UserGroup -->
<g id="edge5" class="edge">
<title>http://schema.org/PriceSpecification&#45;&gt;http://schema.mobivoc.org/UserGroup</title>
<g id="a_edge5"><a xlink:href="http://schema.mobivoc.org/validForGroup" xlink:title="valid for user group">
<path fill="none" stroke="#000000" d="M149.7826,-290.2843C138.1555,-269.3678 131.1227,-245.0417 141.8906,-223.75 150.3966,-206.9309 164.61,-192.9431 179.7884,-181.7653"/>
<polygon fill="#000000" stroke="#000000" points="182.0842,-184.4316 188.29,-175.8445 178.0837,-178.6874 182.0842,-184.4316"/>
</a>
</g>
<g id="a_edge5&#45;label"><a xlink:href="http://schema.mobivoc.org/validForGroup" xlink:title="valid for user group">
<text text-anchor="middle" x="176.8047" y="-231.4125" font-family="Roboto" font-size="8.00" fill="#000000">valid for user group</text>
</a>
</g>
</g>
<!-- http://schema.mobivoc.org/AccessCondition&#45;&gt;http://schema.org/Vehicle -->
<g id="edge13" class="edge">
<title>http://schema.mobivoc.org/AccessCondition&#45;&gt;http://schema.org/Vehicle</title>
<g id="a_edge13"><a xlink:href="http://schema.mobivoc.org/restrictedToVehicleType" xlink:title="restricted to vehicle type">
<path fill="none" stroke="#000000" d="M451.962,-305.3092C443.8974,-286.7296 434.0274,-263.4888 425.75,-242.5 420.4561,-229.0765 415,-214.4656 410.0416,-200.8432"/>
<polygon fill="#000000" stroke="#000000" points="413.2211,-199.3433 406.5286,-191.1299 406.6384,-201.7241 413.2211,-199.3433"/>
</a>
</g>
<g id="a_edge13&#45;label"><a xlink:href="http://schema.mobivoc.org/restrictedToVehicleType" xlink:title="restricted to vehicle type">
<text text-anchor="middle" x="469.875" y="-231.4125" font-family="Roboto" font-size="8.00" fill="#000000">restricted to vehicle type</text>
</a>
</g>
</g>
<!-- http://schema.mobivoc.org/AccessCondition&#45;&gt;http://schema.mobivoc.org/Action -->
<g id="edge1" class="edge">
<title>http://schema.mobivoc.org/AccessCondition&#45;&gt;http://schema.mobivoc.org/Action</title>
<g id="a_edge1"><a xlink:href="http://schema.mobivoc.org/action" xlink:title="action">
<path fill="none" stroke="#000000" d="M489.5717,-305.0607C499.7688,-286.9963 511.0279,-264.2885 517.5,-242.5 523.678,-221.7018 526.1448,-197.3249 527.0844,-178.5733"/>
<polygon fill="#000000" stroke="#000000" points="530.5839,-178.6502 527.4705,-168.5232 523.5891,-178.3815 530.5839,-178.6502"/>
</a>
</g>
<g id="a_edge1&#45;label"><a xlink:href="http://schema.mobivoc.org/action" xlink:title="action">
<text text-anchor="middle" x="533.5352" y="-231.4125" font-family="Roboto" font-size="8.00" fill="#000000">action</text>
</a>
</g>
</g>
<!-- http://schema.mobivoc.org/AccessCondition&#45;&gt;http://schema.mobivoc.org/UserGroup -->
<g id="edge4" class="edge">
<title>http://schema.mobivoc.org/AccessCondition&#45;&gt;http://schema.mobivoc.org/UserGroup</title>
<g id="a_edge4"><a xlink:href="http://schema.mobivoc.org/restrictedToGroup" xlink:title="restricted to user group">
<path fill="none" stroke="#000000" d="M413.6733,-305.3823C387.9122,-287.6647 357.1822,-265.1605 331.5938,-242.5 311.1617,-224.4059 290.3413,-202.0473 274.1826,-183.6486"/>
<polygon fill="#000000" stroke="#000000" points="276.7606,-181.2793 267.5577,-176.0299 271.4784,-185.8726 276.7606,-181.2793"/>
</a>
</g>
<g id="a_edge4&#45;label"><a xlink:href="http://schema.mobivoc.org/restrictedToGroup" xlink:title="restricted to user group">
<text text-anchor="middle" x="373.9531" y="-231.4125" font-family="Roboto" font-size="8.00" fill="#000000">restricted to user group</text>
</a>
</g>
</g>
</g>
</svg>
