<?xml version="1.0" encoding="UTF-8" standalone="no"?>
<!DOCTYPE svg PUBLIC "-//W3C//DTD SVG 1.1//EN"
 "http://www.w3.org/Graphics/SVG/1.1/DTD/svg11.dtd">
<!-- Generated by graphviz version 2.36.0 (20140111.2315)
 -->
<!-- Title: g Pages: 1 -->
<svg width="11338pt" height="2542pt"
 viewBox="0.00 0.00 11337.50 2541.67" xmlns="http://www.w3.org/2000/svg" xmlns:xlink="http://www.w3.org/1999/xlink">
<g id="graph0" class="graph" transform="scale(4.16667 4.16667) rotate(0) translate(4 606)">
<title>g</title>
<polygon fill="white" stroke="none" points="-4,4 -4,-606 2717,-606 2717,4 -4,4"/>
<!-- http://schema.mobivoc.org/ParkingFacility -->
<g id="node1" class="node"><title>http://schema.mobivoc.org/ParkingFacility</title>
<path fill="#ffc984" stroke="#706f6f" d="M1283.63,-463.062C1283.63,-463.062 1470.37,-463.062 1470.37,-463.062 1476.37,-463.062 1482.37,-469.062 1482.37,-475.062 1482.37,-475.062 1482.37,-588.938 1482.37,-588.938 1482.37,-594.938 1476.37,-600.938 1470.37,-600.938 1470.37,-600.938 1283.63,-600.938 1283.63,-600.938 1277.63,-600.938 1271.63,-594.938 1271.63,-588.938 1271.63,-588.938 1271.63,-475.062 1271.63,-475.062 1271.63,-469.062 1277.63,-463.062 1283.63,-463.062"/>
<text text-anchor="middle" x="1377" y="-590.538" font-family="Roboto" font-size="8.00">parking facility</text>
<polyline fill="none" stroke="#706f6f" points="1271.63,-583.562 1482.37,-583.562 "/>
<text text-anchor="start" x="1279.63" y="-573.163" font-family="Roboto" font-size="8.00">Exit rate : string</text>
<text text-anchor="start" x="1279.63" y="-563.788" font-family="Roboto" font-size="8.00">Fill rate : string</text>
<text text-anchor="start" x="1279.63" y="-554.413" font-family="Roboto" font-size="8.00">Has height limit : string</text>
<text text-anchor="start" x="1279.63" y="-545.038" font-family="Roboto" font-size="8.00">Has width limit : string</text>
<text text-anchor="start" x="1279.63" y="-535.663" font-family="Roboto" font-size="8.00">Number of XXL parking spaces : string</text>
<text text-anchor="start" x="1279.63" y="-526.288" font-family="Roboto" font-size="8.00">Number of ladies&#39; parking spaces : string</text>
<text text-anchor="start" x="1279.63" y="-516.913" font-family="Roboto" font-size="8.00">Number of parking spaces for disabled persons : string</text>
<text text-anchor="start" x="1279.63" y="-507.538" font-family="Roboto" font-size="8.00">Queuing time : string</text>
<text text-anchor="start" x="1279.63" y="-498.163" font-family="Roboto" font-size="8.00">Total capacity : string</text>
<text text-anchor="start" x="1279.63" y="-488.788" font-family="Roboto" font-size="8.00">number of occupied parking spaces : string</text>
<text text-anchor="start" x="1279.63" y="-479.413" font-family="Roboto" font-size="8.00">number of vacant parking spaces : string</text>
<text text-anchor="start" x="1279.63" y="-470.038" font-family="Roboto" font-size="8.00">occupancy : string</text>
</g>
<!-- http://schema.mobivoc.org/ParkingFacilityConfiguration -->
<g id="node4" class="node"><title>http://schema.mobivoc.org/ParkingFacilityConfiguration</title>
<path fill="#ffc984" stroke="#706f6f" d="M1181.03,-366C1181.03,-366 1220.97,-366 1220.97,-366 1226.97,-366 1232.97,-372 1232.97,-378 1232.97,-378 1232.97,-390 1232.97,-390 1232.97,-396 1226.97,-402 1220.97,-402 1220.97,-402 1181.03,-402 1181.03,-402 1175.03,-402 1169.03,-396 1169.03,-390 1169.03,-390 1169.03,-378 1169.03,-378 1169.03,-372 1175.03,-366 1181.03,-366"/>
<text text-anchor="middle" x="1201" y="-391.6" font-family="Roboto" font-size="8.00">Configuration</text>
<polyline fill="none" stroke="#706f6f" points="1169.03,-384.625 1232.97,-384.625 "/>
<text text-anchor="middle" x="1201" y="-373.725" font-family="Roboto" font-size="8.00"> </text>
</g>
<!-- http://schema.mobivoc.org/ParkingFacility&#45;&gt;http://schema.mobivoc.org/ParkingFacilityConfiguration -->
<g id="edge17" class="edge"><title>http://schema.mobivoc.org/ParkingFacility&#45;&gt;http://schema.mobivoc.org/ParkingFacilityConfiguration</title>
<path fill="none" stroke="black" d="M1294.93,-462.916C1271.46,-443.446 1247.42,-423.509 1229.54,-408.676"/>
<polygon fill="black" stroke="black" points="1231.71,-405.931 1221.78,-402.24 1227.24,-411.318 1231.71,-405.931"/>
<text text-anchor="middle" x="1292.46" y="-437.288" font-family="Roboto" font-size="8.00">configuration</text>
</g>
<!-- http://schema.mobivoc.org/Vehicle -->
<g id="node16" class="node"><title>http://schema.mobivoc.org/Vehicle</title>
<path fill="#ffc984" stroke="#706f6f" d="M608.723,-357.25C608.723,-357.25 779.277,-357.25 779.277,-357.25 785.277,-357.25 791.277,-363.25 791.277,-369.25 791.277,-369.25 791.277,-398.75 791.277,-398.75 791.277,-404.75 785.277,-410.75 779.277,-410.75 779.277,-410.75 608.723,-410.75 608.723,-410.75 602.723,-410.75 596.723,-404.75 596.723,-398.75 596.723,-398.75 596.723,-369.25 596.723,-369.25 596.723,-363.25 602.723,-357.25 608.723,-357.25"/>
<text text-anchor="middle" x="694" y="-400.35" font-family="Roboto" font-size="8.00">vehicle</text>
<polyline fill="none" stroke="#706f6f" points="596.723,-393.375 791.277,-393.375 "/>
<text text-anchor="start" x="604.723" y="-382.975" font-family="Roboto" font-size="8.00">Height : http://schema.mobivoc.org/integer</text>
<text text-anchor="start" x="604.723" y="-373.6" font-family="Roboto" font-size="8.00">uses Battery : http://schema.mobivoc.org/boolean</text>
<text text-anchor="start" x="604.723" y="-364.225" font-family="Roboto" font-size="8.00">uses Fuel : http://schema.mobivoc.org/boolean</text>
</g>
<!-- http://schema.mobivoc.org/ParkingFacility&#45;&gt;http://schema.mobivoc.org/Vehicle -->
<g id="edge12" class="edge"><title>http://schema.mobivoc.org/ParkingFacility&#45;&gt;http://schema.mobivoc.org/Vehicle</title>
<path fill="none" stroke="black" d="M1271.41,-470.429C1263.95,-467.289 1256.44,-464.433 1249,-462 1098.56,-412.791 915.146,-395.029 801.45,-388.619"/>
<polygon fill="black" stroke="black" points="801.525,-385.118 791.349,-388.069 801.144,-392.108 801.525,-385.118"/>
<text text-anchor="middle" x="1188.39" y="-437.288" font-family="Roboto" font-size="8.00">vehicle</text>
</g>
<!-- http://schema.mobivoc.org/ParkingFacilityFeature -->
<g id="node17" class="node"><title>http://schema.mobivoc.org/ParkingFacilityFeature</title>
<path fill="#ffc984" stroke="#706f6f" d="M1262.6,-366C1262.6,-366 1337.4,-366 1337.4,-366 1343.4,-366 1349.4,-372 1349.4,-378 1349.4,-378 1349.4,-390 1349.4,-390 1349.4,-396 1343.4,-402 1337.4,-402 1337.4,-402 1262.6,-402 1262.6,-402 1256.6,-402 1250.6,-396 1250.6,-390 1250.6,-390 1250.6,-378 1250.6,-378 1250.6,-372 1256.6,-366 1262.6,-366"/>
<text text-anchor="middle" x="1300" y="-391.6" font-family="Roboto" font-size="8.00">Parking Facility Feature</text>
<polyline fill="none" stroke="#706f6f" points="1250.6,-384.625 1349.4,-384.625 "/>
<text text-anchor="middle" x="1300" y="-373.725" font-family="Roboto" font-size="8.00"> </text>
</g>
<!-- http://schema.mobivoc.org/ParkingFacility&#45;&gt;http://schema.mobivoc.org/ParkingFacilityFeature -->
<g id="edge16" class="edge"><title>http://schema.mobivoc.org/ParkingFacility&#45;&gt;http://schema.mobivoc.org/ParkingFacilityFeature</title>
<path fill="none" stroke="black" d="M1340.98,-462.702C1331.28,-444.317 1321.38,-425.532 1313.73,-411.038"/>
<polygon fill="black" stroke="black" points="1316.82,-409.393 1309.06,-402.181 1310.63,-412.659 1316.82,-409.393"/>
<text text-anchor="middle" x="1344.69" y="-437.288" font-family="Roboto" font-size="8.00">features</text>
</g>
<!-- http://schema.org/CivicStructure -->
<g id="node19" class="node"><title>http://schema.org/CivicStructure</title>
<path fill="#00c7ff" stroke="#706f6f" d="M966.146,-214.562C966.146,-214.562 1063.85,-214.562 1063.85,-214.562 1069.85,-214.562 1075.85,-220.562 1075.85,-226.562 1075.85,-226.562 1075.85,-265.438 1075.85,-265.438 1075.85,-271.438 1069.85,-277.438 1063.85,-277.438 1063.85,-277.438 966.146,-277.438 966.146,-277.438 960.146,-277.438 954.146,-271.438 954.146,-265.438 954.146,-265.438 954.146,-226.562 954.146,-226.562 954.146,-220.562 960.146,-214.562 966.146,-214.562"/>
<text text-anchor="middle" x="1015" y="-267.038" font-family="Roboto" font-size="8.00">schema:Civic structure</text>
<polyline fill="none" stroke="#706f6f" points="954.146,-260.062 1075.85,-260.062 "/>
<text text-anchor="start" x="962.146" y="-249.662" font-family="Roboto" font-size="8.00">Additional Information : string</text>
<text text-anchor="start" x="962.146" y="-240.287" font-family="Roboto" font-size="8.00">name : string</text>
<text text-anchor="start" x="962.146" y="-230.912" font-family="Roboto" font-size="8.00">opening hours : string</text>
<text text-anchor="start" x="962.146" y="-221.537" font-family="Roboto" font-size="8.00">picture : string</text>
</g>
<!-- http://schema.mobivoc.org/ParkingFacility&#45;&gt;http://schema.org/CivicStructure -->
<g id="edge23" class="edge"><title>http://schema.mobivoc.org/ParkingFacility&#45;&gt;http://schema.org/CivicStructure</title>
<path fill="none" stroke="black" d="M1388.08,-462.913C1390.12,-425.538 1385.3,-381.023 1358,-352 1273.7,-262.375 1196.66,-357.699 1085,-306 1073.28,-300.573 1061.94,-292.645 1051.93,-284.351"/>
<polygon fill="none" stroke="black" points="1054.06,-281.56 1044.2,-277.662 1049.48,-286.853 1054.06,-281.56"/>
</g>
<!-- http://schema.mobivoc.org/ParkingFacilityConnection -->
<g id="node20" class="node"><title>http://schema.mobivoc.org/ParkingFacilityConnection</title>
<path fill="#ffc984" stroke="#706f6f" d="M1544.67,-366C1544.67,-366 1637.33,-366 1637.33,-366 1643.33,-366 1649.33,-372 1649.33,-378 1649.33,-378 1649.33,-390 1649.33,-390 1649.33,-396 1643.33,-402 1637.33,-402 1637.33,-402 1544.67,-402 1544.67,-402 1538.67,-402 1532.67,-396 1532.67,-390 1532.67,-390 1532.67,-378 1532.67,-378 1532.67,-372 1538.67,-366 1544.67,-366"/>
<text text-anchor="middle" x="1591" y="-391.6" font-family="Roboto" font-size="8.00">Parking Facility Connections</text>
<polyline fill="none" stroke="#706f6f" points="1532.67,-384.625 1649.33,-384.625 "/>
<text text-anchor="middle" x="1591" y="-373.725" font-family="Roboto" font-size="8.00"> </text>
</g>
<!-- http://schema.mobivoc.org/ParkingFacility&#45;&gt;http://schema.mobivoc.org/ParkingFacilityConnection -->
<g id="edge7" class="edge"><title>http://schema.mobivoc.org/ParkingFacility&#45;&gt;http://schema.mobivoc.org/ParkingFacilityConnection</title>
<path fill="none" stroke="black" d="M1476.79,-462.916C1505.85,-443.096 1535.61,-422.79 1557.47,-407.879"/>
<polygon fill="black" stroke="black" points="1559.44,-410.767 1565.73,-402.24 1555.5,-404.984 1559.44,-410.767"/>
<text text-anchor="middle" x="1543.25" y="-437.288" font-family="Roboto" font-size="8.00">is connected to</text>
</g>
<!-- http://schema.mobivoc.org/ChargingPoint -->
<g id="node25" class="node"><title>http://schema.mobivoc.org/ChargingPoint</title>
<path fill="#ffc984" stroke="#706f6f" d="M1417.49,-352.562C1417.49,-352.562 1502.51,-352.562 1502.51,-352.562 1508.51,-352.562 1514.51,-358.562 1514.51,-364.562 1514.51,-364.562 1514.51,-403.438 1514.51,-403.438 1514.51,-409.438 1508.51,-415.438 1502.51,-415.438 1502.51,-415.438 1417.49,-415.438 1417.49,-415.438 1411.49,-415.438 1405.49,-409.438 1405.49,-403.438 1405.49,-403.438 1405.49,-364.562 1405.49,-364.562 1405.49,-358.562 1411.49,-352.562 1417.49,-352.562"/>
<text text-anchor="middle" x="1460" y="-405.038" font-family="Roboto" font-size="8.00">Charging Point</text>
<polyline fill="none" stroke="#706f6f" points="1405.49,-398.062 1514.51,-398.062 "/>
<text text-anchor="start" x="1413.49" y="-387.663" font-family="Roboto" font-size="8.00">Description : string</text>
<text text-anchor="start" x="1413.49" y="-378.288" font-family="Roboto" font-size="8.00">has parking facility : string</text>
<text text-anchor="start" x="1413.49" y="-368.913" font-family="Roboto" font-size="8.00">placeType : string</text>
<text text-anchor="start" x="1413.49" y="-359.538" font-family="Roboto" font-size="8.00">status : string</text>
</g>
<!-- http://schema.mobivoc.org/ParkingFacility&#45;&gt;http://schema.mobivoc.org/ChargingPoint -->
<g id="edge2" class="edge"><title>http://schema.mobivoc.org/ParkingFacility&#45;&gt;http://schema.mobivoc.org/ChargingPoint</title>
<path fill="none" stroke="black" d="M1415.83,-462.702C1423.29,-449.573 1430.87,-436.24 1437.59,-424.412"/>
<polygon fill="black" stroke="black" points="1440.65,-426.112 1442.55,-415.688 1434.57,-422.652 1440.65,-426.112"/>
<text text-anchor="middle" x="1463.89" y="-437.288" font-family="Roboto" font-size="8.00">has charging point</text>
</g>
<!-- http://schema.mobivoc.org/ParkingFacilityStatus -->
<g id="node30" class="node"><title>http://schema.mobivoc.org/ParkingFacilityStatus</title>
<path fill="#ffc984" stroke="#706f6f" d="M1678.91,-366C1678.91,-366 1747.09,-366 1747.09,-366 1753.09,-366 1759.09,-372 1759.09,-378 1759.09,-378 1759.09,-390 1759.09,-390 1759.09,-396 1753.09,-402 1747.09,-402 1747.09,-402 1678.91,-402 1678.91,-402 1672.91,-402 1666.91,-396 1666.91,-390 1666.91,-390 1666.91,-378 1666.91,-378 1666.91,-372 1672.91,-366 1678.91,-366"/>
<text text-anchor="middle" x="1713" y="-391.6" font-family="Roboto" font-size="8.00">parking facility status</text>
<polyline fill="none" stroke="#706f6f" points="1666.91,-384.625 1759.09,-384.625 "/>
<text text-anchor="middle" x="1713" y="-373.725" font-family="Roboto" font-size="8.00"> </text>
</g>
<!-- http://schema.mobivoc.org/ParkingFacility&#45;&gt;http://schema.mobivoc.org/ParkingFacilityStatus -->
<g id="edge13" class="edge"><title>http://schema.mobivoc.org/ParkingFacility&#45;&gt;http://schema.mobivoc.org/ParkingFacilityStatus</title>
<path fill="none" stroke="black" d="M1482.45,-491.453C1535.76,-470.553 1601.07,-443.562 1658,-416 1663.7,-413.242 1669.62,-410.151 1675.38,-407.017"/>
<polygon fill="black" stroke="black" points="1677.2,-410.012 1684.25,-402.099 1673.8,-403.891 1677.2,-410.012"/>
<text text-anchor="middle" x="1655.75" y="-437.288" font-family="Roboto" font-size="8.00">status of parking facility</text>
</g>
<!-- http://schema.mobivoc.org/BookingType -->
<g id="node2" class="node"><title>http://schema.mobivoc.org/BookingType</title>
<path fill="#ffc984" stroke="#706f6f" d="M2300.08,-89C2300.08,-89 2339.92,-89 2339.92,-89 2345.92,-89 2351.92,-95 2351.92,-101 2351.92,-101 2351.92,-113 2351.92,-113 2351.92,-119 2345.92,-125 2339.92,-125 2339.92,-125 2300.08,-125 2300.08,-125 2294.08,-125 2288.08,-119 2288.08,-113 2288.08,-113 2288.08,-101 2288.08,-101 2288.08,-95 2294.08,-89 2300.08,-89"/>
<text text-anchor="middle" x="2320" y="-114.6" font-family="Roboto" font-size="8.00">Booking Type</text>
<polyline fill="none" stroke="#706f6f" points="2288.08,-107.625 2351.92,-107.625 "/>
<text text-anchor="middle" x="2320" y="-96.725" font-family="Roboto" font-size="8.00"> </text>
</g>
<!-- http://schema.mobivoc.org/UnknownPlug -->
<g id="node3" class="node"><title>http://schema.mobivoc.org/UnknownPlug</title>
<path fill="#ffc984" stroke="#706f6f" d="M1605.54,-228C1605.54,-228 1648.46,-228 1648.46,-228 1654.46,-228 1660.46,-234 1660.46,-240 1660.46,-240 1660.46,-252 1660.46,-252 1660.46,-258 1654.46,-264 1648.46,-264 1648.46,-264 1605.54,-264 1605.54,-264 1599.54,-264 1593.54,-258 1593.54,-252 1593.54,-252 1593.54,-240 1593.54,-240 1593.54,-234 1599.54,-228 1605.54,-228"/>
<text text-anchor="middle" x="1627" y="-253.6" font-family="Roboto" font-size="8.00">Unknown Plug</text>
<polyline fill="none" stroke="#706f6f" points="1593.54,-246.625 1660.46,-246.625 "/>
<text text-anchor="middle" x="1627" y="-235.725" font-family="Roboto" font-size="8.00"> </text>
</g>
<!-- http://schema.mobivoc.org/PlugType -->
<g id="node11" class="node"><title>http://schema.mobivoc.org/PlugType</title>
<path fill="#ffc984" stroke="#706f6f" d="M1691,-89C1691,-89 1721,-89 1721,-89 1727,-89 1733,-95 1733,-101 1733,-101 1733,-113 1733,-113 1733,-119 1727,-125 1721,-125 1721,-125 1691,-125 1691,-125 1685,-125 1679,-119 1679,-113 1679,-113 1679,-101 1679,-101 1679,-95 1685,-89 1691,-89"/>
<text text-anchor="middle" x="1705.86" y="-114.6" font-family="Roboto" font-size="8.00">Plug Type</text>
<polyline fill="none" stroke="#706f6f" points="1679,-107.625 1732.71,-107.625 "/>
<text text-anchor="middle" x="1705.86" y="-96.725" font-family="Roboto" font-size="8.00"> </text>
</g>
<!-- http://schema.mobivoc.org/UnknownPlug&#45;&gt;http://schema.mobivoc.org/PlugType -->
<g id="edge33" class="edge"><title>http://schema.mobivoc.org/UnknownPlug&#45;&gt;http://schema.mobivoc.org/PlugType</title>
<path fill="none" stroke="black" d="M1636.85,-227.926C1650.45,-204.339 1675.1,-161.583 1691,-134.009"/>
<polygon fill="none" stroke="black" points="1694.07,-135.701 1696.03,-125.289 1688,-132.204 1694.07,-135.701"/>
</g>
<!-- http://schema.mobivoc.org/ChargingPointFees -->
<g id="node5" class="node"><title>http://schema.mobivoc.org/ChargingPointFees</title>
<path fill="#ffc984" stroke="#706f6f" d="M2309.67,-509.938C2309.67,-509.938 2404.33,-509.938 2404.33,-509.938 2410.33,-509.938 2416.33,-515.938 2416.33,-521.938 2416.33,-521.938 2416.33,-542.062 2416.33,-542.062 2416.33,-548.062 2410.33,-554.062 2404.33,-554.062 2404.33,-554.062 2309.67,-554.062 2309.67,-554.062 2303.67,-554.062 2297.67,-548.062 2297.67,-542.062 2297.67,-542.062 2297.67,-521.938 2297.67,-521.938 2297.67,-515.938 2303.67,-509.938 2309.67,-509.938"/>
<text text-anchor="middle" x="2357" y="-543.663" font-family="Roboto" font-size="8.00">Charging Point Fees</text>
<polyline fill="none" stroke="#706f6f" points="2297.67,-536.688 2416.33,-536.688 "/>
<text text-anchor="start" x="2305.67" y="-526.288" font-family="Roboto" font-size="8.00">Fees description : string</text>
<text text-anchor="start" x="2305.67" y="-516.913" font-family="Roboto" font-size="8.00">Is paid charging point : string</text>
</g>
<!-- http://schema.mobivoc.org/Payment -->
<g id="node32" class="node"><title>http://schema.mobivoc.org/Payment</title>
<path fill="#ffc984" stroke="#706f6f" d="M2406,-366C2406,-366 2436,-366 2436,-366 2442,-366 2448,-372 2448,-378 2448,-378 2448,-390 2448,-390 2448,-396 2442,-402 2436,-402 2436,-402 2406,-402 2406,-402 2400,-402 2394,-396 2394,-390 2394,-390 2394,-378 2394,-378 2394,-372 2400,-366 2406,-366"/>
<text text-anchor="middle" x="2420.68" y="-391.6" font-family="Roboto" font-size="8.00">Payment</text>
<polyline fill="none" stroke="#706f6f" points="2394,-384.625 2447.36,-384.625 "/>
<text text-anchor="middle" x="2420.68" y="-373.725" font-family="Roboto" font-size="8.00"> </text>
</g>
<!-- http://schema.mobivoc.org/ChargingPointFees&#45;&gt;http://schema.mobivoc.org/Payment -->
<g id="edge5" class="edge"><title>http://schema.mobivoc.org/ChargingPointFees&#45;&gt;http://schema.mobivoc.org/Payment</title>
<path fill="none" stroke="black" d="M2366.31,-509.77C2377.72,-483.736 2397.07,-439.602 2409.43,-411.404"/>
<polygon fill="black" stroke="black" points="2412.67,-412.714 2413.48,-402.15 2406.26,-409.904 2412.67,-412.714"/>
<text text-anchor="middle" x="2426.26" y="-437.288" font-family="Roboto" font-size="8.00">Payment forms</text>
</g>
<!-- http://schema.org/Place -->
<g id="node6" class="node"><title>http://schema.org/Place</title>
<path fill="#00c7ff" stroke="#706f6f" d="M989.346,-84.9375C989.346,-84.9375 1040.65,-84.9375 1040.65,-84.9375 1046.65,-84.9375 1052.65,-90.9375 1052.65,-96.9375 1052.65,-96.9375 1052.65,-117.062 1052.65,-117.062 1052.65,-123.062 1046.65,-129.062 1040.65,-129.062 1040.65,-129.062 989.346,-129.062 989.346,-129.062 983.346,-129.062 977.346,-123.062 977.346,-117.062 977.346,-117.062 977.346,-96.9375 977.346,-96.9375 977.346,-90.9375 983.346,-84.9375 989.346,-84.9375"/>
<text text-anchor="middle" x="1015" y="-118.662" font-family="Roboto" font-size="8.00">schema:Place</text>
<polyline fill="none" stroke="#706f6f" points="977.346,-111.688 1052.65,-111.688 "/>
<text text-anchor="start" x="985.346" y="-101.287" font-family="Roboto" font-size="8.00">latitude : string</text>
<text text-anchor="start" x="985.346" y="-91.9125" font-family="Roboto" font-size="8.00">longitude : string</text>
</g>
<!-- http://schema.org/PostalAddress -->
<g id="node10" class="node"><title>http://schema.org/PostalAddress</title>
<path fill="#00c7ff" stroke="#706f6f" d="M977.338,-1C977.338,-1 1052.66,-1 1052.66,-1 1058.66,-1 1064.66,-7 1064.66,-13 1064.66,-13 1064.66,-25 1064.66,-25 1064.66,-31 1058.66,-37 1052.66,-37 1052.66,-37 977.338,-37 977.338,-37 971.338,-37 965.338,-31 965.338,-25 965.338,-25 965.338,-13 965.338,-13 965.338,-7 971.338,-1 977.338,-1"/>
<text text-anchor="middle" x="1015" y="-26.6" font-family="Roboto" font-size="8.00">schema:Postal address</text>
<polyline fill="none" stroke="#706f6f" points="965.338,-19.625 1064.66,-19.625 "/>
<text text-anchor="middle" x="1015" y="-8.725" font-family="Roboto" font-size="8.00"> </text>
</g>
<!-- http://schema.org/Place&#45;&gt;http://schema.org/PostalAddress -->
<g id="edge4" class="edge"><title>http://schema.org/Place&#45;&gt;http://schema.org/PostalAddress</title>
<path fill="none" stroke="black" d="M1015,-84.7416C1015,-73.4311 1015,-59.3971 1015,-47.2898"/>
<polygon fill="black" stroke="black" points="1018.5,-47.2628 1015,-37.2628 1011.5,-47.2628 1018.5,-47.2628"/>
<text text-anchor="middle" x="1029.25" y="-59.2875" font-family="Roboto" font-size="8.00">address</text>
</g>
<!-- http://schema.mobivoc.org/Plug -->
<g id="node7" class="node"><title>http://schema.mobivoc.org/Plug</title>
<path fill="#ffc984" stroke="#706f6f" d="M1355.98,-186.438C1355.98,-186.438 1564.02,-186.438 1564.02,-186.438 1570.02,-186.438 1576.02,-192.438 1576.02,-198.438 1576.02,-198.438 1576.02,-293.562 1576.02,-293.562 1576.02,-299.562 1570.02,-305.562 1564.02,-305.562 1564.02,-305.562 1355.98,-305.562 1355.98,-305.562 1349.98,-305.562 1343.98,-299.562 1343.98,-293.562 1343.98,-293.562 1343.98,-198.438 1343.98,-198.438 1343.98,-192.438 1349.98,-186.438 1355.98,-186.438"/>
<text text-anchor="middle" x="1460" y="-295.163" font-family="Roboto" font-size="8.00">Plug</text>
<polyline fill="none" stroke="#706f6f" points="1343.98,-288.188 1576.02,-288.188 "/>
<text text-anchor="start" x="1351.98" y="-277.788" font-family="Roboto" font-size="8.00">Cable available : string</text>
<text text-anchor="start" x="1351.98" y="-268.413" font-family="Roboto" font-size="8.00">Charging Speed : http://schema.mobivoc.org/ChargingSpeed</text>
<text text-anchor="start" x="1351.98" y="-259.038" font-family="Roboto" font-size="8.00">CurrentType : string</text>
<text text-anchor="start" x="1351.98" y="-249.662" font-family="Roboto" font-size="8.00">Intensity : string</text>
<text text-anchor="start" x="1351.98" y="-240.287" font-family="Roboto" font-size="8.00">Locker available : string</text>
<text text-anchor="start" x="1351.98" y="-230.912" font-family="Roboto" font-size="8.00">Plug Condition : string</text>
<text text-anchor="start" x="1351.98" y="-221.537" font-family="Roboto" font-size="8.00">Plug Information : string</text>
<text text-anchor="start" x="1351.98" y="-212.162" font-family="Roboto" font-size="8.00">Power : string</text>
<text text-anchor="start" x="1351.98" y="-202.787" font-family="Roboto" font-size="8.00">Three&#45;phased current available : string</text>
<text text-anchor="start" x="1351.98" y="-193.412" font-family="Roboto" font-size="8.00">Voltage : string</text>
</g>
<!-- http://schema.mobivoc.org/Plug&#45;&gt;http://schema.mobivoc.org/PlugType -->
<g id="edge14" class="edge"><title>http://schema.mobivoc.org/Plug&#45;&gt;http://schema.mobivoc.org/PlugType</title>
<path fill="none" stroke="black" d="M1555.11,-186.359C1577.09,-173.348 1600.54,-159.899 1622.7,-148 1637.78,-139.909 1654.75,-131.618 1669.42,-124.697"/>
<polygon fill="black" stroke="black" points="1671.11,-127.77 1678.68,-120.363 1668.14,-121.43 1671.11,-127.77"/>
<text text-anchor="middle" x="1646.65" y="-156.287" font-family="Roboto" font-size="8.00">has plug type</text>
</g>
<!-- http://schema.mobivoc.org/IdentificationSystem -->
<g id="node8" class="node"><title>http://schema.mobivoc.org/IdentificationSystem</title>
<path fill="#ffc984" stroke="#706f6f" d="M2112.55,-89C2112.55,-89 2179.45,-89 2179.45,-89 2185.45,-89 2191.45,-95 2191.45,-101 2191.45,-101 2191.45,-113 2191.45,-113 2191.45,-119 2185.45,-125 2179.45,-125 2179.45,-125 2112.55,-125 2112.55,-125 2106.55,-125 2100.55,-119 2100.55,-113 2100.55,-113 2100.55,-101 2100.55,-101 2100.55,-95 2106.55,-89 2112.55,-89"/>
<text text-anchor="middle" x="2146" y="-114.6" font-family="Roboto" font-size="8.00">Identification System</text>
<polyline fill="none" stroke="#706f6f" points="2100.55,-107.625 2191.45,-107.625 "/>
<text text-anchor="middle" x="2146" y="-96.725" font-family="Roboto" font-size="8.00"> </text>
</g>
<!-- http://schema.mobivoc.org/Type1Plug -->
<g id="node9" class="node"><title>http://schema.mobivoc.org/Type1Plug</title>
<path fill="#ffc984" stroke="#706f6f" d="M1690.32,-228C1690.32,-228 1721.68,-228 1721.68,-228 1727.68,-228 1733.68,-234 1733.68,-240 1733.68,-240 1733.68,-252 1733.68,-252 1733.68,-258 1727.68,-264 1721.68,-264 1721.68,-264 1690.32,-264 1690.32,-264 1684.32,-264 1678.32,-258 1678.32,-252 1678.32,-252 1678.32,-240 1678.32,-240 1678.32,-234 1684.32,-228 1690.32,-228"/>
<text text-anchor="middle" x="1706" y="-253.6" font-family="Roboto" font-size="8.00">Type1 Plug</text>
<polyline fill="none" stroke="#706f6f" points="1678.32,-246.625 1733.68,-246.625 "/>
<text text-anchor="middle" x="1706" y="-235.725" font-family="Roboto" font-size="8.00"> </text>
</g>
<!-- http://schema.mobivoc.org/Type1Plug&#45;&gt;http://schema.mobivoc.org/PlugType -->
<g id="edge28" class="edge"><title>http://schema.mobivoc.org/Type1Plug&#45;&gt;http://schema.mobivoc.org/PlugType</title>
<path fill="none" stroke="black" d="M1706,-227.926C1706,-204.75 1706,-163.064 1706,-135.461"/>
<polygon fill="none" stroke="black" points="1709.5,-135.289 1706,-125.289 1702.5,-135.289 1709.5,-135.289"/>
</g>
<!-- http://schema.mobivoc.org/ChargingPointOwner -->
<g id="node12" class="node"><title>http://schema.mobivoc.org/ChargingPointOwner</title>
<path fill="#ffc984" stroke="#706f6f" d="M855.355,-228C855.355,-228 924.645,-228 924.645,-228 930.645,-228 936.645,-234 936.645,-240 936.645,-240 936.645,-252 936.645,-252 936.645,-258 930.645,-264 924.645,-264 924.645,-264 855.355,-264 855.355,-264 849.355,-264 843.355,-258 843.355,-252 843.355,-252 843.355,-240 843.355,-240 843.355,-234 849.355,-228 855.355,-228"/>
<text text-anchor="middle" x="890" y="-253.6" font-family="Roboto" font-size="8.00">Charging Point Owner</text>
<polyline fill="none" stroke="#706f6f" points="843.355,-246.625 936.645,-246.625 "/>
<text text-anchor="middle" x="890" y="-235.725" font-family="Roboto" font-size="8.00"> </text>
</g>
<!-- http://purl.org/goodrelations/v1#BusinessEntity -->
<g id="node28" class="node"><title>http://purl.org/goodrelations/v1#BusinessEntity</title>
<path fill="#93ffc3" stroke="#706f6f" d="M863.297,-89C863.297,-89 916.703,-89 916.703,-89 922.703,-89 928.703,-95 928.703,-101 928.703,-101 928.703,-113 928.703,-113 928.703,-119 922.703,-125 916.703,-125 916.703,-125 863.297,-125 863.297,-125 857.297,-125 851.297,-119 851.297,-113 851.297,-113 851.297,-101 851.297,-101 851.297,-95 857.297,-89 863.297,-89"/>
<text text-anchor="middle" x="890" y="-114.6" font-family="Roboto" font-size="8.00">gr:BusinessEntity</text>
<polyline fill="none" stroke="#706f6f" points="851.297,-107.625 928.703,-107.625 "/>
<text text-anchor="middle" x="890" y="-96.725" font-family="Roboto" font-size="8.00"> </text>
</g>
<!-- http://schema.mobivoc.org/ChargingPointOwner&#45;&gt;http://purl.org/goodrelations/v1#BusinessEntity -->
<g id="edge30" class="edge"><title>http://schema.mobivoc.org/ChargingPointOwner&#45;&gt;http://purl.org/goodrelations/v1#BusinessEntity</title>
<path fill="none" stroke="black" d="M890,-227.926C890,-204.75 890,-163.064 890,-135.461"/>
<polygon fill="none" stroke="black" points="893.5,-135.289 890,-125.289 886.5,-135.289 893.5,-135.289"/>
</g>
<!-- http://schema.mobivoc.org/Charger -->
<g id="node13" class="node"><title>http://schema.mobivoc.org/Charger</title>
<path fill="#ffc984" stroke="#706f6f" d="M2084.46,-219.25C2084.46,-219.25 2143.54,-219.25 2143.54,-219.25 2149.54,-219.25 2155.54,-225.25 2155.54,-231.25 2155.54,-231.25 2155.54,-260.75 2155.54,-260.75 2155.54,-266.75 2149.54,-272.75 2143.54,-272.75 2143.54,-272.75 2084.46,-272.75 2084.46,-272.75 2078.46,-272.75 2072.46,-266.75 2072.46,-260.75 2072.46,-260.75 2072.46,-231.25 2072.46,-231.25 2072.46,-225.25 2078.46,-219.25 2084.46,-219.25"/>
<text text-anchor="middle" x="2114" y="-262.35" font-family="Roboto" font-size="8.00">Charger</text>
<polyline fill="none" stroke="#706f6f" points="2072.46,-255.375 2155.54,-255.375 "/>
<text text-anchor="start" x="2080.46" y="-244.975" font-family="Roboto" font-size="8.00">Brand : string</text>
<text text-anchor="start" x="2080.46" y="-235.6" font-family="Roboto" font-size="8.00">Model : string</text>
<text text-anchor="start" x="2080.46" y="-226.225" font-family="Roboto" font-size="8.00">energy type : string</text>
</g>
<!-- http://schema.mobivoc.org/ParkingFees -->
<g id="node14" class="node"><title>http://schema.mobivoc.org/ParkingFees</title>
<path fill="#ffc984" stroke="#706f6f" d="M2445.92,-509.938C2445.92,-509.938 2524.08,-509.938 2524.08,-509.938 2530.08,-509.938 2536.08,-515.938 2536.08,-521.938 2536.08,-521.938 2536.08,-542.062 2536.08,-542.062 2536.08,-548.062 2530.08,-554.062 2524.08,-554.062 2524.08,-554.062 2445.92,-554.062 2445.92,-554.062 2439.92,-554.062 2433.92,-548.062 2433.92,-542.062 2433.92,-542.062 2433.92,-521.938 2433.92,-521.938 2433.92,-515.938 2439.92,-509.938 2445.92,-509.938"/>
<text text-anchor="middle" x="2485" y="-543.663" font-family="Roboto" font-size="8.00">Parking Fees</text>
<polyline fill="none" stroke="#706f6f" points="2433.92,-536.688 2536.08,-536.688 "/>
<text text-anchor="start" x="2441.92" y="-526.288" font-family="Roboto" font-size="8.00">Fees description : string</text>
<text text-anchor="start" x="2441.92" y="-516.913" font-family="Roboto" font-size="8.00">Has parking fees : string</text>
</g>
<!-- http://schema.mobivoc.org/ParkingFees&#45;&gt;http://schema.mobivoc.org/Payment -->
<g id="edge8" class="edge"><title>http://schema.mobivoc.org/ParkingFees&#45;&gt;http://schema.mobivoc.org/Payment</title>
<path fill="none" stroke="black" d="M2481.13,-509.778C2476.93,-489.58 2469.15,-458.691 2457,-434 2452.98,-425.831 2447.58,-417.604 2442.19,-410.286"/>
<polygon fill="black" stroke="black" points="2444.82,-407.964 2435.95,-402.171 2439.27,-412.231 2444.82,-407.964"/>
<text text-anchor="middle" x="2489.26" y="-437.288" font-family="Roboto" font-size="8.00">Payment forms</text>
</g>
<!-- http://schema.mobivoc.org/CHAdeMOPlug -->
<g id="node15" class="node"><title>http://schema.mobivoc.org/CHAdeMOPlug</title>
<path fill="#ffc984" stroke="#706f6f" d="M1764,-228C1764,-228 1794,-228 1794,-228 1800,-228 1806,-234 1806,-240 1806,-240 1806,-252 1806,-252 1806,-258 1800,-264 1794,-264 1794,-264 1764,-264 1764,-264 1758,-264 1752,-258 1752,-252 1752,-252 1752,-240 1752,-240 1752,-234 1758,-228 1764,-228"/>
<text text-anchor="middle" x="1778.72" y="-253.6" font-family="Roboto" font-size="8.00">CHAdeMO</text>
<polyline fill="none" stroke="#706f6f" points="1752,-246.625 1805.43,-246.625 "/>
<text text-anchor="middle" x="1778.72" y="-235.725" font-family="Roboto" font-size="8.00"> </text>
</g>
<!-- http://schema.mobivoc.org/CHAdeMOPlug&#45;&gt;http://schema.mobivoc.org/PlugType -->
<g id="edge20" class="edge"><title>http://schema.mobivoc.org/CHAdeMOPlug&#45;&gt;http://schema.mobivoc.org/PlugType</title>
<path fill="none" stroke="black" d="M1769.9,-227.926C1757.39,-204.442 1734.75,-161.954 1720.05,-134.369"/>
<polygon fill="none" stroke="black" points="1723,-132.469 1715.21,-125.289 1716.83,-135.761 1723,-132.469"/>
</g>
<!-- http://schema.mobivoc.org/EUDomesticPlug -->
<g id="node18" class="node"><title>http://schema.mobivoc.org/EUDomesticPlug</title>
<path fill="#ffc984" stroke="#706f6f" d="M1836.25,-228C1836.25,-228 1891.75,-228 1891.75,-228 1897.75,-228 1903.75,-234 1903.75,-240 1903.75,-240 1903.75,-252 1903.75,-252 1903.75,-258 1897.75,-264 1891.75,-264 1891.75,-264 1836.25,-264 1836.25,-264 1830.25,-264 1824.25,-258 1824.25,-252 1824.25,-252 1824.25,-240 1824.25,-240 1824.25,-234 1830.25,-228 1836.25,-228"/>
<text text-anchor="middle" x="1864" y="-253.6" font-family="Roboto" font-size="8.00">EU Domestic Plug</text>
<polyline fill="none" stroke="#706f6f" points="1824.25,-246.625 1903.75,-246.625 "/>
<text text-anchor="middle" x="1864" y="-235.725" font-family="Roboto" font-size="8.00"> </text>
</g>
<!-- http://schema.mobivoc.org/EUDomesticPlug&#45;&gt;http://schema.mobivoc.org/PlugType -->
<g id="edge35" class="edge"><title>http://schema.mobivoc.org/EUDomesticPlug&#45;&gt;http://schema.mobivoc.org/PlugType</title>
<path fill="none" stroke="black" d="M1851.74,-227.983C1842.4,-215.624 1828.84,-198.88 1815,-186 1792.44,-165.009 1764.06,-144.863 1741.91,-130.305"/>
<polygon fill="none" stroke="black" points="1743.74,-127.322 1733.44,-124.814 1739.93,-133.194 1743.74,-127.322"/>
</g>
<!-- http://schema.org/CivicStructure&#45;&gt;http://schema.org/Place -->
<g id="edge36" class="edge"><title>http://schema.org/CivicStructure&#45;&gt;http://schema.org/Place</title>
<path fill="none" stroke="black" d="M1015,-214.255C1015,-191.916 1015,-161.787 1015,-139.318"/>
<polygon fill="none" stroke="black" points="1018.5,-139.279 1015,-129.279 1011.5,-139.279 1018.5,-139.279"/>
</g>
<!-- http://schema.org/CivicStructure&#45;&gt;http://purl.org/goodrelations/v1#BusinessEntity -->
<g id="edge9" class="edge"><title>http://schema.org/CivicStructure&#45;&gt;http://purl.org/goodrelations/v1#BusinessEntity</title>
<path fill="none" stroke="black" d="M986.948,-214.255C964.54,-189.696 933.542,-155.722 912.683,-132.86"/>
<polygon fill="black" stroke="black" points="915.084,-130.299 905.758,-125.271 909.913,-135.017 915.084,-130.299"/>
<text text-anchor="middle" x="966.906" y="-160.975" font-family="Roboto" font-size="8.00">is operated by</text>
<text text-anchor="middle" x="966.906" y="-151.6" font-family="Roboto" font-size="8.00">is owned by</text>
</g>
<!-- http://schema.mobivoc.org/Type3Plug -->
<g id="node21" class="node"><title>http://schema.mobivoc.org/Type3Plug</title>
<path fill="#ffc984" stroke="#706f6f" d="M1933.32,-228C1933.32,-228 1964.68,-228 1964.68,-228 1970.68,-228 1976.68,-234 1976.68,-240 1976.68,-240 1976.68,-252 1976.68,-252 1976.68,-258 1970.68,-264 1964.68,-264 1964.68,-264 1933.32,-264 1933.32,-264 1927.32,-264 1921.32,-258 1921.32,-252 1921.32,-252 1921.32,-240 1921.32,-240 1921.32,-234 1927.32,-228 1933.32,-228"/>
<text text-anchor="middle" x="1949" y="-253.6" font-family="Roboto" font-size="8.00">Type3 Plug</text>
<polyline fill="none" stroke="#706f6f" points="1921.32,-246.625 1976.68,-246.625 "/>
<text text-anchor="middle" x="1949" y="-235.725" font-family="Roboto" font-size="8.00"> </text>
</g>
<!-- http://schema.mobivoc.org/Type3Plug&#45;&gt;http://schema.mobivoc.org/PlugType -->
<g id="edge37" class="edge"><title>http://schema.mobivoc.org/Type3Plug&#45;&gt;http://schema.mobivoc.org/PlugType</title>
<path fill="none" stroke="black" d="M1941.94,-227.878C1935.77,-214.803 1925.66,-197.186 1912,-186 1861.74,-144.832 1787.47,-123.954 1743.19,-114.566"/>
<polygon fill="none" stroke="black" points="1743.64,-111.086 1733.15,-112.525 1742.25,-117.946 1743.64,-111.086"/>
</g>
<!-- http://schema.mobivoc.org/ChargingSpeed -->
<g id="node22" class="node"><title>http://schema.mobivoc.org/ChargingSpeed</title>
<path fill="#ffc984" stroke="#706f6f" d="M2565.93,-514C2565.93,-514 2614.07,-514 2614.07,-514 2620.07,-514 2626.07,-520 2626.07,-526 2626.07,-526 2626.07,-538 2626.07,-538 2626.07,-544 2620.07,-550 2614.07,-550 2614.07,-550 2565.93,-550 2565.93,-550 2559.93,-550 2553.93,-544 2553.93,-538 2553.93,-538 2553.93,-526 2553.93,-526 2553.93,-520 2559.93,-514 2565.93,-514"/>
<text text-anchor="middle" x="2590" y="-539.6" font-family="Roboto" font-size="8.00">Charging Speed</text>
<polyline fill="none" stroke="#706f6f" points="2553.93,-532.625 2626.07,-532.625 "/>
<text text-anchor="middle" x="2590" y="-521.725" font-family="Roboto" font-size="8.00"> </text>
</g>
<!-- http://schema.mobivoc.org/ComboPlug -->
<g id="node23" class="node"><title>http://schema.mobivoc.org/ComboPlug</title>
<path fill="#ffc984" stroke="#706f6f" d="M2007.15,-228C2007.15,-228 2042.85,-228 2042.85,-228 2048.85,-228 2054.85,-234 2054.85,-240 2054.85,-240 2054.85,-252 2054.85,-252 2054.85,-258 2048.85,-264 2042.85,-264 2042.85,-264 2007.15,-264 2007.15,-264 2001.15,-264 1995.15,-258 1995.15,-252 1995.15,-252 1995.15,-240 1995.15,-240 1995.15,-234 2001.15,-228 2007.15,-228"/>
<text text-anchor="middle" x="2025" y="-253.6" font-family="Roboto" font-size="8.00">Combo Plug</text>
<polyline fill="none" stroke="#706f6f" points="1995.15,-246.625 2054.85,-246.625 "/>
<text text-anchor="middle" x="2025" y="-235.725" font-family="Roboto" font-size="8.00"> </text>
</g>
<!-- http://schema.mobivoc.org/ComboPlug&#45;&gt;http://schema.mobivoc.org/PlugType -->
<g id="edge31" class="edge"><title>http://schema.mobivoc.org/ComboPlug&#45;&gt;http://schema.mobivoc.org/PlugType</title>
<path fill="none" stroke="black" d="M2017.08,-227.839C2010.25,-214.743 1999.24,-197.116 1985,-186 1912.4,-129.344 1800.92,-113.831 1743.32,-109.59"/>
<polygon fill="none" stroke="black" points="1743.43,-106.089 1733.22,-108.922 1742.96,-113.074 1743.43,-106.089"/>
</g>
<!-- http://schema.mobivoc.org/AccessType -->
<g id="node24" class="node"><title>http://schema.mobivoc.org/AccessType</title>
<path fill="#ffc984" stroke="#706f6f" d="M2221.54,-89C2221.54,-89 2258.46,-89 2258.46,-89 2264.46,-89 2270.46,-95 2270.46,-101 2270.46,-101 2270.46,-113 2270.46,-113 2270.46,-119 2264.46,-125 2258.46,-125 2258.46,-125 2221.54,-125 2221.54,-125 2215.54,-125 2209.54,-119 2209.54,-113 2209.54,-113 2209.54,-101 2209.54,-101 2209.54,-95 2215.54,-89 2221.54,-89"/>
<text text-anchor="middle" x="2240" y="-114.6" font-family="Roboto" font-size="8.00">Access Type</text>
<polyline fill="none" stroke="#706f6f" points="2209.54,-107.625 2270.46,-107.625 "/>
<text text-anchor="middle" x="2240" y="-96.725" font-family="Roboto" font-size="8.00"> </text>
</g>
<!-- http://schema.mobivoc.org/ChargingPoint&#45;&gt;http://schema.mobivoc.org/Plug -->
<g id="edge6" class="edge"><title>http://schema.mobivoc.org/ChargingPoint&#45;&gt;http://schema.mobivoc.org/Plug</title>
<path fill="none" stroke="black" d="M1460,-352.479C1460,-341.541 1460,-328.722 1460,-315.862"/>
<polygon fill="black" stroke="black" points="1463.5,-315.574 1460,-305.574 1456.5,-315.574 1463.5,-315.574"/>
<text text-anchor="middle" x="1477.16" y="-327.288" font-family="Roboto" font-size="8.00">has plugs</text>
</g>
<!-- http://schema.mobivoc.org/ChargingPoint&#45;&gt;http://schema.mobivoc.org/Charger -->
<g id="edge3" class="edge"><title>http://schema.mobivoc.org/ChargingPoint&#45;&gt;http://schema.mobivoc.org/Charger</title>
<path fill="none" stroke="black" d="M1514.66,-354.953C1517.78,-353.848 1520.9,-352.85 1524,-352 1639.92,-320.155 1955.91,-360.611 2063,-306 2074.31,-300.234 2084.17,-290.778 2092.14,-281.109"/>
<polygon fill="black" stroke="black" points="2095.04,-283.072 2098.37,-273.013 2089.49,-278.803 2095.04,-283.072"/>
<text text-anchor="middle" x="2018.94" y="-327.288" font-family="Roboto" font-size="8.00">has charger</text>
</g>
<!-- http://schema.mobivoc.org/ChargingPoint&#45;&gt;http://schema.org/CivicStructure -->
<g id="edge29" class="edge"><title>http://schema.mobivoc.org/ChargingPoint&#45;&gt;http://schema.org/CivicStructure</title>
<path fill="none" stroke="black" d="M1432.65,-352.402C1420.99,-341.434 1406.5,-330.245 1391,-324 1264.64,-273.076 1211.54,-356.475 1085,-306 1072.53,-301.026 1060.67,-292.911 1050.37,-284.269"/>
<polygon fill="none" stroke="black" points="1052.63,-281.595 1042.82,-277.602 1048,-286.843 1052.63,-281.595"/>
</g>
<!-- http://schema.mobivoc.org/AccessInformation -->
<g id="node31" class="node"><title>http://schema.mobivoc.org/AccessInformation</title>
<path fill="#ffc984" stroke="#706f6f" d="M2185.74,-214.562C2185.74,-214.562 2294.26,-214.562 2294.26,-214.562 2300.26,-214.562 2306.26,-220.562 2306.26,-226.562 2306.26,-226.562 2306.26,-265.438 2306.26,-265.438 2306.26,-271.438 2300.26,-277.438 2294.26,-277.438 2294.26,-277.438 2185.74,-277.438 2185.74,-277.438 2179.74,-277.438 2173.74,-271.438 2173.74,-265.438 2173.74,-265.438 2173.74,-226.562 2173.74,-226.562 2173.74,-220.562 2179.74,-214.562 2185.74,-214.562"/>
<text text-anchor="middle" x="2240" y="-267.038" font-family="Roboto" font-size="8.00">Access Information</text>
<polyline fill="none" stroke="#706f6f" points="2173.74,-260.062 2306.26,-260.062 "/>
<text text-anchor="start" x="2181.74" y="-249.662" font-family="Roboto" font-size="8.00">Access Time : string</text>
<text text-anchor="start" x="2181.74" y="-240.287" font-family="Roboto" font-size="8.00">Covered Location : string</text>
<text text-anchor="start" x="2181.74" y="-230.912" font-family="Roboto" font-size="8.00">availableFromTime : string</text>
<text text-anchor="start" x="2181.74" y="-221.537" font-family="Roboto" font-size="8.00">number of parking places : string</text>
</g>
<!-- http://schema.mobivoc.org/ChargingPoint&#45;&gt;http://schema.mobivoc.org/AccessInformation -->
<g id="edge11" class="edge"><title>http://schema.mobivoc.org/ChargingPoint&#45;&gt;http://schema.mobivoc.org/AccessInformation</title>
<path fill="none" stroke="black" d="M1514.61,-354.764C1517.74,-353.707 1520.88,-352.772 1524,-352 1636.02,-324.247 1928.59,-349.079 2043,-334 2097.73,-326.788 2114.15,-329.699 2164,-306 2176.14,-300.228 2188.16,-292.254 2198.93,-284.032"/>
<polygon fill="black" stroke="black" points="2201.24,-286.675 2206.91,-277.729 2196.9,-281.183 2201.24,-286.675"/>
<text text-anchor="middle" x="2136.94" y="-327.288" font-family="Roboto" font-size="8.00">has charger</text>
</g>
<!-- http://schema.mobivoc.org/ParkingFacilityOwner -->
<g id="node26" class="node"><title>http://schema.mobivoc.org/ParkingFacilityOwner</title>
<path fill="#ffc984" stroke="#706f6f" d="M742.578,-228C742.578,-228 813.422,-228 813.422,-228 819.422,-228 825.422,-234 825.422,-240 825.422,-240 825.422,-252 825.422,-252 825.422,-258 819.422,-264 813.422,-264 813.422,-264 742.578,-264 742.578,-264 736.578,-264 730.578,-258 730.578,-252 730.578,-252 730.578,-240 730.578,-240 730.578,-234 736.578,-228 742.578,-228"/>
<text text-anchor="middle" x="778" y="-253.6" font-family="Roboto" font-size="8.00">Parking Facility Owner</text>
<polyline fill="none" stroke="#706f6f" points="730.578,-246.625 825.422,-246.625 "/>
<text text-anchor="middle" x="778" y="-235.725" font-family="Roboto" font-size="8.00"> </text>
</g>
<!-- http://schema.mobivoc.org/ParkingFacilityOwner&#45;&gt;http://purl.org/goodrelations/v1#BusinessEntity -->
<g id="edge27" class="edge"><title>http://schema.mobivoc.org/ParkingFacilityOwner&#45;&gt;http://purl.org/goodrelations/v1#BusinessEntity</title>
<path fill="none" stroke="black" d="M791.958,-227.926C811.409,-204.134 846.804,-160.838 869.323,-133.293"/>
<polygon fill="none" stroke="black" points="872.246,-135.247 875.866,-125.289 866.827,-130.816 872.246,-135.247"/>
</g>
<!-- http://schema.mobivoc.org/Type2Plug -->
<g id="node27" class="node"><title>http://schema.mobivoc.org/Type2Plug</title>
<path fill="#ffc984" stroke="#706f6f" d="M1106.32,-228C1106.32,-228 1137.68,-228 1137.68,-228 1143.68,-228 1149.68,-234 1149.68,-240 1149.68,-240 1149.68,-252 1149.68,-252 1149.68,-258 1143.68,-264 1137.68,-264 1137.68,-264 1106.32,-264 1106.32,-264 1100.32,-264 1094.32,-258 1094.32,-252 1094.32,-252 1094.32,-240 1094.32,-240 1094.32,-234 1100.32,-228 1106.32,-228"/>
<text text-anchor="middle" x="1122" y="-253.6" font-family="Roboto" font-size="8.00">Type2 Plug</text>
<polyline fill="none" stroke="#706f6f" points="1094.32,-246.625 1149.68,-246.625 "/>
<text text-anchor="middle" x="1122" y="-235.725" font-family="Roboto" font-size="8.00"> </text>
</g>
<!-- http://schema.mobivoc.org/Type2Plug&#45;&gt;http://schema.mobivoc.org/PlugType -->
<g id="edge32" class="edge"><title>http://schema.mobivoc.org/Type2Plug&#45;&gt;http://schema.mobivoc.org/PlugType</title>
<path fill="none" stroke="black" d="M1128.15,-227.951C1133.96,-214.371 1144.04,-196.03 1159,-186 1242.96,-129.726 1559.35,-113.245 1668.61,-109.175"/>
<polygon fill="none" stroke="black" points="1668.96,-112.666 1678.82,-108.809 1668.71,-105.67 1668.96,-112.666"/>
</g>
<!-- http://schema.mobivoc.org/ChargeColumn -->
<g id="node29" class="node"><title>http://schema.mobivoc.org/ChargeColumn</title>
<path fill="#ffc984" stroke="#706f6f" d="M2656.08,-514C2656.08,-514 2701.92,-514 2701.92,-514 2707.92,-514 2713.92,-520 2713.92,-526 2713.92,-526 2713.92,-538 2713.92,-538 2713.92,-544 2707.92,-550 2701.92,-550 2701.92,-550 2656.08,-550 2656.08,-550 2650.08,-550 2644.08,-544 2644.08,-538 2644.08,-538 2644.08,-526 2644.08,-526 2644.08,-520 2650.08,-514 2656.08,-514"/>
<text text-anchor="middle" x="2679" y="-539.6" font-family="Roboto" font-size="8.00">Charge column</text>
<polyline fill="none" stroke="#706f6f" points="2644.08,-532.625 2713.92,-532.625 "/>
<text text-anchor="middle" x="2679" y="-521.725" font-family="Roboto" font-size="8.00"> </text>
</g>
<!-- http://schema.mobivoc.org/AccessInformation&#45;&gt;http://schema.mobivoc.org/BookingType -->
<g id="edge15" class="edge"><title>http://schema.mobivoc.org/AccessInformation&#45;&gt;http://schema.mobivoc.org/BookingType</title>
<path fill="none" stroke="black" d="M2257.95,-214.255C2272.04,-190.125 2291.44,-156.906 2304.78,-134.068"/>
<polygon fill="black" stroke="black" points="2307.89,-135.671 2309.91,-125.271 2301.85,-132.141 2307.89,-135.671"/>
<text text-anchor="middle" x="2311.5" y="-156.287" font-family="Roboto" font-size="8.00">Booking</text>
</g>
<!-- http://schema.mobivoc.org/AccessInformation&#45;&gt;http://schema.mobivoc.org/IdentificationSystem -->
<g id="edge1" class="edge"><title>http://schema.mobivoc.org/AccessInformation&#45;&gt;http://schema.mobivoc.org/IdentificationSystem</title>
<path fill="none" stroke="black" d="M2218.9,-214.255C2202.27,-190.018 2179.35,-156.611 2163.68,-133.764"/>
<polygon fill="black" stroke="black" points="2166.39,-131.536 2157.85,-125.271 2160.62,-135.497 2166.39,-131.536"/>
<text text-anchor="middle" x="2208.08" y="-156.287" font-family="Roboto" font-size="8.00">identification</text>
</g>
<!-- http://schema.mobivoc.org/AccessInformation&#45;&gt;http://schema.mobivoc.org/AccessType -->
<g id="edge10" class="edge"><title>http://schema.mobivoc.org/AccessInformation&#45;&gt;http://schema.mobivoc.org/AccessType</title>
<path fill="none" stroke="black" d="M2240,-214.255C2240,-190.554 2240,-158.084 2240,-135.296"/>
<polygon fill="black" stroke="black" points="2243.5,-135.271 2240,-125.271 2236.5,-135.271 2243.5,-135.271"/>
<text text-anchor="middle" x="2252.61" y="-156.287" font-family="Roboto" font-size="8.00">access</text>
</g>
<!-- http://purl.org/goodrelations/v1#PaymentMethod -->
<g id="node39" class="node"><title>http://purl.org/goodrelations/v1#PaymentMethod</title>
<path fill="#ffc984" stroke="#706f6f" d="M2336.66,-228C2336.66,-228 2505.34,-228 2505.34,-228 2511.34,-228 2517.34,-234 2517.34,-240 2517.34,-240 2517.34,-252 2517.34,-252 2517.34,-258 2511.34,-264 2505.34,-264 2505.34,-264 2336.66,-264 2336.66,-264 2330.66,-264 2324.66,-258 2324.66,-252 2324.66,-252 2324.66,-240 2324.66,-240 2324.66,-234 2330.66,-228 2336.66,-228"/>
<text text-anchor="middle" x="2421" y="-244.287" font-family="Roboto" font-size="8.00">http://purl.org/goodrelations/v1#PaymentMethod</text>
</g>
<!-- http://schema.mobivoc.org/Payment&#45;&gt;http://purl.org/goodrelations/v1#PaymentMethod -->
<g id="edge26" class="edge"><title>http://schema.mobivoc.org/Payment&#45;&gt;http://purl.org/goodrelations/v1#PaymentMethod</title>
<path fill="none" stroke="black" d="M2421,-365.776C2421,-342.681 2421,-301.432 2421,-274.14"/>
<polygon fill="none" stroke="black" points="2424.5,-274.085 2421,-264.085 2417.5,-274.085 2424.5,-274.085"/>
</g>
<!-- http://schema.mobivoc.org/BatteryElectricVehicle -->
<g id="node33" class="node"><title>http://schema.mobivoc.org/BatteryElectricVehicle</title>
<path fill="#ffc984" stroke="#706f6f" d="M186.273,-514C186.273,-514 355.727,-514 355.727,-514 361.727,-514 367.727,-520 367.727,-526 367.727,-526 367.727,-538 367.727,-538 367.727,-544 361.727,-550 355.727,-550 355.727,-550 186.273,-550 186.273,-550 180.273,-550 174.273,-544 174.273,-538 174.273,-538 174.273,-526 174.273,-526 174.273,-520 180.273,-514 186.273,-514"/>
<text text-anchor="middle" x="271" y="-530.288" font-family="Roboto" font-size="8.00">http://schema.mobivoc.org/BatteryElectricVehicle</text>
</g>
<!-- http://schema.mobivoc.org/BatteryElectricVehicle&#45;&gt;http://schema.mobivoc.org/Vehicle -->
<g id="edge18" class="edge"><title>http://schema.mobivoc.org/BatteryElectricVehicle&#45;&gt;http://schema.mobivoc.org/Vehicle</title>
<path fill="none" stroke="black" d="M292.259,-513.841C312.623,-498.206 344.785,-475.547 376,-462 443.268,-432.805 523.558,-413.474 586.63,-401.483"/>
<polygon fill="none" stroke="black" points="587.413,-404.898 596.601,-399.621 586.128,-398.017 587.413,-404.898"/>
</g>
<!-- http://schema.mobivoc.org/Bicycle -->
<g id="node34" class="node"><title>http://schema.mobivoc.org/Bicycle</title>
<path fill="#ffc984" stroke="#706f6f" d="M397.465,-514C397.465,-514 514.535,-514 514.535,-514 520.535,-514 526.535,-520 526.535,-526 526.535,-526 526.535,-538 526.535,-538 526.535,-544 520.535,-550 514.535,-550 514.535,-550 397.465,-550 397.465,-550 391.465,-550 385.465,-544 385.465,-538 385.465,-538 385.465,-526 385.465,-526 385.465,-520 391.465,-514 397.465,-514"/>
<text text-anchor="middle" x="456" y="-530.288" font-family="Roboto" font-size="8.00">http://schema.mobivoc.org/Bicycle</text>
</g>
<!-- http://schema.mobivoc.org/Bicycle&#45;&gt;http://schema.mobivoc.org/Vehicle -->
<g id="edge19" class="edge"><title>http://schema.mobivoc.org/Bicycle&#45;&gt;http://schema.mobivoc.org/Vehicle</title>
<path fill="none" stroke="black" d="M473.05,-513.977C488.568,-499.07 512.567,-477.439 536,-462 562.899,-444.277 594.481,-428.077 622.31,-415.158"/>
<polygon fill="none" stroke="black" points="623.958,-418.252 631.591,-410.905 621.042,-411.889 623.958,-418.252"/>
</g>
<!-- http://schema.mobivoc.org/Caravan -->
<g id="node35" class="node"><title>http://schema.mobivoc.org/Caravan</title>
<path fill="#ffc984" stroke="#706f6f" d="M556.578,-514C556.578,-514 677.422,-514 677.422,-514 683.422,-514 689.422,-520 689.422,-526 689.422,-526 689.422,-538 689.422,-538 689.422,-544 683.422,-550 677.422,-550 677.422,-550 556.578,-550 556.578,-550 550.578,-550 544.578,-544 544.578,-538 544.578,-538 544.578,-526 544.578,-526 544.578,-520 550.578,-514 556.578,-514"/>
<text text-anchor="middle" x="617" y="-530.288" font-family="Roboto" font-size="8.00">http://schema.mobivoc.org/Caravan</text>
</g>
<!-- http://schema.mobivoc.org/Caravan&#45;&gt;http://schema.mobivoc.org/Vehicle -->
<g id="edge21" class="edge"><title>http://schema.mobivoc.org/Caravan&#45;&gt;http://schema.mobivoc.org/Vehicle</title>
<path fill="none" stroke="black" d="M625.984,-513.966C638.083,-491.024 659.903,-449.652 675.569,-419.948"/>
<polygon fill="none" stroke="black" points="678.85,-421.229 680.419,-410.751 672.658,-417.964 678.85,-421.229"/>
</g>
<!-- http://schema.mobivoc.org/SchukoPlug -->
<g id="node36" class="node"><title>http://schema.mobivoc.org/SchukoPlug</title>
<path fill="#ffc984" stroke="#706f6f" d="M1179.94,-228C1179.94,-228 1314.06,-228 1314.06,-228 1320.06,-228 1326.06,-234 1326.06,-240 1326.06,-240 1326.06,-252 1326.06,-252 1326.06,-258 1320.06,-264 1314.06,-264 1314.06,-264 1179.94,-264 1179.94,-264 1173.94,-264 1167.94,-258 1167.94,-252 1167.94,-252 1167.94,-240 1167.94,-240 1167.94,-234 1173.94,-228 1179.94,-228"/>
<text text-anchor="middle" x="1247" y="-244.287" font-family="Roboto" font-size="8.00">http://schema.mobivoc.org/SchukoPlug</text>
</g>
<!-- http://schema.mobivoc.org/SchukoPlug&#45;&gt;http://schema.mobivoc.org/PlugType -->
<g id="edge22" class="edge"><title>http://schema.mobivoc.org/SchukoPlug&#45;&gt;http://schema.mobivoc.org/PlugType</title>
<path fill="none" stroke="black" d="M1267.72,-227.732C1284.77,-214.398 1310.08,-196.503 1335,-186 1450.72,-137.223 1600.02,-117.827 1668.57,-111.11"/>
<polygon fill="none" stroke="black" points="1669.24,-114.563 1678.87,-110.138 1668.58,-107.594 1669.24,-114.563"/>
</g>
<!-- http://schema.mobivoc.org/Car -->
<g id="node37" class="node"><title>http://schema.mobivoc.org/Car</title>
<path fill="#ffc984" stroke="#706f6f" d="M718.938,-514C718.938,-514 823.062,-514 823.062,-514 829.062,-514 835.062,-520 835.062,-526 835.062,-526 835.062,-538 835.062,-538 835.062,-544 829.062,-550 823.062,-550 823.062,-550 718.938,-550 718.938,-550 712.938,-550 706.938,-544 706.938,-538 706.938,-538 706.938,-526 706.938,-526 706.938,-520 712.938,-514 718.938,-514"/>
<text text-anchor="middle" x="771" y="-530.288" font-family="Roboto" font-size="8.00">http://schema.mobivoc.org/Car</text>
</g>
<!-- http://schema.mobivoc.org/Car&#45;&gt;http://schema.mobivoc.org/Vehicle -->
<g id="edge24" class="edge"><title>http://schema.mobivoc.org/Car&#45;&gt;http://schema.mobivoc.org/Vehicle</title>
<path fill="none" stroke="black" d="M762.016,-513.966C749.917,-491.024 728.097,-449.652 712.431,-419.948"/>
<polygon fill="none" stroke="black" points="715.342,-417.964 707.581,-410.751 709.15,-421.229 715.342,-417.964"/>
</g>
<!-- http://schema.mobivoc.org/Motorcycle -->
<g id="node38" class="node"><title>http://schema.mobivoc.org/Motorcycle</title>
<path fill="#ffc984" stroke="#706f6f" d="M865.287,-514C865.287,-514 996.713,-514 996.713,-514 1002.71,-514 1008.71,-520 1008.71,-526 1008.71,-526 1008.71,-538 1008.71,-538 1008.71,-544 1002.71,-550 996.713,-550 996.713,-550 865.287,-550 865.287,-550 859.287,-550 853.287,-544 853.287,-538 853.287,-538 853.287,-526 853.287,-526 853.287,-520 859.287,-514 865.287,-514"/>
<text text-anchor="middle" x="931" y="-530.288" font-family="Roboto" font-size="8.00">http://schema.mobivoc.org/Motorcycle</text>
</g>
<!-- http://schema.mobivoc.org/Motorcycle&#45;&gt;http://schema.mobivoc.org/Vehicle -->
<g id="edge25" class="edge"><title>http://schema.mobivoc.org/Motorcycle&#45;&gt;http://schema.mobivoc.org/Vehicle</title>
<path fill="none" stroke="black" d="M911.787,-513.948C894.684,-499.221 868.632,-477.871 844,-462 817.476,-444.91 786.695,-428.56 759.944,-415.357"/>
<polygon fill="none" stroke="black" points="761.185,-412.068 750.664,-410.822 758.112,-418.357 761.185,-412.068"/>
</g>
<!-- http://schema.mobivoc.org/PlugInHybridElectricVehicle -->
<g id="node40" class="node"><title>http://schema.mobivoc.org/PlugInHybridElectricVehicle</title>
<path fill="#ffc984" stroke="#706f6f" d="M1039.15,-514C1039.15,-514 1228.85,-514 1228.85,-514 1234.85,-514 1240.85,-520 1240.85,-526 1240.85,-526 1240.85,-538 1240.85,-538 1240.85,-544 1234.85,-550 1228.85,-550 1228.85,-550 1039.15,-550 1039.15,-550 1033.15,-550 1027.15,-544 1027.15,-538 1027.15,-538 1027.15,-526 1027.15,-526 1027.15,-520 1033.15,-514 1039.15,-514"/>
<text text-anchor="middle" x="1134" y="-530.288" font-family="Roboto" font-size="8.00">http://schema.mobivoc.org/PlugInHybridElectricVehicle</text>
</g>
<!-- http://schema.mobivoc.org/PlugInHybridElectricVehicle&#45;&gt;http://schema.mobivoc.org/Vehicle -->
<g id="edge34" class="edge"><title>http://schema.mobivoc.org/PlugInHybridElectricVehicle&#45;&gt;http://schema.mobivoc.org/Vehicle</title>
<path fill="none" stroke="black" d="M1110.01,-513.94C1087.1,-498.374 1051.12,-475.762 1017,-462 947.604,-434.006 865.538,-414.604 801.494,-402.278"/>
<polygon fill="none" stroke="black" points="801.851,-398.783 791.374,-400.36 800.548,-405.661 801.851,-398.783"/>
</g>
<!-- http://schema.mobivoc.org/FuelVehicle -->
<g id="node41" class="node"><title>http://schema.mobivoc.org/FuelVehicle</title>
<path fill="#ffc984" stroke="#706f6f" d="M11.6719,-514C11.6719,-514 144.328,-514 144.328,-514 150.328,-514 156.328,-520 156.328,-526 156.328,-526 156.328,-538 156.328,-538 156.328,-544 150.328,-550 144.328,-550 144.328,-550 11.6719,-550 11.6719,-550 5.67188,-550 -0.328125,-544 -0.328125,-538 -0.328125,-538 -0.328125,-526 -0.328125,-526 -0.328125,-520 5.67188,-514 11.6719,-514"/>
<text text-anchor="middle" x="78" y="-530.288" font-family="Roboto" font-size="8.00">http://schema.mobivoc.org/FuelVehicle</text>
</g>
<!-- http://schema.mobivoc.org/FuelVehicle&#45;&gt;http://schema.mobivoc.org/Vehicle -->
<g id="edge38" class="edge"><title>http://schema.mobivoc.org/FuelVehicle&#45;&gt;http://schema.mobivoc.org/Vehicle</title>
<path fill="none" stroke="black" d="M94.1928,-513.714C110.45,-497.526 137.036,-474.072 165,-462 238.701,-430.183 454.359,-406.205 586.463,-394.001"/>
<polygon fill="none" stroke="black" points="586.975,-397.469 596.614,-393.071 586.336,-390.498 586.975,-397.469"/>
</g>
</g>
</svg>
