<?xml version="1.0" encoding="UTF-8" standalone="no"?>
<!DOCTYPE svg PUBLIC "-//W3C//DTD SVG 1.1//EN"
 "http://www.w3.org/Graphics/SVG/1.1/DTD/svg11.dtd">
<!-- Generated by graphviz version 2.40.1 (20161225.0304)
 -->
<!-- Title: http://schema.mobivoc.org/ Pages: 1 -->
<svg width="2663pt" height="1825pt"
 viewBox="0.00 0.00 1278.00 876.12" xmlns="http://www.w3.org/2000/svg" xmlns:xlink="http://www.w3.org/1999/xlink">
<g id="graph0" class="graph" transform="scale(2.0833 2.0833) rotate(0) translate(4 872.125)">
<title>http://schema.mobivoc.org/</title>
<polygon fill="#ffffff" stroke="transparent" points="-4,4 -4,-872.125 1274,-872.125 1274,4 -4,4"/>
<!-- http://schema.mobivoc.org/ParkingFacilityConnection -->
<g id="node1" class="node">
<title>http://schema.mobivoc.org/ParkingFacilityConnection</title>
<polygon fill="#ffd180" stroke="#706f6f" points="137,-383.25 0,-383.25 0,-313.25 137,-313.25 137,-383.25"/>
<g id="a_node1_0"><a xlink:href="http://schema.mobivoc.org/ParkingFacilityConnection" xlink:title="&lt;TABLE&gt;">
<text text-anchor="start" x="19.9395" y="-368.85" font-family="Roboto" font-size="8.00" fill="#000000">Parking facility connections</text>
</a>
</g>
<text text-anchor="start" x="12.2637" y="-353.85" font-family="Roboto" font-size="8.00" fill="#000000">Transport connections available</text>
<text text-anchor="start" x="12.5" y="-338.85" font-family="Roboto" font-size="8.00" fill="#000000">at the parking facility (e.g.</text>
<text text-anchor="start" x="12.5" y="-323.85" font-family="Roboto" font-size="8.00" fill="#000000">Park &amp; Ride).</text>
<polygon fill="#706f6f" stroke="#706f6f" points="8.5,-363.25 8.5,-363.25 129.5,-363.25 129.5,-363.25 8.5,-363.25"/>
</g>
<!-- http://schema.mobivoc.org/Capacity -->
<g id="node2" class="node">
<title>http://schema.mobivoc.org/Capacity</title>
<polygon fill="#ffd180" stroke="#706f6f" points="398.5,-200.375 274.5,-200.375 274.5,-130.375 398.5,-130.375 398.5,-200.375"/>
<g id="a_node2_1"><a xlink:href="http://schema.mobivoc.org/Capacity" xlink:title="&lt;TABLE&gt;">
<text text-anchor="start" x="321.0371" y="-185.975" font-family="Roboto" font-size="8.00" fill="#000000">Capacity</text>
</a>
</g>
<g id="a_node2_2"><a xlink:href="http://schema.mobivoc.org/maximumValue" xlink:title="&lt;TABLE&gt;">
<text text-anchor="start" x="286.5" y="-170.975" font-family="Roboto" font-size="8.00" fill="#000000">maximum value : integer</text>
</a>
</g>
<text text-anchor="start" x="286.2383" y="-155.975" font-family="Roboto" font-size="8.00" fill="#000000">Capacity of a parking facility</text>
<text text-anchor="start" x="286.5" y="-140.975" font-family="Roboto" font-size="8.00" fill="#000000">or a parking space.</text>
<polygon fill="#706f6f" stroke="#706f6f" points="282.5,-180.375 282.5,-180.375 390.5,-180.375 390.5,-180.375 282.5,-180.375"/>
<polygon fill="#706f6f" stroke="#706f6f" points="282.5,-165.375 282.5,-165.375 390.5,-165.375 390.5,-165.375 282.5,-165.375"/>
</g>
<!-- http://schema.mobivoc.org/ParkingUsageType -->
<g id="node6" class="node">
<title>http://schema.mobivoc.org/ParkingUsageType</title>
<polygon fill="#ffd180" stroke="#706f6f" points="331,-85 202,-85 202,0 331,0 331,-85"/>
<g id="a_node6_3"><a xlink:href="http://schema.mobivoc.org/ParkingUsageType" xlink:title="&lt;TABLE&gt;">
<text text-anchor="start" x="233.1699" y="-70.1" font-family="Roboto" font-size="8.00" fill="#000000">Parking usage type</text>
</a>
</g>
<text text-anchor="start" x="214.5" y="-55.1" font-family="Roboto" font-size="8.00" fill="#000000">A type of special purpose</text>
<text text-anchor="start" x="214.1953" y="-40.1" font-family="Roboto" font-size="8.00" fill="#000000">a parking space is designated</text>
<text text-anchor="start" x="214.5" y="-25.1" font-family="Roboto" font-size="8.00" fill="#000000">for, like women&#39;s parking</text>
<text text-anchor="start" x="214.5" y="-10.1" font-family="Roboto" font-size="8.00" fill="#000000">spaces.</text>
<polygon fill="#706f6f" stroke="#706f6f" points="210.5,-64.5 210.5,-64.5 323.5,-64.5 323.5,-64.5 210.5,-64.5"/>
</g>
<!-- http://schema.mobivoc.org/Capacity&#45;&gt;http://schema.mobivoc.org/ParkingUsageType -->
<g id="edge1" class="edge">
<title>http://schema.mobivoc.org/Capacity&#45;&gt;http://schema.mobivoc.org/ParkingUsageType</title>
<g id="a_edge1"><a xlink:href="http://schema.mobivoc.org/parkingUsageType" xlink:title="parking usage type">
<path fill="none" stroke="#000000" d="M316.4408,-130.164C310.0039,-118.8649 302.7371,-106.109 295.7801,-93.897"/>
<polygon fill="#000000" stroke="#000000" points="298.7765,-92.086 290.7854,-85.1295 292.6943,-95.551 298.7765,-92.086"/>
</a>
</g>
<g id="a_edge1&#45;label"><a xlink:href="http://schema.mobivoc.org/parkingUsageType" xlink:title="parking usage type">
<text text-anchor="middle" x="340.0723" y="-105.975" font-family="Roboto" font-size="8.00" fill="#000000">parking usage type</text>
</a>
</g>
</g>
<!-- http://schema.org/Vehicle -->
<g id="node17" class="node">
<title>http://schema.org/Vehicle</title>
<polygon fill="#cecece" stroke="#706f6f" points="462.0547,-60.5 352.9453,-60.5 352.9453,-24.5 462.0547,-24.5 462.0547,-60.5"/>
<text text-anchor="middle" x="407.5" y="-40.7875" font-family="Roboto" font-size="8.00" fill="#000000">http://schema.org/Vehicle</text>
</g>
<!-- http://schema.mobivoc.org/Capacity&#45;&gt;http://schema.org/Vehicle -->
<g id="edge8" class="edge">
<title>http://schema.mobivoc.org/Capacity&#45;&gt;http://schema.org/Vehicle</title>
<g id="a_edge8"><a xlink:href="http://schema.mobivoc.org/intendedForVehicle" xlink:title="intended for vehicle">
<path fill="none" stroke="#000000" d="M366.5961,-130.1293C370.8636,-124.3788 374.9878,-118.3453 378.5,-112.375 386.3013,-99.1138 393.0352,-83.3583 398.045,-70.1679"/>
<polygon fill="#000000" stroke="#000000" points="401.3729,-71.2585 401.5292,-60.6648 394.8007,-68.8488 401.3729,-71.2585"/>
</a>
</g>
<g id="a_edge8&#45;label"><a xlink:href="http://schema.mobivoc.org/intendedForVehicle" xlink:title="intended for vehicle">
<text text-anchor="middle" x="418.334" y="-105.975" font-family="Roboto" font-size="8.00" fill="#000000">intended for vehicle</text>
</a>
</g>
</g>
<!-- http://schema.mobivoc.org/ParkingFacilityEntrance -->
<g id="node3" class="node">
<title>http://schema.mobivoc.org/ParkingFacilityEntrance</title>
<polygon fill="#ffd180" stroke="#706f6f" points="936.5,-383.25 812.5,-383.25 812.5,-313.25 936.5,-313.25 936.5,-383.25"/>
<g id="a_node3_4"><a xlink:href="http://schema.mobivoc.org/ParkingFacilityEntrance" xlink:title="&lt;TABLE&gt;">
<text text-anchor="start" x="858.8418" y="-368.85" font-family="Roboto" font-size="8.00" fill="#000000">Entrance</text>
</a>
</g>
<text text-anchor="start" x="824.043" y="-353.85" font-family="Roboto" font-size="8.00" fill="#000000">Entrance of a parking facility</text>
<text text-anchor="start" x="824.5" y="-338.85" font-family="Roboto" font-size="8.00" fill="#000000">where vehicles can enter</text>
<text text-anchor="start" x="824.5" y="-323.85" font-family="Roboto" font-size="8.00" fill="#000000">the parking facility.</text>
<polygon fill="#706f6f" stroke="#706f6f" points="820.5,-363.25 820.5,-363.25 928.5,-363.25 928.5,-363.25 820.5,-363.25"/>
</g>
<!-- http://schema.org/CivicStructure -->
<g id="node18" class="node">
<title>http://schema.org/CivicStructure</title>
<polygon fill="#cecece" stroke="#706f6f" points="1003.8946,-183.375 871.1054,-183.375 871.1054,-147.375 1003.8946,-147.375 1003.8946,-183.375"/>
<text text-anchor="middle" x="937.5" y="-163.6625" font-family="Roboto" font-size="8.00" fill="#000000">http://schema.org/CivicStructure</text>
</g>
<!-- http://schema.mobivoc.org/ParkingFacilityEntrance&#45;&gt;http://schema.org/CivicStructure -->
<g id="edge21" class="edge">
<title>http://schema.mobivoc.org/ParkingFacilityEntrance&#45;&gt;http://schema.org/CivicStructure</title>
<path fill="none" stroke="#000000" d="M886.647,-312.9899C898.6493,-278.1499 916.7718,-225.5444 927.8307,-193.4429"/>
<polygon fill="none" stroke="#000000" points="931.2083,-194.3841 931.1563,-183.7893 924.59,-192.104 931.2083,-194.3841"/>
</g>
<!-- http://schema.mobivoc.org/ParkingFacilityFeature -->
<g id="node4" class="node">
<title>http://schema.mobivoc.org/ParkingFacilityFeature</title>
<polygon fill="#ffd180" stroke="#706f6f" points="1270,-383.25 1139,-383.25 1139,-313.25 1270,-313.25 1270,-383.25"/>
<g id="a_node4_5"><a xlink:href="http://schema.mobivoc.org/ParkingFacilityFeature" xlink:title="&lt;TABLE&gt;">
<text text-anchor="start" x="1165.1387" y="-368.85" font-family="Roboto" font-size="8.00" fill="#000000">Parking facility feature</text>
</a>
</g>
<text text-anchor="start" x="1151.2734" y="-353.85" font-family="Roboto" font-size="8.00" fill="#000000">Features of the parking facility</text>
<text text-anchor="start" x="1151.5" y="-338.85" font-family="Roboto" font-size="8.00" fill="#000000">(e.g. parking for disabled</text>
<text text-anchor="start" x="1151.5" y="-323.85" font-family="Roboto" font-size="8.00" fill="#000000">people).</text>
<polygon fill="#706f6f" stroke="#706f6f" points="1147.5,-363.25 1147.5,-363.25 1262.5,-363.25 1262.5,-363.25 1147.5,-363.25"/>
</g>
<!-- http://schema.mobivoc.org/ParkingLot -->
<g id="node5" class="node">
<title>http://schema.mobivoc.org/ParkingLot</title>
<polygon fill="#ffd180" stroke="#706f6f" points="469.5,-853.125 361.5,-853.125 361.5,-783.125 469.5,-783.125 469.5,-853.125"/>
<g id="a_node5_6"><a xlink:href="http://schema.mobivoc.org/ParkingLot" xlink:title="&lt;TABLE&gt;">
<text text-anchor="start" x="396.4707" y="-838.725" font-family="Roboto" font-size="8.00" fill="#000000">Parking lot</text>
</a>
</g>
<text text-anchor="start" x="373.0332" y="-823.725" font-family="Roboto" font-size="8.00" fill="#000000">Parking area on a single</text>
<text text-anchor="start" x="373.5" y="-808.725" font-family="Roboto" font-size="8.00" fill="#000000">groundfloor level that is</text>
<text text-anchor="start" x="373.0566" y="-793.725" font-family="Roboto" font-size="8.00" fill="#000000">usually located outdoor.</text>
<polygon fill="#706f6f" stroke="#706f6f" points="369.5,-833.125 369.5,-833.125 461.5,-833.125 461.5,-833.125 369.5,-833.125"/>
</g>
<!-- http://schema.mobivoc.org/ParkingFacility -->
<g id="node12" class="node">
<title>http://schema.mobivoc.org/ParkingFacility</title>
<polygon fill="#ffd180" stroke="#706f6f" points="840.5,-731.125 608.5,-731.125 608.5,-496.125 840.5,-496.125 840.5,-731.125"/>
<g id="a_node12_7"><a xlink:href="http://schema.mobivoc.org/ParkingFacility" xlink:title="&lt;TABLE&gt;">
<text text-anchor="start" x="698.2598" y="-716.225" font-family="Roboto" font-size="8.00" fill="#000000">Parking facility</text>
</a>
</g>
<g id="a_node12_8"><a xlink:href="http://schema.mobivoc.org/totalCapacity" xlink:title="&lt;TABLE&gt;">
<text text-anchor="start" x="620.5" y="-701.225" font-family="Roboto" font-size="8.00" fill="#000000">total capacity : integer</text>
</a>
</g>
<g id="a_node12_9"><a xlink:href="http://schema.mobivoc.org/exitRate" xlink:title="&lt;TABLE&gt;">
<text text-anchor="start" x="620.5" y="-686.225" font-family="Roboto" font-size="8.00" fill="#000000">exit rate : string</text>
</a>
</g>
<g id="a_node12_10"><a xlink:href="http://schema.mobivoc.org/numberOfMotorbikeParkingSpaces" xlink:title="&lt;TABLE&gt;">
<text text-anchor="start" x="620.5" y="-671.225" font-family="Roboto" font-size="8.00" fill="#000000">number of parking spaces for motorbikes : integer</text>
</a>
</g>
<g id="a_node12_11"><a xlink:href="http://schema.mobivoc.org/numberOfWomensParkingSpaces" xlink:title="&lt;TABLE&gt;">
<text text-anchor="start" x="620.5" y="-656.225" font-family="Roboto" font-size="8.00" fill="#000000">number of women&#39;s parking spaces : integer</text>
</a>
</g>
<g id="a_node12_12"><a xlink:href="http://schema.mobivoc.org/queuingTime" xlink:title="&lt;TABLE&gt;">
<text text-anchor="start" x="620.5" y="-641.225" font-family="Roboto" font-size="8.00" fill="#000000">queuing time : string</text>
</a>
</g>
<g id="a_node12_13"><a xlink:href="http://schema.mobivoc.org/numberOfParkingSpacesForDisabledPersons" xlink:title="&lt;TABLE&gt;">
<text text-anchor="start" x="620.5" y="-626.225" font-family="Roboto" font-size="8.00" fill="#000000">number of parking spaces for disabled persons : integer</text>
</a>
</g>
<g id="a_node12_14"><a xlink:href="http://schema.mobivoc.org/rateOfOccupancy" xlink:title="&lt;TABLE&gt;">
<text text-anchor="start" x="620.5" y="-611.225" font-family="Roboto" font-size="8.00" fill="#000000">rate of occupancy : string</text>
</a>
</g>
<g id="a_node12_15"><a xlink:href="http://schema.mobivoc.org/numberOfCarsharingParkingSpaces" xlink:title="&lt;TABLE&gt;">
<text text-anchor="start" x="620.5" y="-596.225" font-family="Roboto" font-size="8.00" fill="#000000">number of carsharing spaces : integer</text>
</a>
</g>
<g id="a_node12_16"><a xlink:href="http://schema.mobivoc.org/numberOfOccupiedParkingSpaces" xlink:title="&lt;TABLE&gt;">
<text text-anchor="start" x="620.5" y="-581.225" font-family="Roboto" font-size="8.00" fill="#000000">number of occupied parking spaces : integer</text>
</a>
</g>
<g id="a_node12_17"><a xlink:href="http://schema.mobivoc.org/numberOfVacantParkingSpaces" xlink:title="&lt;TABLE&gt;">
<text text-anchor="start" x="620.5" y="-566.225" font-family="Roboto" font-size="8.00" fill="#000000">number of vacant parking spaces : integer</text>
</a>
</g>
<g id="a_node12_18"><a xlink:href="http://schema.mobivoc.org/fillRate" xlink:title="&lt;TABLE&gt;">
<text text-anchor="start" x="620.5" y="-551.225" font-family="Roboto" font-size="8.00" fill="#000000">fill rate : string</text>
</a>
</g>
<g id="a_node12_19"><a xlink:href="http://schema.mobivoc.org/numberOfBicycleParkingSpaces" xlink:title="&lt;TABLE&gt;">
<text text-anchor="start" x="620.5" y="-536.225" font-family="Roboto" font-size="8.00" fill="#000000">number of parking spaces for bicycles : integer</text>
</a>
</g>
<text text-anchor="start" x="620.0078" y="-521.225" font-family="Roboto" font-size="8.00" fill="#000000">Any facility or area assigned for parking vehicles. A parking</text>
<text text-anchor="start" x="620.5" y="-506.225" font-family="Roboto" font-size="8.00" fill="#000000">facility can provide one or more parking spaces.</text>
<polygon fill="#706f6f" stroke="#706f6f" points="616.5,-710.625 616.5,-710.625 832.5,-710.625 832.5,-710.625 616.5,-710.625"/>
<polygon fill="#706f6f" stroke="#706f6f" points="616.5,-530.625 616.5,-530.625 832.5,-530.625 832.5,-530.625 616.5,-530.625"/>
</g>
<!-- http://schema.mobivoc.org/ParkingLot&#45;&gt;http://schema.mobivoc.org/ParkingFacility -->
<g id="edge22" class="edge">
<title>http://schema.mobivoc.org/ParkingLot&#45;&gt;http://schema.mobivoc.org/ParkingFacility</title>
<path fill="none" stroke="#000000" d="M460.2105,-782.8861C466.937,-777.8323 473.8488,-772.7745 480.5,-768.125 518.5136,-741.5518 560.9141,-714.0098 599.5678,-689.6688"/>
<polygon fill="none" stroke="#000000" points="601.6636,-692.4856 608.2701,-684.2028 597.9403,-686.5579 601.6636,-692.4856"/>
</g>
<!-- http://schema.mobivoc.org/AutomatedParkingGarage -->
<g id="node7" class="node">
<title>http://schema.mobivoc.org/AutomatedParkingGarage</title>
<polygon fill="#ffd180" stroke="#706f6f" points="637,-868.125 492,-868.125 492,-768.125 637,-768.125 637,-868.125"/>
<g id="a_node7_20"><a xlink:href="http://schema.mobivoc.org/AutomatedParkingGarage" xlink:title="&lt;TABLE&gt;">
<text text-anchor="start" x="517.8574" y="-853.725" font-family="Roboto" font-size="8.00" fill="#000000">Automated parking garage</text>
</a>
</g>
<text text-anchor="start" x="504.1621" y="-838.725" font-family="Roboto" font-size="8.00" fill="#000000">Parking garage with an automated</text>
<text text-anchor="start" x="504.5" y="-823.725" font-family="Roboto" font-size="8.00" fill="#000000">parking system that automatically</text>
<text text-anchor="start" x="504.5" y="-808.725" font-family="Roboto" font-size="8.00" fill="#000000">moves cars to the available</text>
<text text-anchor="start" x="504.5" y="-793.725" font-family="Roboto" font-size="8.00" fill="#000000">parking space somewhere in</text>
<text text-anchor="start" x="504.5" y="-778.725" font-family="Roboto" font-size="8.00" fill="#000000">the garage.</text>
<polygon fill="#706f6f" stroke="#706f6f" points="500.5,-848.125 500.5,-848.125 629.5,-848.125 629.5,-848.125 500.5,-848.125"/>
</g>
<!-- http://schema.mobivoc.org/AutomatedParkingGarage&#45;&gt;http://schema.mobivoc.org/ParkingFacility -->
<g id="edge20" class="edge">
<title>http://schema.mobivoc.org/AutomatedParkingGarage&#45;&gt;http://schema.mobivoc.org/ParkingFacility</title>
<path fill="none" stroke="#000000" d="M603.6404,-768.0987C610.6484,-759.1415 618.2283,-749.4535 626.0574,-739.447"/>
<polygon fill="none" stroke="#000000" points="628.9779,-741.3941 632.3834,-731.3615 623.4648,-737.0807 628.9779,-741.3941"/>
</g>
<!-- http://schema.mobivoc.org/ParkingSpace -->
<g id="node8" class="node">
<title>http://schema.mobivoc.org/ParkingSpace</title>
<polygon fill="#ffd180" stroke="#706f6f" points="680,-450.75 543,-450.75 543,-245.75 680,-245.75 680,-450.75"/>
<g id="a_node8_21"><a xlink:href="http://schema.mobivoc.org/ParkingSpace" xlink:title="&lt;TABLE&gt;">
<text text-anchor="start" x="586.834" y="-435.85" font-family="Roboto" font-size="8.00" fill="#000000">Parking space</text>
</a>
</g>
<text text-anchor="start" x="555.5" y="-420.85" font-family="Roboto" font-size="8.00" fill="#000000">A parking space is a location</text>
<text text-anchor="start" x="555.5" y="-405.85" font-family="Roboto" font-size="8.00" fill="#000000">that is designated for parking</text>
<text text-anchor="start" x="555.5" y="-390.85" font-family="Roboto" font-size="8.00" fill="#000000">a vehicle. A parking space</text>
<text text-anchor="start" x="555.252" y="-375.85" font-family="Roboto" font-size="8.00" fill="#000000">has a certain size, is sometimes</text>
<text text-anchor="start" x="555.5" y="-360.85" font-family="Roboto" font-size="8.00" fill="#000000">marked and can be located</text>
<text text-anchor="start" x="555.5" y="-345.85" font-family="Roboto" font-size="8.00" fill="#000000">at roadside or inside a parking</text>
<text text-anchor="start" x="555.5" y="-330.85" font-family="Roboto" font-size="8.00" fill="#000000">facility. Depending on the</text>
<text text-anchor="start" x="555.5" y="-315.85" font-family="Roboto" font-size="8.00" fill="#000000">location of the parking space,</text>
<text text-anchor="start" x="555.5" y="-300.85" font-family="Roboto" font-size="8.00" fill="#000000">there can be regulations</text>
<text text-anchor="start" x="555.5" y="-285.85" font-family="Roboto" font-size="8.00" fill="#000000">regarding the time allowed</text>
<text text-anchor="start" x="555.5" y="-270.85" font-family="Roboto" font-size="8.00" fill="#000000">to park and a fee paid to</text>
<text text-anchor="start" x="555.5" y="-255.85" font-family="Roboto" font-size="8.00" fill="#000000">use the parking space.</text>
<polygon fill="#706f6f" stroke="#706f6f" points="551.5,-430.25 551.5,-430.25 672.5,-430.25 672.5,-430.25 551.5,-430.25"/>
</g>
<!-- http://schema.mobivoc.org/ParkingSpace&#45;&gt;http://schema.mobivoc.org/Capacity -->
<g id="edge12" class="edge">
<title>http://schema.mobivoc.org/ParkingSpace&#45;&gt;http://schema.mobivoc.org/Capacity</title>
<g id="a_edge12"><a xlink:href="http://schema.mobivoc.org/capacity" xlink:title="has capacity">
<path fill="none" stroke="#000000" d="M542.7599,-277.0868C530.2528,-265.9021 516.9049,-254.9982 503.5,-245.75 473.9778,-225.3824 438.5026,-207.5132 407.8559,-193.8283"/>
<polygon fill="#000000" stroke="#000000" points="409.0747,-190.5408 398.5118,-189.7175 406.2558,-196.9481 409.0747,-190.5408"/>
</a>
</g>
<g id="a_edge12&#45;label"><a xlink:href="http://schema.mobivoc.org/capacity" xlink:title="has capacity">
<text text-anchor="middle" x="496.8848" y="-221.35" font-family="Roboto" font-size="8.00" fill="#000000">has capacity</text>
</a>
</g>
</g>
<!-- http://schema.mobivoc.org/ArrangementPattern -->
<g id="node13" class="node">
<title>http://schema.mobivoc.org/ArrangementPattern</title>
<polygon fill="#ffd180" stroke="#706f6f" points="558.5,-200.375 436.5,-200.375 436.5,-130.375 558.5,-130.375 558.5,-200.375"/>
<g id="a_node13_22"><a xlink:href="http://schema.mobivoc.org/ArrangementPattern" xlink:title="&lt;TABLE&gt;">
<text text-anchor="start" x="460.6738" y="-185.975" font-family="Roboto" font-size="8.00" fill="#000000">Arrangement pattern</text>
</a>
</g>
<text text-anchor="start" x="448.0879" y="-170.975" font-family="Roboto" font-size="8.00" fill="#000000">Pattern how parking spaces</text>
<text text-anchor="start" x="448.5" y="-155.975" font-family="Roboto" font-size="8.00" fill="#000000">are arranged in a parking</text>
<text text-anchor="start" x="448.5" y="-140.975" font-family="Roboto" font-size="8.00" fill="#000000">facility or at roadside.</text>
<polygon fill="#706f6f" stroke="#706f6f" points="444.5,-180.375 444.5,-180.375 550.5,-180.375 550.5,-180.375 444.5,-180.375"/>
</g>
<!-- http://schema.mobivoc.org/ParkingSpace&#45;&gt;http://schema.mobivoc.org/ArrangementPattern -->
<g id="edge7" class="edge">
<title>http://schema.mobivoc.org/ParkingSpace&#45;&gt;http://schema.mobivoc.org/ArrangementPattern</title>
<g id="a_edge7"><a xlink:href="http://schema.mobivoc.org/arrangement" xlink:title="arrangement pattern">
<path fill="none" stroke="#000000" d="M547.5021,-245.5866C539.5725,-232.8664 531.8265,-220.4404 524.8902,-209.3135"/>
<polygon fill="#000000" stroke="#000000" points="527.7733,-207.3223 519.5131,-200.6876 521.833,-211.0253 527.7733,-207.3223"/>
</a>
</g>
<g id="a_edge7&#45;label"><a xlink:href="http://schema.mobivoc.org/arrangement" xlink:title="arrangement pattern">
<text text-anchor="middle" x="570.8926" y="-221.35" font-family="Roboto" font-size="8.00" fill="#000000">arrangement pattern</text>
</a>
</g>
</g>
<!-- http://schema.mobivoc.org/ChargingPoint -->
<g id="node16" class="node">
<title>http://schema.mobivoc.org/ChargingPoint</title>
<polygon fill="#cecece" stroke="#706f6f" points="783.8167,-183.375 617.1833,-183.375 617.1833,-147.375 783.8167,-147.375 783.8167,-183.375"/>
<text text-anchor="middle" x="700.5" y="-163.6625" font-family="Roboto" font-size="8.00" fill="#000000">http://schema.mobivoc.org/ChargingPoint</text>
</g>
<!-- http://schema.mobivoc.org/ParkingSpace&#45;&gt;http://schema.mobivoc.org/ChargingPoint -->
<g id="edge4" class="edge">
<title>http://schema.mobivoc.org/ParkingSpace&#45;&gt;http://schema.mobivoc.org/ChargingPoint</title>
<g id="a_edge4"><a xlink:href="http://schema.mobivoc.org/chargingPoint" xlink:title="has charging point">
<path fill="none" stroke="#000000" d="M613.4835,-245.5902C616.1415,-236.0238 619.7917,-226.7789 624.7266,-218.375 631.5931,-206.6816 642.1778,-196.9347 653.2795,-189.1228"/>
<polygon fill="#000000" stroke="#000000" points="655.3727,-191.9357 661.8168,-183.5259 651.5348,-186.0815 655.3727,-191.9357"/>
</a>
</g>
<g id="a_edge4&#45;label"><a xlink:href="http://schema.mobivoc.org/chargingPoint" xlink:title="has charging point">
<text text-anchor="middle" x="658.3867" y="-221.35" font-family="Roboto" font-size="8.00" fill="#000000">has charging point</text>
</a>
</g>
</g>
<!-- http://schema.mobivoc.org/ParkingSpace&#45;&gt;http://schema.org/CivicStructure -->
<g id="edge18" class="edge">
<title>http://schema.mobivoc.org/ParkingSpace&#45;&gt;http://schema.org/CivicStructure</title>
<path fill="none" stroke="#000000" d="M680.2297,-259.2892C685.7771,-254.3787 691.5484,-249.8037 697.5,-245.75 724.5918,-227.2976 801.6206,-203.0541 861.1792,-186.0366"/>
<polygon fill="none" stroke="#000000" points="862.2871,-189.3605 870.9521,-183.264 860.3765,-182.6263 862.2871,-189.3605"/>
</g>
<!-- http://schema.mobivoc.org/ParkingFacilityExit -->
<g id="node9" class="node">
<title>http://schema.mobivoc.org/ParkingFacilityExit</title>
<polygon fill="#ffd180" stroke="#706f6f" points="1070,-383.25 959,-383.25 959,-313.25 1070,-313.25 1070,-383.25"/>
<g id="a_node9_23"><a xlink:href="http://schema.mobivoc.org/ParkingFacilityExit" xlink:title="&lt;TABLE&gt;">
<text text-anchor="start" x="1008.4668" y="-368.85" font-family="Roboto" font-size="8.00" fill="#000000">Exit</text>
</a>
</g>
<text text-anchor="start" x="971.5" y="-353.85" font-family="Roboto" font-size="8.00" fill="#000000">Exit of a parking facility</text>
<text text-anchor="start" x="971.0703" y="-338.85" font-family="Roboto" font-size="8.00" fill="#000000">where vehicles can leave</text>
<text text-anchor="start" x="971.5" y="-323.85" font-family="Roboto" font-size="8.00" fill="#000000">the parking facility.</text>
<polygon fill="#706f6f" stroke="#706f6f" points="967.5,-363.25 967.5,-363.25 1062.5,-363.25 1062.5,-363.25 967.5,-363.25"/>
</g>
<!-- http://schema.mobivoc.org/ParkingFacilityExit&#45;&gt;http://schema.org/CivicStructure -->
<g id="edge17" class="edge">
<title>http://schema.mobivoc.org/ParkingFacilityExit&#45;&gt;http://schema.org/CivicStructure</title>
<path fill="none" stroke="#000000" d="M999.6536,-312.9899C984.9207,-277.9991 962.6426,-225.0886 949.143,-193.0272"/>
<polygon fill="none" stroke="#000000" points="952.3598,-191.6475 945.2534,-183.7893 945.9083,-194.3639 952.3598,-191.6475"/>
</g>
<!-- http://schema.mobivoc.org/RealTimeCapacity -->
<g id="node10" class="node">
<title>http://schema.mobivoc.org/RealTimeCapacity</title>
<polygon fill="#ffd180" stroke="#706f6f" points="292,-390.75 159,-390.75 159,-305.75 292,-305.75 292,-390.75"/>
<g id="a_node10_24"><a xlink:href="http://schema.mobivoc.org/RealTimeCapacity" xlink:title="&lt;TABLE&gt;">
<text text-anchor="start" x="193.4355" y="-375.85" font-family="Roboto" font-size="8.00" fill="#000000">Real time capacity</text>
</a>
</g>
<g id="a_node10_25"><a xlink:href="http://purl.org/dc/terms/date" xlink:title="&lt;TABLE&gt;">
<text text-anchor="start" x="171.5" y="-360.85" font-family="Roboto" font-size="8.00" fill="#000000">date (dct:) : datetime</text>
</a>
</g>
<g id="a_node10_26"><a xlink:href="http://schema.mobivoc.org/currentValue" xlink:title="&lt;TABLE&gt;">
<text text-anchor="start" x="171.5" y="-345.85" font-family="Roboto" font-size="8.00" fill="#000000">current value : integer</text>
</a>
</g>
<text text-anchor="start" x="171.2832" y="-330.85" font-family="Roboto" font-size="8.00" fill="#000000">Real&#45;time capacity of a parking</text>
<text text-anchor="start" x="171.5" y="-315.85" font-family="Roboto" font-size="8.00" fill="#000000">facility or parking space.</text>
<polygon fill="#706f6f" stroke="#706f6f" points="167.5,-370.25 167.5,-370.25 284.5,-370.25 284.5,-370.25 167.5,-370.25"/>
<polygon fill="#706f6f" stroke="#706f6f" points="167.5,-340.25 167.5,-340.25 284.5,-340.25 284.5,-340.25 167.5,-340.25"/>
</g>
<!-- http://schema.mobivoc.org/RealTimeCapacity&#45;&gt;http://schema.mobivoc.org/Capacity -->
<g id="edge16" class="edge">
<title>http://schema.mobivoc.org/RealTimeCapacity&#45;&gt;http://schema.mobivoc.org/Capacity</title>
<path fill="none" stroke="#000000" d="M251.5246,-305.3739C269.0621,-276.4805 292.1312,-238.4736 309.807,-209.3523"/>
<polygon fill="none" stroke="#000000" points="312.9106,-210.9845 315.1073,-200.6199 306.9266,-207.3524 312.9106,-210.9845"/>
</g>
<!-- http://schema.mobivoc.org/BicycleParkingStation -->
<g id="node11" class="node">
<title>http://schema.mobivoc.org/BicycleParkingStation</title>
<polygon fill="#ffd180" stroke="#706f6f" points="789.5,-853.125 659.5,-853.125 659.5,-783.125 789.5,-783.125 789.5,-853.125"/>
<g id="a_node11_27"><a xlink:href="http://schema.mobivoc.org/BicycleParkingStation" xlink:title="&lt;TABLE&gt;">
<text text-anchor="start" x="684.3809" y="-838.725" font-family="Roboto" font-size="8.00" fill="#000000">Bicycle parking station</text>
</a>
</g>
<text text-anchor="start" x="671.377" y="-823.725" font-family="Roboto" font-size="8.00" fill="#000000">Building or structure designed</text>
<text text-anchor="start" x="671.5" y="-808.725" font-family="Roboto" font-size="8.00" fill="#000000">for use as a bicycle parking</text>
<text text-anchor="start" x="671.5" y="-793.725" font-family="Roboto" font-size="8.00" fill="#000000">facility.</text>
<polygon fill="#706f6f" stroke="#706f6f" points="667.5,-833.125 667.5,-833.125 781.5,-833.125 781.5,-833.125 667.5,-833.125"/>
</g>
<!-- http://schema.mobivoc.org/BicycleParkingStation&#45;&gt;http://schema.mobivoc.org/ParkingFacility -->
<g id="edge15" class="edge">
<title>http://schema.mobivoc.org/BicycleParkingStation&#45;&gt;http://schema.mobivoc.org/ParkingFacility</title>
<path fill="none" stroke="#000000" d="M724.5,-782.9702C724.5,-770.8857 724.5,-756.5626 724.5,-741.4424"/>
<polygon fill="none" stroke="#000000" points="728.0001,-741.4067 724.5,-731.4067 721.0001,-741.4067 728.0001,-741.4067"/>
</g>
<!-- http://schema.mobivoc.org/ParkingFacility&#45;&gt;http://schema.mobivoc.org/ParkingFacilityConnection -->
<g id="edge6" class="edge">
<title>http://schema.mobivoc.org/ParkingFacility&#45;&gt;http://schema.mobivoc.org/ParkingFacilityConnection</title>
<g id="a_edge6"><a xlink:href="http://schema.mobivoc.org/connectedTo" xlink:title="connected to">
<path fill="none" stroke="#000000" d="M608.4412,-602.5776C485.0338,-586.1453 288.5798,-546.1618 147.5,-450.75 125.3532,-435.7722 106.7257,-412.5709 93.1312,-392.0278"/>
<polygon fill="#000000" stroke="#000000" points="95.9579,-389.9517 87.6175,-383.4181 90.063,-393.7268 95.9579,-389.9517"/>
</a>
</g>
<g id="a_edge6&#45;label"><a xlink:href="http://schema.mobivoc.org/connectedTo" xlink:title="connected to">
<text text-anchor="middle" x="212.7227" y="-471.725" font-family="Roboto" font-size="8.00" fill="#000000">connected to</text>
</a>
</g>
</g>
<!-- http://schema.mobivoc.org/ParkingFacility&#45;&gt;http://schema.mobivoc.org/Capacity -->
<g id="edge9" class="edge">
<title>http://schema.mobivoc.org/ParkingFacility&#45;&gt;http://schema.mobivoc.org/Capacity</title>
<g id="a_edge9"><a xlink:href="http://schema.mobivoc.org/capacity" xlink:title="has capacity">
<path fill="none" stroke="#000000" d="M608.342,-589.8733C529.9954,-567.5597 431.1474,-525.9227 375.7305,-450.75 323.4129,-379.7814 324.5489,-271.2157 330.3271,-210.4958"/>
<polygon fill="#000000" stroke="#000000" points="333.8182,-210.7619 331.3671,-200.4545 326.8554,-210.0407 333.8182,-210.7619"/>
</a>
</g>
<g id="a_edge9&#45;label"><a xlink:href="http://schema.mobivoc.org/capacity" xlink:title="has capacity">
<text text-anchor="middle" x="398.8848" y="-346.5375" font-family="Roboto" font-size="8.00" fill="#000000">has capacity</text>
</a>
</g>
</g>
<!-- http://schema.mobivoc.org/ParkingFacility&#45;&gt;http://schema.mobivoc.org/ParkingFacilityEntrance -->
<g id="edge5" class="edge">
<title>http://schema.mobivoc.org/ParkingFacility&#45;&gt;http://schema.mobivoc.org/ParkingFacilityEntrance</title>
<g id="a_edge5"><a xlink:href="http://schema.mobivoc.org/entrance" xlink:title="entrance">
<path fill="none" stroke="#000000" d="M790.9472,-496.0688C811.807,-459.1643 833.561,-420.6779 849.641,-392.2298"/>
<polygon fill="#000000" stroke="#000000" points="852.7802,-393.7886 854.654,-383.3608 846.6863,-390.3441 852.7802,-393.7886"/>
</a>
</g>
<g id="a_edge5&#45;label"><a xlink:href="http://schema.mobivoc.org/entrance" xlink:title="entrance">
<text text-anchor="middle" x="820.0039" y="-471.725" font-family="Roboto" font-size="8.00" fill="#000000">entrance</text>
</a>
</g>
</g>
<!-- http://schema.mobivoc.org/ParkingFacility&#45;&gt;http://schema.mobivoc.org/ParkingFacilityFeature -->
<g id="edge3" class="edge">
<title>http://schema.mobivoc.org/ParkingFacility&#45;&gt;http://schema.mobivoc.org/ParkingFacilityFeature</title>
<g id="a_edge3"><a xlink:href="http://schema.mobivoc.org/feature" xlink:title="feature">
<path fill="none" stroke="#000000" d="M840.83,-595.2222C925.7061,-577.053 1039.7248,-542.3183 1121.5,-478.125 1150.0551,-455.7093 1171.6546,-420.5782 1185.6513,-392.5034"/>
<polygon fill="#000000" stroke="#000000" points="1188.9078,-393.8084 1190.1056,-383.2815 1182.6045,-390.7639 1188.9078,-393.8084"/>
</a>
</g>
<g id="a_edge3&#45;label"><a xlink:href="http://schema.mobivoc.org/feature" xlink:title="feature">
<text text-anchor="middle" x="1143.1309" y="-471.725" font-family="Roboto" font-size="8.00" fill="#000000">feature</text>
</a>
</g>
</g>
<!-- http://schema.mobivoc.org/ParkingFacility&#45;&gt;http://schema.mobivoc.org/ParkingSpace -->
<g id="edge11" class="edge">
<title>http://schema.mobivoc.org/ParkingFacility&#45;&gt;http://schema.mobivoc.org/ParkingSpace</title>
<g id="a_edge11"><a xlink:href="http://schema.mobivoc.org/parkingSpace" xlink:title="parking space">
<path fill="none" stroke="#000000" d="M665.3735,-495.7607C662.7128,-489.8253 660.1343,-483.9233 657.6836,-478.125 655.238,-472.3387 652.8083,-466.3736 650.417,-460.327"/>
<polygon fill="#000000" stroke="#000000" points="653.5859,-458.8194 646.6942,-450.7724 647.0636,-461.3608 653.5859,-458.8194"/>
</a>
</g>
<g id="a_edge11&#45;label"><a xlink:href="http://schema.mobivoc.org/parkingSpace" xlink:title="parking space">
<text text-anchor="middle" x="683.4082" y="-471.725" font-family="Roboto" font-size="8.00" fill="#000000">parking space</text>
</a>
</g>
</g>
<!-- http://schema.mobivoc.org/ParkingFacility&#45;&gt;http://schema.mobivoc.org/ParkingFacilityExit -->
<g id="edge2" class="edge">
<title>http://schema.mobivoc.org/ParkingFacility&#45;&gt;http://schema.mobivoc.org/ParkingFacilityExit</title>
<g id="a_edge2"><a xlink:href="http://schema.mobivoc.org/exit" xlink:title="exit">
<path fill="none" stroke="#000000" d="M840.6669,-540.788C877.1425,-514.8877 916.0584,-483.8667 947.5,-450.75 964.0539,-433.3142 979.0572,-411.2804 990.6494,-392.1135"/>
<polygon fill="#000000" stroke="#000000" points="993.8123,-393.641 995.8929,-383.2525 987.7881,-390.0761 993.8123,-393.641"/>
</a>
</g>
<g id="a_edge2&#45;label"><a xlink:href="http://schema.mobivoc.org/exit" xlink:title="exit">
<text text-anchor="middle" x="931.8789" y="-471.725" font-family="Roboto" font-size="8.00" fill="#000000">exit</text>
</a>
</g>
</g>
<!-- http://schema.mobivoc.org/ParkingFacility&#45;&gt;http://schema.mobivoc.org/ArrangementPattern -->
<g id="edge13" class="edge">
<title>http://schema.mobivoc.org/ParkingFacility&#45;&gt;http://schema.mobivoc.org/ArrangementPattern</title>
<g id="a_edge13"><a xlink:href="http://schema.mobivoc.org/arrangement" xlink:title="arrangement pattern">
<path fill="none" stroke="#000000" d="M608.441,-573.3049C552.7777,-547.4766 491.256,-507.8868 458.7148,-450.75 407.5983,-360.9979 421.5362,-315.9189 455.5,-218.375 456.5809,-215.2705 457.9279,-212.2111 459.4697,-209.2241"/>
<polygon fill="#000000" stroke="#000000" points="462.545,-210.8992 464.6086,-200.5072 456.5149,-207.3442 462.545,-210.8992"/>
</a>
</g>
<g id="a_edge13&#45;label"><a xlink:href="http://schema.mobivoc.org/arrangement" xlink:title="arrangement pattern">
<text text-anchor="middle" x="495.8926" y="-346.5375" font-family="Roboto" font-size="8.00" fill="#000000">arrangement pattern</text>
</a>
</g>
</g>
<!-- http://schema.mobivoc.org/ParkingFacility&#45;&gt;http://schema.mobivoc.org/ChargingPoint -->
<g id="edge10" class="edge">
<title>http://schema.mobivoc.org/ParkingFacility&#45;&gt;http://schema.mobivoc.org/ChargingPoint</title>
<g id="a_edge10"><a xlink:href="http://schema.mobivoc.org/chargingPoint" xlink:title="has charging point">
<path fill="none" stroke="#000000" d="M718.1943,-495.8526C712.7291,-393.7798 705.2127,-253.3941 702.0263,-193.8822"/>
<polygon fill="#000000" stroke="#000000" points="705.513,-193.5372 701.4832,-183.7387 698.523,-193.9115 705.513,-193.5372"/>
</a>
</g>
<g id="a_edge10&#45;label"><a xlink:href="http://schema.mobivoc.org/chargingPoint" xlink:title="has charging point">
<text text-anchor="middle" x="749.3867" y="-346.5375" font-family="Roboto" font-size="8.00" fill="#000000">has charging point</text>
</a>
</g>
</g>
<!-- http://schema.mobivoc.org/ParkingFacility&#45;&gt;http://schema.org/CivicStructure -->
<g id="edge23" class="edge">
<title>http://schema.mobivoc.org/ParkingFacility&#45;&gt;http://schema.org/CivicStructure</title>
<path fill="none" stroke="#000000" d="M840.5389,-594.4418C923.2284,-574.0565 1028.7241,-532.8371 1081.5,-450.75 1130.7727,-374.1117 1127.6269,-324.3219 1081.5,-245.75 1065.5472,-218.5762 1036.6958,-199.9117 1008.9851,-187.4625"/>
<polygon fill="none" stroke="#000000" points="1010.2226,-184.1852 999.6516,-183.4756 1007.4728,-190.6225 1010.2226,-184.1852"/>
</g>
<!-- http://schema.mobivoc.org/UndergroundParkingGarage -->
<g id="node14" class="node">
<title>http://schema.mobivoc.org/UndergroundParkingGarage</title>
<polygon fill="#ffd180" stroke="#706f6f" points="949.5,-853.125 811.5,-853.125 811.5,-783.125 949.5,-783.125 949.5,-853.125"/>
<g id="a_node14_28"><a xlink:href="http://schema.mobivoc.org/UndergroundParkingGarage" xlink:title="&lt;TABLE&gt;">
<text text-anchor="start" x="830.0625" y="-838.725" font-family="Roboto" font-size="8.00" fill="#000000">Underground parking garage</text>
</a>
</g>
<text text-anchor="start" x="823.5" y="-823.725" font-family="Roboto" font-size="8.00" fill="#000000">Parking facility with one</text>
<text text-anchor="start" x="823.5" y="-808.725" font-family="Roboto" font-size="8.00" fill="#000000">or more levels below the</text>
<text text-anchor="start" x="823.3945" y="-793.725" font-family="Roboto" font-size="8.00" fill="#000000">surface and none above ground.</text>
<polygon fill="#706f6f" stroke="#706f6f" points="819.5,-833.125 819.5,-833.125 941.5,-833.125 941.5,-833.125 819.5,-833.125"/>
</g>
<!-- http://schema.mobivoc.org/UndergroundParkingGarage&#45;&gt;http://schema.mobivoc.org/ParkingFacility -->
<g id="edge14" class="edge">
<title>http://schema.mobivoc.org/UndergroundParkingGarage&#45;&gt;http://schema.mobivoc.org/ParkingFacility</title>
<path fill="none" stroke="#000000" d="M853.6826,-782.9702C844.113,-770.4253 832.703,-755.468 820.6829,-739.711"/>
<polygon fill="none" stroke="#000000" points="823.1961,-737.2347 814.3481,-731.4067 817.6305,-741.4803 823.1961,-737.2347"/>
</g>
<!-- http://schema.mobivoc.org/ParkingGarage -->
<g id="node15" class="node">
<title>http://schema.mobivoc.org/ParkingGarage</title>
<polygon fill="#ffd180" stroke="#706f6f" points="1087,-853.125 972,-853.125 972,-783.125 1087,-783.125 1087,-853.125"/>
<g id="a_node15_29"><a xlink:href="http://schema.mobivoc.org/ParkingGarage" xlink:title="&lt;TABLE&gt;">
<text text-anchor="start" x="1003.2949" y="-838.725" font-family="Roboto" font-size="8.00" fill="#000000">Parking garage</text>
</a>
</g>
<text text-anchor="start" x="984.1289" y="-823.725" font-family="Roboto" font-size="8.00" fill="#000000">A single level or multilevel</text>
<text text-anchor="start" x="984.5" y="-808.725" font-family="Roboto" font-size="8.00" fill="#000000">parking building to park</text>
<text text-anchor="start" x="984.5" y="-793.725" font-family="Roboto" font-size="8.00" fill="#000000">at.</text>
<polygon fill="#706f6f" stroke="#706f6f" points="980.5,-833.125 980.5,-833.125 1079.5,-833.125 1079.5,-833.125 980.5,-833.125"/>
</g>
<!-- http://schema.mobivoc.org/ParkingGarage&#45;&gt;http://schema.mobivoc.org/ParkingFacility -->
<g id="edge19" class="edge">
<title>http://schema.mobivoc.org/ParkingGarage&#45;&gt;http://schema.mobivoc.org/ParkingFacility</title>
<path fill="none" stroke="#000000" d="M981.4517,-782.8632C974.4607,-777.8624 967.3217,-772.8257 960.5,-768.125 924.7547,-743.4937 885.468,-717.396 849.3781,-693.8005"/>
<polygon fill="none" stroke="#000000" points="851.0502,-690.7123 840.7634,-688.176 847.2233,-696.5736 851.0502,-690.7123"/>
</g>
</g>
</svg>
