<?xml version="1.0" encoding="UTF-8" standalone="no"?>
<!DOCTYPE svg PUBLIC "-//W3C//DTD SVG 1.1//EN"
 "http://www.w3.org/Graphics/SVG/1.1/DTD/svg11.dtd">
<!-- Generated by graphviz version 2.40.1 (20161225.0304)
 -->
<!-- Title: http://schema.mobivoc.org/ Pages: 1 -->
<svg width="2678pt" height="1825pt"
 viewBox="0.00 0.00 1285.50 876.12" xmlns="http://www.w3.org/2000/svg" xmlns:xlink="http://www.w3.org/1999/xlink">
<g id="graph0" class="graph" transform="scale(2.0833 2.0833) rotate(0) translate(4 872.125)">
<title>http://schema.mobivoc.org/</title>
<polygon fill="#ffffff" stroke="transparent" points="-4,4 -4,-872.125 1281.5,-872.125 1281.5,4 -4,4"/>
<!-- http://schema.mobivoc.org/ParkingFacility -->
<g id="node1" class="node">
<title>http://schema.mobivoc.org/ParkingFacility</title>
<polygon fill="#ffd180" stroke="#706f6f" points="789,-731.125 557,-731.125 557,-496.125 789,-496.125 789,-731.125"/>
<g id="a_node1_0"><a xlink:href="http://schema.mobivoc.org/ParkingFacility" xlink:title="&lt;TABLE&gt;">
<text text-anchor="start" x="646.7598" y="-716.225" font-family="Roboto" font-size="8.00" fill="#000000">Parking facility</text>
</a>
</g>
<g id="a_node1_1"><a xlink:href="http://schema.mobivoc.org/queuingTime" xlink:title="&lt;TABLE&gt;">
<text text-anchor="start" x="569" y="-701.225" font-family="Roboto" font-size="8.00" fill="#000000">queuing time : string</text>
</a>
</g>
<g id="a_node1_2"><a xlink:href="http://schema.mobivoc.org/fillRate" xlink:title="&lt;TABLE&gt;">
<text text-anchor="start" x="569" y="-686.225" font-family="Roboto" font-size="8.00" fill="#000000">fill rate : string</text>
</a>
</g>
<g id="a_node1_3"><a xlink:href="http://schema.mobivoc.org/numberOfWomensParkingSpaces" xlink:title="&lt;TABLE&gt;">
<text text-anchor="start" x="569" y="-671.225" font-family="Roboto" font-size="8.00" fill="#000000">number of women&#39;s parking spaces : integer</text>
</a>
</g>
<g id="a_node1_4"><a xlink:href="http://schema.mobivoc.org/numberOfMotorbikeParkingSpaces" xlink:title="&lt;TABLE&gt;">
<text text-anchor="start" x="569" y="-656.225" font-family="Roboto" font-size="8.00" fill="#000000">number of parking spaces for motorbikes : integer</text>
</a>
</g>
<g id="a_node1_5"><a xlink:href="http://schema.mobivoc.org/exitRate" xlink:title="&lt;TABLE&gt;">
<text text-anchor="start" x="569" y="-641.225" font-family="Roboto" font-size="8.00" fill="#000000">exit rate : string</text>
</a>
</g>
<g id="a_node1_6"><a xlink:href="http://schema.mobivoc.org/numberOfParkingSpacesForDisabledPersons" xlink:title="&lt;TABLE&gt;">
<text text-anchor="start" x="569" y="-626.225" font-family="Roboto" font-size="8.00" fill="#000000">number of parking spaces for disabled persons : integer</text>
</a>
</g>
<g id="a_node1_7"><a xlink:href="http://schema.mobivoc.org/numberOfVacantParkingSpaces" xlink:title="&lt;TABLE&gt;">
<text text-anchor="start" x="569" y="-611.225" font-family="Roboto" font-size="8.00" fill="#000000">number of vacant parking spaces : integer</text>
</a>
</g>
<g id="a_node1_8"><a xlink:href="http://schema.mobivoc.org/numberOfBicycleParkingSpaces" xlink:title="&lt;TABLE&gt;">
<text text-anchor="start" x="569" y="-596.225" font-family="Roboto" font-size="8.00" fill="#000000">number of parking spaces for bicycles : integer</text>
</a>
</g>
<g id="a_node1_9"><a xlink:href="http://schema.mobivoc.org/totalCapacity" xlink:title="&lt;TABLE&gt;">
<text text-anchor="start" x="569" y="-581.225" font-family="Roboto" font-size="8.00" fill="#000000">total capacity : integer</text>
</a>
</g>
<g id="a_node1_10"><a xlink:href="http://schema.mobivoc.org/numberOfOccupiedParkingSpaces" xlink:title="&lt;TABLE&gt;">
<text text-anchor="start" x="569" y="-566.225" font-family="Roboto" font-size="8.00" fill="#000000">number of occupied parking spaces : integer</text>
</a>
</g>
<g id="a_node1_11"><a xlink:href="http://schema.mobivoc.org/numberOfCarsharingParkingSpaces" xlink:title="&lt;TABLE&gt;">
<text text-anchor="start" x="569" y="-551.225" font-family="Roboto" font-size="8.00" fill="#000000">number of carsharing spaces : integer</text>
</a>
</g>
<g id="a_node1_12"><a xlink:href="http://schema.mobivoc.org/rateOfOccupancy" xlink:title="&lt;TABLE&gt;">
<text text-anchor="start" x="569" y="-536.225" font-family="Roboto" font-size="8.00" fill="#000000">rate of occupancy : string</text>
</a>
</g>
<text text-anchor="start" x="568.5078" y="-521.225" font-family="Roboto" font-size="8.00" fill="#000000">Any facility or area assigned for parking vehicles. A parking</text>
<text text-anchor="start" x="569" y="-506.225" font-family="Roboto" font-size="8.00" fill="#000000">facility can provide one or more parking spaces.</text>
<polygon fill="#706f6f" stroke="#706f6f" points="565,-710.625 565,-710.625 781,-710.625 781,-710.625 565,-710.625"/>
<polygon fill="#706f6f" stroke="#706f6f" points="565,-530.625 565,-530.625 781,-530.625 781,-530.625 565,-530.625"/>
</g>
<!-- http://schema.mobivoc.org/ArrangementPattern -->
<g id="node2" class="node">
<title>http://schema.mobivoc.org/ArrangementPattern</title>
<polygon fill="#ffd180" stroke="#706f6f" points="122,-200.375 0,-200.375 0,-130.375 122,-130.375 122,-200.375"/>
<g id="a_node2_13"><a xlink:href="http://schema.mobivoc.org/ArrangementPattern" xlink:title="&lt;TABLE&gt;">
<text text-anchor="start" x="24.1738" y="-185.975" font-family="Roboto" font-size="8.00" fill="#000000">Arrangement pattern</text>
</a>
</g>
<text text-anchor="start" x="11.5879" y="-170.975" font-family="Roboto" font-size="8.00" fill="#000000">Pattern how parking spaces</text>
<text text-anchor="start" x="12" y="-155.975" font-family="Roboto" font-size="8.00" fill="#000000">are arranged in a parking</text>
<text text-anchor="start" x="12" y="-140.975" font-family="Roboto" font-size="8.00" fill="#000000">facility or at roadside.</text>
<polygon fill="#706f6f" stroke="#706f6f" points="8,-180.375 8,-180.375 114,-180.375 114,-180.375 8,-180.375"/>
</g>
<!-- http://schema.mobivoc.org/ParkingFacility&#45;&gt;http://schema.mobivoc.org/ArrangementPattern -->
<g id="edge10" class="edge">
<title>http://schema.mobivoc.org/ParkingFacility&#45;&gt;http://schema.mobivoc.org/ArrangementPattern</title>
<g id="a_edge10"><a xlink:href="http://schema.mobivoc.org/arrangement" xlink:title="arrangement pattern">
<path fill="none" stroke="#000000" d="M556.9874,-599.0645C398.2784,-576.513 126.2468,-527.5576 66.2148,-450.75 12.1611,-381.5912 30.4153,-271.5057 46.7912,-210.2445"/>
<polygon fill="#000000" stroke="#000000" points="50.1987,-211.0542 49.4959,-200.4827 43.4528,-209.1851 50.1987,-211.0542"/>
</a>
</g>
<g id="a_edge10&#45;label"><a xlink:href="http://schema.mobivoc.org/arrangement" xlink:title="arrangement pattern">
<text text-anchor="middle" x="103.3926" y="-346.5375" font-family="Roboto" font-size="8.00" fill="#000000">arrangement pattern</text>
</a>
</g>
</g>
<!-- http://schema.mobivoc.org/ParkingFacilityExit -->
<g id="node4" class="node">
<title>http://schema.mobivoc.org/ParkingFacilityExit</title>
<polygon fill="#ffd180" stroke="#706f6f" points="818.5,-383.25 707.5,-383.25 707.5,-313.25 818.5,-313.25 818.5,-383.25"/>
<g id="a_node4_14"><a xlink:href="http://schema.mobivoc.org/ParkingFacilityExit" xlink:title="&lt;TABLE&gt;">
<text text-anchor="start" x="756.9668" y="-368.85" font-family="Roboto" font-size="8.00" fill="#000000">Exit</text>
</a>
</g>
<text text-anchor="start" x="720" y="-353.85" font-family="Roboto" font-size="8.00" fill="#000000">Exit of a parking facility</text>
<text text-anchor="start" x="719.5703" y="-338.85" font-family="Roboto" font-size="8.00" fill="#000000">where vehicles can leave</text>
<text text-anchor="start" x="720" y="-323.85" font-family="Roboto" font-size="8.00" fill="#000000">the parking facility.</text>
<polygon fill="#706f6f" stroke="#706f6f" points="716,-363.25 716,-363.25 811,-363.25 811,-363.25 716,-363.25"/>
</g>
<!-- http://schema.mobivoc.org/ParkingFacility&#45;&gt;http://schema.mobivoc.org/ParkingFacilityExit -->
<g id="edge5" class="edge">
<title>http://schema.mobivoc.org/ParkingFacility&#45;&gt;http://schema.mobivoc.org/ParkingFacilityExit</title>
<g id="a_edge5"><a xlink:href="http://schema.mobivoc.org/exit" xlink:title="exit">
<path fill="none" stroke="#000000" d="M712.8683,-496.0688C725.2759,-459.4838 738.2106,-421.3442 747.8332,-392.9709"/>
<polygon fill="#000000" stroke="#000000" points="751.1952,-393.9551 751.0924,-383.3608 744.566,-391.7069 751.1952,-393.9551"/>
</a>
</g>
<g id="a_edge5&#45;label"><a xlink:href="http://schema.mobivoc.org/exit" xlink:title="exit">
<text text-anchor="middle" x="727.3789" y="-471.725" font-family="Roboto" font-size="8.00" fill="#000000">exit</text>
</a>
</g>
</g>
<!-- http://schema.mobivoc.org/ParkingSpace -->
<g id="node5" class="node">
<title>http://schema.mobivoc.org/ParkingSpace</title>
<polygon fill="#ffd180" stroke="#706f6f" points="528.5,-450.75 391.5,-450.75 391.5,-245.75 528.5,-245.75 528.5,-450.75"/>
<g id="a_node5_15"><a xlink:href="http://schema.mobivoc.org/ParkingSpace" xlink:title="&lt;TABLE&gt;">
<text text-anchor="start" x="435.334" y="-435.85" font-family="Roboto" font-size="8.00" fill="#000000">Parking space</text>
</a>
</g>
<text text-anchor="start" x="404" y="-420.85" font-family="Roboto" font-size="8.00" fill="#000000">A parking space is a location</text>
<text text-anchor="start" x="404" y="-405.85" font-family="Roboto" font-size="8.00" fill="#000000">that is designated for parking</text>
<text text-anchor="start" x="404" y="-390.85" font-family="Roboto" font-size="8.00" fill="#000000">a vehicle. A parking space</text>
<text text-anchor="start" x="403.752" y="-375.85" font-family="Roboto" font-size="8.00" fill="#000000">has a certain size, is sometimes</text>
<text text-anchor="start" x="404" y="-360.85" font-family="Roboto" font-size="8.00" fill="#000000">marked and can be located</text>
<text text-anchor="start" x="404" y="-345.85" font-family="Roboto" font-size="8.00" fill="#000000">at roadside or inside a parking</text>
<text text-anchor="start" x="404" y="-330.85" font-family="Roboto" font-size="8.00" fill="#000000">facility. Depending on the</text>
<text text-anchor="start" x="404" y="-315.85" font-family="Roboto" font-size="8.00" fill="#000000">location of the parking space,</text>
<text text-anchor="start" x="404" y="-300.85" font-family="Roboto" font-size="8.00" fill="#000000">there can be regulations</text>
<text text-anchor="start" x="404" y="-285.85" font-family="Roboto" font-size="8.00" fill="#000000">regarding the time allowed</text>
<text text-anchor="start" x="404" y="-270.85" font-family="Roboto" font-size="8.00" fill="#000000">to park and a fee paid to</text>
<text text-anchor="start" x="404" y="-255.85" font-family="Roboto" font-size="8.00" fill="#000000">use the parking space.</text>
<polygon fill="#706f6f" stroke="#706f6f" points="400,-430.25 400,-430.25 521,-430.25 521,-430.25 400,-430.25"/>
</g>
<!-- http://schema.mobivoc.org/ParkingFacility&#45;&gt;http://schema.mobivoc.org/ParkingSpace -->
<g id="edge7" class="edge">
<title>http://schema.mobivoc.org/ParkingFacility&#45;&gt;http://schema.mobivoc.org/ParkingSpace</title>
<g id="a_edge7"><a xlink:href="http://schema.mobivoc.org/parkingSpace" xlink:title="parking space">
<path fill="none" stroke="#000000" d="M556.7852,-533.3539C538.0933,-516.7003 520.2866,-498.0842 506.1836,-478.125 502.1939,-472.4785 498.5164,-466.4524 495.1316,-460.2043"/>
<polygon fill="#000000" stroke="#000000" points="498.0482,-458.2201 490.3797,-450.9095 491.8155,-461.4066 498.0482,-458.2201"/>
</a>
</g>
<g id="a_edge7&#45;label"><a xlink:href="http://schema.mobivoc.org/parkingSpace" xlink:title="parking space">
<text text-anchor="middle" x="531.9082" y="-471.725" font-family="Roboto" font-size="8.00" fill="#000000">parking space</text>
</a>
</g>
</g>
<!-- http://schema.mobivoc.org/ParkingFacilityEntrance -->
<g id="node6" class="node">
<title>http://schema.mobivoc.org/ParkingFacilityEntrance</title>
<polygon fill="#ffd180" stroke="#706f6f" points="965,-383.25 841,-383.25 841,-313.25 965,-313.25 965,-383.25"/>
<g id="a_node6_16"><a xlink:href="http://schema.mobivoc.org/ParkingFacilityEntrance" xlink:title="&lt;TABLE&gt;">
<text text-anchor="start" x="887.3418" y="-368.85" font-family="Roboto" font-size="8.00" fill="#000000">Entrance</text>
</a>
</g>
<text text-anchor="start" x="852.543" y="-353.85" font-family="Roboto" font-size="8.00" fill="#000000">Entrance of a parking facility</text>
<text text-anchor="start" x="853" y="-338.85" font-family="Roboto" font-size="8.00" fill="#000000">where vehicles can enter</text>
<text text-anchor="start" x="853" y="-323.85" font-family="Roboto" font-size="8.00" fill="#000000">the parking facility.</text>
<polygon fill="#706f6f" stroke="#706f6f" points="849,-363.25 849,-363.25 957,-363.25 957,-363.25 849,-363.25"/>
</g>
<!-- http://schema.mobivoc.org/ParkingFacility&#45;&gt;http://schema.mobivoc.org/ParkingFacilityEntrance -->
<g id="edge4" class="edge">
<title>http://schema.mobivoc.org/ParkingFacility&#45;&gt;http://schema.mobivoc.org/ParkingFacilityEntrance</title>
<g id="a_edge4"><a xlink:href="http://schema.mobivoc.org/entrance" xlink:title="entrance">
<path fill="none" stroke="#000000" d="M789.1302,-496.1822C802.8826,-481.1711 816.4694,-465.7918 829,-450.75 844.5933,-432.0318 860.5766,-410.2754 873.68,-391.6346"/>
<polygon fill="#000000" stroke="#000000" points="876.6354,-393.5154 879.4861,-383.3112 870.8943,-389.5105 876.6354,-393.5154"/>
</a>
</g>
<g id="a_edge4&#45;label"><a xlink:href="http://schema.mobivoc.org/entrance" xlink:title="entrance">
<text text-anchor="middle" x="829.5039" y="-471.725" font-family="Roboto" font-size="8.00" fill="#000000">entrance</text>
</a>
</g>
</g>
<!-- http://schema.mobivoc.org/ParkingFacilityFeature -->
<g id="node8" class="node">
<title>http://schema.mobivoc.org/ParkingFacilityFeature</title>
<polygon fill="#ffd180" stroke="#706f6f" points="1118.5,-383.25 987.5,-383.25 987.5,-313.25 1118.5,-313.25 1118.5,-383.25"/>
<g id="a_node8_17"><a xlink:href="http://schema.mobivoc.org/ParkingFacilityFeature" xlink:title="&lt;TABLE&gt;">
<text text-anchor="start" x="1013.6387" y="-368.85" font-family="Roboto" font-size="8.00" fill="#000000">Parking facility feature</text>
</a>
</g>
<text text-anchor="start" x="999.7734" y="-353.85" font-family="Roboto" font-size="8.00" fill="#000000">Features of the parking facility</text>
<text text-anchor="start" x="1000" y="-338.85" font-family="Roboto" font-size="8.00" fill="#000000">(e.g. parking for disabled</text>
<text text-anchor="start" x="1000" y="-323.85" font-family="Roboto" font-size="8.00" fill="#000000">people).</text>
<polygon fill="#706f6f" stroke="#706f6f" points="996,-363.25 996,-363.25 1111,-363.25 1111,-363.25 996,-363.25"/>
</g>
<!-- http://schema.mobivoc.org/ParkingFacility&#45;&gt;http://schema.mobivoc.org/ParkingFacilityFeature -->
<g id="edge13" class="edge">
<title>http://schema.mobivoc.org/ParkingFacility&#45;&gt;http://schema.mobivoc.org/ParkingFacilityFeature</title>
<g id="a_edge13"><a xlink:href="http://schema.mobivoc.org/feature" xlink:title="feature">
<path fill="none" stroke="#000000" d="M789.3555,-565.6699C849.0405,-537.6139 920.6253,-498.3338 976,-450.75 995.4102,-434.0708 1012.9181,-411.6961 1026.3167,-392.1072"/>
<polygon fill="#000000" stroke="#000000" points="1029.3413,-393.8803 1031.9878,-383.6213 1023.5214,-389.9908 1029.3413,-393.8803"/>
</a>
</g>
<g id="a_edge13&#45;label"><a xlink:href="http://schema.mobivoc.org/feature" xlink:title="feature">
<text text-anchor="middle" x="958.6309" y="-471.725" font-family="Roboto" font-size="8.00" fill="#000000">feature</text>
</a>
</g>
</g>
<!-- http://schema.mobivoc.org/Capacity -->
<g id="node12" class="node">
<title>http://schema.mobivoc.org/Capacity</title>
<polygon fill="#ffd180" stroke="#706f6f" points="365,-200.375 241,-200.375 241,-130.375 365,-130.375 365,-200.375"/>
<g id="a_node12_18"><a xlink:href="http://schema.mobivoc.org/Capacity" xlink:title="&lt;TABLE&gt;">
<text text-anchor="start" x="287.5371" y="-185.975" font-family="Roboto" font-size="8.00" fill="#000000">Capacity</text>
</a>
</g>
<g id="a_node12_19"><a xlink:href="http://schema.mobivoc.org/maximumValue" xlink:title="&lt;TABLE&gt;">
<text text-anchor="start" x="253" y="-170.975" font-family="Roboto" font-size="8.00" fill="#000000">maximum value : integer</text>
</a>
</g>
<text text-anchor="start" x="252.7383" y="-155.975" font-family="Roboto" font-size="8.00" fill="#000000">Capacity of a parking facility</text>
<text text-anchor="start" x="253" y="-140.975" font-family="Roboto" font-size="8.00" fill="#000000">or a parking space.</text>
<polygon fill="#706f6f" stroke="#706f6f" points="249,-180.375 249,-180.375 357,-180.375 357,-180.375 249,-180.375"/>
<polygon fill="#706f6f" stroke="#706f6f" points="249,-165.375 249,-165.375 357,-165.375 357,-165.375 249,-165.375"/>
</g>
<!-- http://schema.mobivoc.org/ParkingFacility&#45;&gt;http://schema.mobivoc.org/Capacity -->
<g id="edge9" class="edge">
<title>http://schema.mobivoc.org/ParkingFacility&#45;&gt;http://schema.mobivoc.org/Capacity</title>
<g id="a_edge9"><a xlink:href="http://schema.mobivoc.org/capacity" xlink:title="has capacity">
<path fill="none" stroke="#000000" d="M556.9798,-591.4812C425.8871,-563.8262 224.8922,-512.5501 180.2305,-450.75 126.8636,-376.9041 136.9042,-325.9003 180.2305,-245.75 191.7316,-224.4737 211.5868,-207.9241 232.0181,-195.5215"/>
<polygon fill="#000000" stroke="#000000" points="233.877,-198.4897 240.787,-190.4583 230.3768,-192.4277 233.877,-198.4897"/>
</a>
</g>
<g id="a_edge9&#45;label"><a xlink:href="http://schema.mobivoc.org/capacity" xlink:title="has capacity">
<text text-anchor="middle" x="203.3848" y="-346.5375" font-family="Roboto" font-size="8.00" fill="#000000">has capacity</text>
</a>
</g>
</g>
<!-- http://schema.mobivoc.org/ParkingFacilityConnection -->
<g id="node13" class="node">
<title>http://schema.mobivoc.org/ParkingFacilityConnection</title>
<polygon fill="#ffd180" stroke="#706f6f" points="1277.5,-383.25 1140.5,-383.25 1140.5,-313.25 1277.5,-313.25 1277.5,-383.25"/>
<g id="a_node13_20"><a xlink:href="http://schema.mobivoc.org/ParkingFacilityConnection" xlink:title="&lt;TABLE&gt;">
<text text-anchor="start" x="1160.4395" y="-368.85" font-family="Roboto" font-size="8.00" fill="#000000">Parking facility connections</text>
</a>
</g>
<text text-anchor="start" x="1152.7637" y="-353.85" font-family="Roboto" font-size="8.00" fill="#000000">Transport connections available</text>
<text text-anchor="start" x="1153" y="-338.85" font-family="Roboto" font-size="8.00" fill="#000000">at the parking facility (e.g.</text>
<text text-anchor="start" x="1153" y="-323.85" font-family="Roboto" font-size="8.00" fill="#000000">Park &amp; Ride).</text>
<polygon fill="#706f6f" stroke="#706f6f" points="1149,-363.25 1149,-363.25 1270,-363.25 1270,-363.25 1149,-363.25"/>
</g>
<!-- http://schema.mobivoc.org/ParkingFacility&#45;&gt;http://schema.mobivoc.org/ParkingFacilityConnection -->
<g id="edge1" class="edge">
<title>http://schema.mobivoc.org/ParkingFacility&#45;&gt;http://schema.mobivoc.org/ParkingFacilityConnection</title>
<g id="a_edge1"><a xlink:href="http://schema.mobivoc.org/connectedTo" xlink:title="connected to">
<path fill="none" stroke="#000000" d="M789.1302,-591.5134C887.0582,-568.5933 1027.2711,-525.378 1130,-450.75 1151.4717,-435.1517 1169.9484,-412.1247 1183.6224,-391.8456"/>
<polygon fill="#000000" stroke="#000000" points="1186.6337,-393.636 1189.1834,-383.3525 1180.7773,-389.8014 1186.6337,-393.636"/>
</a>
</g>
<g id="a_edge1&#45;label"><a xlink:href="http://schema.mobivoc.org/connectedTo" xlink:title="connected to">
<text text-anchor="middle" x="1120.2227" y="-471.725" font-family="Roboto" font-size="8.00" fill="#000000">connected to</text>
</a>
</g>
</g>
<!-- http://schema.mobivoc.org/ChargingPoint -->
<g id="node16" class="node">
<title>http://schema.mobivoc.org/ChargingPoint</title>
<polygon fill="#cecece" stroke="#706f6f" points="603.3167,-183.375 436.6833,-183.375 436.6833,-147.375 603.3167,-147.375 603.3167,-183.375"/>
<text text-anchor="middle" x="520" y="-163.6625" font-family="Roboto" font-size="8.00" fill="#000000">http://schema.mobivoc.org/ChargingPoint</text>
</g>
<!-- http://schema.mobivoc.org/ParkingFacility&#45;&gt;http://schema.mobivoc.org/ChargingPoint -->
<g id="edge11" class="edge">
<title>http://schema.mobivoc.org/ParkingFacility&#45;&gt;http://schema.mobivoc.org/ChargingPoint</title>
<g id="a_edge11"><a xlink:href="http://schema.mobivoc.org/chargingPoint" xlink:title="has charging point">
<path fill="none" stroke="#000000" d="M623.6733,-496.1096C618.0891,-480.9765 612.7795,-465.5869 608.2266,-450.75 577.201,-349.6458 599.4678,-315.2313 557,-218.375 552.9198,-209.0692 547.0971,-199.7159 541.275,-191.5128"/>
<polygon fill="#000000" stroke="#000000" points="544.0493,-189.3781 535.281,-183.4309 538.4269,-193.548 544.0493,-189.3781"/>
</a>
</g>
<g id="a_edge11&#45;label"><a xlink:href="http://schema.mobivoc.org/chargingPoint" xlink:title="has charging point">
<text text-anchor="middle" x="641.8867" y="-346.5375" font-family="Roboto" font-size="8.00" fill="#000000">has charging point</text>
</a>
</g>
</g>
<!-- http://schema.org/CivicStructure -->
<g id="node18" class="node">
<title>http://schema.org/CivicStructure</title>
<polygon fill="#cecece" stroke="#706f6f" points="778.3946,-183.375 645.6054,-183.375 645.6054,-147.375 778.3946,-147.375 778.3946,-183.375"/>
<text text-anchor="middle" x="712" y="-163.6625" font-family="Roboto" font-size="8.00" fill="#000000">http://schema.org/CivicStructure</text>
</g>
<!-- http://schema.mobivoc.org/ParkingFacility&#45;&gt;http://schema.org/CivicStructure -->
<g id="edge23" class="edge">
<title>http://schema.mobivoc.org/ParkingFacility&#45;&gt;http://schema.org/CivicStructure</title>
<path fill="none" stroke="#000000" d="M676.3371,-496.0245C679.386,-423.62 685.1563,-329.0364 696,-245.75 698.2835,-228.2111 702.1222,-208.7532 705.4671,-193.3756"/>
<polygon fill="none" stroke="#000000" points="708.9188,-193.9773 707.6788,-183.4553 702.0866,-192.454 708.9188,-193.9773"/>
</g>
<!-- http://schema.mobivoc.org/UndergroundParkingGarage -->
<g id="node3" class="node">
<title>http://schema.mobivoc.org/UndergroundParkingGarage</title>
<polygon fill="#ffd180" stroke="#706f6f" points="418,-853.125 280,-853.125 280,-783.125 418,-783.125 418,-853.125"/>
<g id="a_node3_21"><a xlink:href="http://schema.mobivoc.org/UndergroundParkingGarage" xlink:title="&lt;TABLE&gt;">
<text text-anchor="start" x="298.5625" y="-838.725" font-family="Roboto" font-size="8.00" fill="#000000">Underground parking garage</text>
</a>
</g>
<text text-anchor="start" x="292" y="-823.725" font-family="Roboto" font-size="8.00" fill="#000000">Parking facility with one</text>
<text text-anchor="start" x="292" y="-808.725" font-family="Roboto" font-size="8.00" fill="#000000">or more levels below the</text>
<text text-anchor="start" x="291.8945" y="-793.725" font-family="Roboto" font-size="8.00" fill="#000000">surface and none above ground.</text>
<polygon fill="#706f6f" stroke="#706f6f" points="288,-833.125 288,-833.125 410,-833.125 410,-833.125 288,-833.125"/>
</g>
<!-- http://schema.mobivoc.org/UndergroundParkingGarage&#45;&gt;http://schema.mobivoc.org/ParkingFacility -->
<g id="edge22" class="edge">
<title>http://schema.mobivoc.org/UndergroundParkingGarage&#45;&gt;http://schema.mobivoc.org/ParkingFacility</title>
<path fill="none" stroke="#000000" d="M404.6976,-782.9702C444.1213,-758.087 498.5829,-723.7123 548.1427,-692.4315"/>
<polygon fill="none" stroke="#000000" points="550.1026,-695.3334 556.6909,-687.0361 546.3663,-689.4139 550.1026,-695.3334"/>
</g>
<!-- http://schema.mobivoc.org/ParkingFacilityExit&#45;&gt;http://schema.org/CivicStructure -->
<g id="edge14" class="edge">
<title>http://schema.mobivoc.org/ParkingFacilityExit&#45;&gt;http://schema.org/CivicStructure</title>
<path fill="none" stroke="#000000" d="M753.1667,-312.9899C743.4506,-278.1499 728.78,-225.5444 719.8276,-193.4429"/>
<polygon fill="none" stroke="#000000" points="723.1931,-192.4816 717.1354,-183.7893 716.4504,-194.362 723.1931,-192.4816"/>
</g>
<!-- http://schema.mobivoc.org/ParkingSpace&#45;&gt;http://schema.mobivoc.org/ArrangementPattern -->
<g id="edge3" class="edge">
<title>http://schema.mobivoc.org/ParkingSpace&#45;&gt;http://schema.mobivoc.org/ArrangementPattern</title>
<g id="a_edge3"><a xlink:href="http://schema.mobivoc.org/arrangement" xlink:title="arrangement pattern">
<path fill="none" stroke="#000000" d="M391.2521,-253.4624C387.6212,-250.6664 383.8687,-248.0772 380,-245.75 340.6337,-222.0697 322.9726,-238.1039 278.2148,-227.75 228.9212,-216.3468 174.1719,-200.6045 131.9713,-187.7882"/>
<polygon fill="#000000" stroke="#000000" points="132.9328,-184.4223 122.3466,-184.8499 130.8889,-191.1173 132.9328,-184.4223"/>
</a>
</g>
<g id="a_edge3&#45;label"><a xlink:href="http://schema.mobivoc.org/arrangement" xlink:title="arrangement pattern">
<text text-anchor="middle" x="315.3926" y="-221.35" font-family="Roboto" font-size="8.00" fill="#000000">arrangement pattern</text>
</a>
</g>
</g>
<!-- http://schema.mobivoc.org/ParkingSpace&#45;&gt;http://schema.mobivoc.org/Capacity -->
<g id="edge12" class="edge">
<title>http://schema.mobivoc.org/ParkingSpace&#45;&gt;http://schema.mobivoc.org/Capacity</title>
<g id="a_edge12"><a xlink:href="http://schema.mobivoc.org/capacity" xlink:title="has capacity">
<path fill="none" stroke="#000000" d="M391.3842,-259.1848C387.5768,-254.6054 383.7667,-250.1028 380,-245.75 369.1095,-233.165 356.8317,-219.9509 345.3326,-207.9552"/>
<polygon fill="#000000" stroke="#000000" points="347.7554,-205.4256 338.2927,-200.6602 342.7183,-210.2865 347.7554,-205.4256"/>
</a>
</g>
<g id="a_edge12&#45;label"><a xlink:href="http://schema.mobivoc.org/capacity" xlink:title="has capacity">
<text text-anchor="middle" x="386.3848" y="-221.35" font-family="Roboto" font-size="8.00" fill="#000000">has capacity</text>
</a>
</g>
</g>
<!-- http://schema.mobivoc.org/ParkingSpace&#45;&gt;http://schema.mobivoc.org/ChargingPoint -->
<g id="edge2" class="edge">
<title>http://schema.mobivoc.org/ParkingSpace&#45;&gt;http://schema.mobivoc.org/ChargingPoint</title>
<g id="a_edge2"><a xlink:href="http://schema.mobivoc.org/chargingPoint" xlink:title="has charging point">
<path fill="none" stroke="#000000" d="M480.9841,-245.6794C483.7582,-236.3411 486.8339,-227.1156 490.2266,-218.375 493.6671,-209.5109 498.3736,-200.3217 503.0288,-192.1339"/>
<polygon fill="#000000" stroke="#000000" points="506.1233,-193.7768 508.1927,-183.386 500.0952,-190.2183 506.1233,-193.7768"/>
</a>
</g>
<g id="a_edge2&#45;label"><a xlink:href="http://schema.mobivoc.org/chargingPoint" xlink:title="has charging point">
<text text-anchor="middle" x="523.8867" y="-221.35" font-family="Roboto" font-size="8.00" fill="#000000">has charging point</text>
</a>
</g>
</g>
<!-- http://schema.mobivoc.org/ParkingSpace&#45;&gt;http://schema.org/CivicStructure -->
<g id="edge15" class="edge">
<title>http://schema.mobivoc.org/ParkingSpace&#45;&gt;http://schema.org/CivicStructure</title>
<path fill="none" stroke="#000000" d="M528.5755,-260.8954C534.2149,-255.503 540.0444,-250.3895 546,-245.75 577.8417,-220.9449 618.5746,-201.08 651.7219,-187.3046"/>
<polygon fill="none" stroke="#000000" points="653.3588,-190.4172 661.3004,-183.4043 650.7188,-183.934 653.3588,-190.4172"/>
</g>
<!-- http://schema.mobivoc.org/ParkingFacilityEntrance&#45;&gt;http://schema.org/CivicStructure -->
<g id="edge18" class="edge">
<title>http://schema.mobivoc.org/ParkingFacilityEntrance&#45;&gt;http://schema.org/CivicStructure</title>
<path fill="none" stroke="#000000" d="M882.0112,-313.1721C868.4623,-292.211 849.567,-265.8416 829,-245.75 806.3346,-223.6085 776.9233,-203.4334 753.2595,-188.8346"/>
<polygon fill="none" stroke="#000000" points="754.8628,-185.7136 744.4976,-183.52 751.2325,-191.6987 754.8628,-185.7136"/>
</g>
<!-- http://schema.mobivoc.org/AutomatedParkingGarage -->
<g id="node7" class="node">
<title>http://schema.mobivoc.org/AutomatedParkingGarage</title>
<polygon fill="#ffd180" stroke="#706f6f" points="585.5,-868.125 440.5,-868.125 440.5,-768.125 585.5,-768.125 585.5,-868.125"/>
<g id="a_node7_22"><a xlink:href="http://schema.mobivoc.org/AutomatedParkingGarage" xlink:title="&lt;TABLE&gt;">
<text text-anchor="start" x="466.3574" y="-853.725" font-family="Roboto" font-size="8.00" fill="#000000">Automated parking garage</text>
</a>
</g>
<text text-anchor="start" x="452.6621" y="-838.725" font-family="Roboto" font-size="8.00" fill="#000000">Parking garage with an automated</text>
<text text-anchor="start" x="453" y="-823.725" font-family="Roboto" font-size="8.00" fill="#000000">parking system that automatically</text>
<text text-anchor="start" x="453" y="-808.725" font-family="Roboto" font-size="8.00" fill="#000000">moves cars to the available</text>
<text text-anchor="start" x="453" y="-793.725" font-family="Roboto" font-size="8.00" fill="#000000">parking space somewhere in</text>
<text text-anchor="start" x="453" y="-778.725" font-family="Roboto" font-size="8.00" fill="#000000">the garage.</text>
<polygon fill="#706f6f" stroke="#706f6f" points="449,-848.125 449,-848.125 578,-848.125 578,-848.125 449,-848.125"/>
</g>
<!-- http://schema.mobivoc.org/AutomatedParkingGarage&#45;&gt;http://schema.mobivoc.org/ParkingFacility -->
<g id="edge19" class="edge">
<title>http://schema.mobivoc.org/AutomatedParkingGarage&#45;&gt;http://schema.mobivoc.org/ParkingFacility</title>
<path fill="none" stroke="#000000" d="M552.1404,-768.0987C559.1484,-759.1415 566.7283,-749.4535 574.5574,-739.447"/>
<polygon fill="none" stroke="#000000" points="577.4779,-741.3941 580.8834,-731.3615 571.9648,-737.0807 577.4779,-741.3941"/>
</g>
<!-- http://schema.mobivoc.org/ParkingUsageType -->
<g id="node9" class="node">
<title>http://schema.mobivoc.org/ParkingUsageType</title>
<polygon fill="#ffd180" stroke="#706f6f" points="296.5,-85 167.5,-85 167.5,0 296.5,0 296.5,-85"/>
<g id="a_node9_23"><a xlink:href="http://schema.mobivoc.org/ParkingUsageType" xlink:title="&lt;TABLE&gt;">
<text text-anchor="start" x="198.6699" y="-70.1" font-family="Roboto" font-size="8.00" fill="#000000">Parking usage type</text>
</a>
</g>
<text text-anchor="start" x="180" y="-55.1" font-family="Roboto" font-size="8.00" fill="#000000">A type of special purpose</text>
<text text-anchor="start" x="179.6953" y="-40.1" font-family="Roboto" font-size="8.00" fill="#000000">a parking space is designated</text>
<text text-anchor="start" x="180" y="-25.1" font-family="Roboto" font-size="8.00" fill="#000000">for, like women&#39;s parking</text>
<text text-anchor="start" x="180" y="-10.1" font-family="Roboto" font-size="8.00" fill="#000000">spaces.</text>
<polygon fill="#706f6f" stroke="#706f6f" points="176,-64.5 176,-64.5 289,-64.5 289,-64.5 176,-64.5"/>
</g>
<!-- http://schema.mobivoc.org/RealTimeCapacity -->
<g id="node10" class="node">
<title>http://schema.mobivoc.org/RealTimeCapacity</title>
<polygon fill="#ffd180" stroke="#706f6f" points="369.5,-390.75 236.5,-390.75 236.5,-305.75 369.5,-305.75 369.5,-390.75"/>
<g id="a_node10_24"><a xlink:href="http://schema.mobivoc.org/RealTimeCapacity" xlink:title="&lt;TABLE&gt;">
<text text-anchor="start" x="270.9355" y="-375.85" font-family="Roboto" font-size="8.00" fill="#000000">Real time capacity</text>
</a>
</g>
<g id="a_node10_25"><a xlink:href="http://purl.org/dc/terms/date" xlink:title="&lt;TABLE&gt;">
<text text-anchor="start" x="249" y="-360.85" font-family="Roboto" font-size="8.00" fill="#000000">date (dct:) : datetime</text>
</a>
</g>
<g id="a_node10_26"><a xlink:href="http://schema.mobivoc.org/currentValue" xlink:title="&lt;TABLE&gt;">
<text text-anchor="start" x="249" y="-345.85" font-family="Roboto" font-size="8.00" fill="#000000">current value : integer</text>
</a>
</g>
<text text-anchor="start" x="248.7832" y="-330.85" font-family="Roboto" font-size="8.00" fill="#000000">Real&#45;time capacity of a parking</text>
<text text-anchor="start" x="249" y="-315.85" font-family="Roboto" font-size="8.00" fill="#000000">facility or parking space.</text>
<polygon fill="#706f6f" stroke="#706f6f" points="245,-370.25 245,-370.25 362,-370.25 362,-370.25 245,-370.25"/>
<polygon fill="#706f6f" stroke="#706f6f" points="245,-340.25 245,-340.25 362,-340.25 362,-340.25 245,-340.25"/>
</g>
<!-- http://schema.mobivoc.org/RealTimeCapacity&#45;&gt;http://schema.mobivoc.org/Capacity -->
<g id="edge17" class="edge">
<title>http://schema.mobivoc.org/RealTimeCapacity&#45;&gt;http://schema.mobivoc.org/Capacity</title>
<path fill="none" stroke="#000000" d="M303,-305.3739C303,-276.9786 303,-239.7815 303,-210.8664"/>
<polygon fill="none" stroke="#000000" points="306.5001,-210.6199 303,-200.6199 299.5001,-210.6199 306.5001,-210.6199"/>
</g>
<!-- http://schema.mobivoc.org/BicycleParkingStation -->
<g id="node11" class="node">
<title>http://schema.mobivoc.org/BicycleParkingStation</title>
<polygon fill="#ffd180" stroke="#706f6f" points="738,-853.125 608,-853.125 608,-783.125 738,-783.125 738,-853.125"/>
<g id="a_node11_27"><a xlink:href="http://schema.mobivoc.org/BicycleParkingStation" xlink:title="&lt;TABLE&gt;">
<text text-anchor="start" x="632.8809" y="-838.725" font-family="Roboto" font-size="8.00" fill="#000000">Bicycle parking station</text>
</a>
</g>
<text text-anchor="start" x="619.877" y="-823.725" font-family="Roboto" font-size="8.00" fill="#000000">Building or structure designed</text>
<text text-anchor="start" x="620" y="-808.725" font-family="Roboto" font-size="8.00" fill="#000000">for use as a bicycle parking</text>
<text text-anchor="start" x="620" y="-793.725" font-family="Roboto" font-size="8.00" fill="#000000">facility.</text>
<polygon fill="#706f6f" stroke="#706f6f" points="616,-833.125 616,-833.125 730,-833.125 730,-833.125 616,-833.125"/>
</g>
<!-- http://schema.mobivoc.org/BicycleParkingStation&#45;&gt;http://schema.mobivoc.org/ParkingFacility -->
<g id="edge20" class="edge">
<title>http://schema.mobivoc.org/BicycleParkingStation&#45;&gt;http://schema.mobivoc.org/ParkingFacility</title>
<path fill="none" stroke="#000000" d="M673,-782.9702C673,-770.8857 673,-756.5626 673,-741.4424"/>
<polygon fill="none" stroke="#000000" points="676.5001,-741.4067 673,-731.4067 669.5001,-741.4067 676.5001,-741.4067"/>
</g>
<!-- http://schema.mobivoc.org/Capacity&#45;&gt;http://schema.mobivoc.org/ParkingUsageType -->
<g id="edge8" class="edge">
<title>http://schema.mobivoc.org/Capacity&#45;&gt;http://schema.mobivoc.org/ParkingUsageType</title>
<g id="a_edge8"><a xlink:href="http://schema.mobivoc.org/parkingUsageType" xlink:title="parking usage type">
<path fill="none" stroke="#000000" d="M273.8106,-130.3368C269.544,-124.5097 265.4005,-118.3984 261.8555,-112.375 258.4837,-106.6461 255.2825,-100.4651 252.3155,-94.2321"/>
<polygon fill="#000000" stroke="#000000" points="255.4853,-92.7478 248.1433,-85.1094 249.1195,-95.6592 255.4853,-92.7478"/>
</a>
</g>
<g id="a_edge8&#45;label"><a xlink:href="http://schema.mobivoc.org/parkingUsageType" xlink:title="parking usage type">
<text text-anchor="middle" x="295.5723" y="-105.975" font-family="Roboto" font-size="8.00" fill="#000000">parking usage type</text>
</a>
</g>
</g>
<!-- http://schema.org/Vehicle -->
<g id="node17" class="node">
<title>http://schema.org/Vehicle</title>
<polygon fill="#cecece" stroke="#706f6f" points="427.5547,-60.5 318.4453,-60.5 318.4453,-24.5 427.5547,-24.5 427.5547,-60.5"/>
<text text-anchor="middle" x="373" y="-40.7875" font-family="Roboto" font-size="8.00" fill="#000000">http://schema.org/Vehicle</text>
</g>
<!-- http://schema.mobivoc.org/Capacity&#45;&gt;http://schema.org/Vehicle -->
<g id="edge6" class="edge">
<title>http://schema.mobivoc.org/Capacity&#45;&gt;http://schema.org/Vehicle</title>
<g id="a_edge6"><a xlink:href="http://schema.mobivoc.org/intendedForVehicle" xlink:title="intended for vehicle">
<path fill="none" stroke="#000000" d="M323.0592,-130.164C334.0682,-110.8392 347.5051,-87.2526 357.6671,-69.4147"/>
<polygon fill="#000000" stroke="#000000" points="360.7436,-71.0851 362.6524,-60.6637 354.6613,-67.6201 360.7436,-71.0851"/>
</a>
</g>
<g id="a_edge6&#45;label"><a xlink:href="http://schema.mobivoc.org/intendedForVehicle" xlink:title="intended for vehicle">
<text text-anchor="middle" x="372.834" y="-105.975" font-family="Roboto" font-size="8.00" fill="#000000">intended for vehicle</text>
</a>
</g>
</g>
<!-- http://schema.mobivoc.org/ParkingGarage -->
<g id="node14" class="node">
<title>http://schema.mobivoc.org/ParkingGarage</title>
<polygon fill="#ffd180" stroke="#706f6f" points="875.5,-853.125 760.5,-853.125 760.5,-783.125 875.5,-783.125 875.5,-853.125"/>
<g id="a_node14_28"><a xlink:href="http://schema.mobivoc.org/ParkingGarage" xlink:title="&lt;TABLE&gt;">
<text text-anchor="start" x="791.7949" y="-838.725" font-family="Roboto" font-size="8.00" fill="#000000">Parking garage</text>
</a>
</g>
<text text-anchor="start" x="772.6289" y="-823.725" font-family="Roboto" font-size="8.00" fill="#000000">A single level or multilevel</text>
<text text-anchor="start" x="773" y="-808.725" font-family="Roboto" font-size="8.00" fill="#000000">parking building to park</text>
<text text-anchor="start" x="773" y="-793.725" font-family="Roboto" font-size="8.00" fill="#000000">at.</text>
<polygon fill="#706f6f" stroke="#706f6f" points="769,-833.125 769,-833.125 868,-833.125 868,-833.125 769,-833.125"/>
</g>
<!-- http://schema.mobivoc.org/ParkingGarage&#45;&gt;http://schema.mobivoc.org/ParkingFacility -->
<g id="edge16" class="edge">
<title>http://schema.mobivoc.org/ParkingGarage&#45;&gt;http://schema.mobivoc.org/ParkingFacility</title>
<path fill="none" stroke="#000000" d="M793.0736,-782.9702C784.1787,-770.4253 773.5733,-755.468 762.4008,-739.711"/>
<polygon fill="none" stroke="#000000" points="765.1519,-737.5398 756.5127,-731.4067 759.4417,-741.5886 765.1519,-737.5398"/>
</g>
<!-- http://schema.mobivoc.org/ParkingLot -->
<g id="node15" class="node">
<title>http://schema.mobivoc.org/ParkingLot</title>
<polygon fill="#ffd180" stroke="#706f6f" points="1006,-853.125 898,-853.125 898,-783.125 1006,-783.125 1006,-853.125"/>
<g id="a_node15_29"><a xlink:href="http://schema.mobivoc.org/ParkingLot" xlink:title="&lt;TABLE&gt;">
<text text-anchor="start" x="932.9707" y="-838.725" font-family="Roboto" font-size="8.00" fill="#000000">Parking lot</text>
</a>
</g>
<text text-anchor="start" x="909.5332" y="-823.725" font-family="Roboto" font-size="8.00" fill="#000000">Parking area on a single</text>
<text text-anchor="start" x="910" y="-808.725" font-family="Roboto" font-size="8.00" fill="#000000">groundfloor level that is</text>
<text text-anchor="start" x="909.5566" y="-793.725" font-family="Roboto" font-size="8.00" fill="#000000">usually located outdoor.</text>
<polygon fill="#706f6f" stroke="#706f6f" points="906,-833.125 906,-833.125 998,-833.125 998,-833.125 906,-833.125"/>
</g>
<!-- http://schema.mobivoc.org/ParkingLot&#45;&gt;http://schema.mobivoc.org/ParkingFacility -->
<g id="edge21" class="edge">
<title>http://schema.mobivoc.org/ParkingLot&#45;&gt;http://schema.mobivoc.org/ParkingFacility</title>
<path fill="none" stroke="#000000" d="M906.6754,-782.9801C900.0987,-777.9622 893.3926,-772.8896 887,-768.125 858.202,-746.661 826.9775,-723.8572 797.5118,-702.5461"/>
<polygon fill="none" stroke="#000000" points="799.4065,-699.5971 789.2511,-696.5772 795.3068,-705.2709 799.4065,-699.5971"/>
</g>
</g>
</svg>
