<?xml version="1.0" encoding="UTF-8" standalone="no"?>
<!DOCTYPE svg PUBLIC "-//W3C//DTD SVG 1.1//EN"
 "http://www.w3.org/Graphics/SVG/1.1/DTD/svg11.dtd">
<!-- Generated by graphviz version 2.40.1 (20161225.0304)
 -->
<!-- Title: http://schema.mobivoc.org/ Pages: 1 -->
<svg width="2611pt" height="1825pt"
 viewBox="0.00 0.00 1253.50 876.12" xmlns="http://www.w3.org/2000/svg" xmlns:xlink="http://www.w3.org/1999/xlink">
<g id="graph0" class="graph" transform="scale(2.0833 2.0833) rotate(0) translate(4 872.125)">
<title>http://schema.mobivoc.org/</title>
<polygon fill="#ffffff" stroke="transparent" points="-4,4 -4,-872.125 1249.5,-872.125 1249.5,4 -4,4"/>
<!-- http://schema.mobivoc.org/ParkingLot -->
<g id="node1" class="node">
<title>http://schema.mobivoc.org/ParkingLot</title>
<polygon fill="#ffd180" stroke="#706f6f" points="391,-853.125 283,-853.125 283,-783.125 391,-783.125 391,-853.125"/>
<g id="a_node1_0"><a xlink:href="http://schema.mobivoc.org/ParkingLot" xlink:title="&lt;TABLE&gt;">
<text text-anchor="start" x="317.9707" y="-838.725" font-family="Roboto" font-size="8.00" fill="#000000">Parking lot</text>
</a>
</g>
<text text-anchor="start" x="294.5332" y="-823.725" font-family="Roboto" font-size="8.00" fill="#000000">Parking area on a single</text>
<text text-anchor="start" x="295" y="-808.725" font-family="Roboto" font-size="8.00" fill="#000000">groundfloor level that is</text>
<text text-anchor="start" x="294.5566" y="-793.725" font-family="Roboto" font-size="8.00" fill="#000000">usually located outdoor.</text>
<polygon fill="#706f6f" stroke="#706f6f" points="291,-833.125 291,-833.125 383,-833.125 383,-833.125 291,-833.125"/>
</g>
<!-- http://schema.mobivoc.org/ParkingFacility -->
<g id="node11" class="node">
<title>http://schema.mobivoc.org/ParkingFacility</title>
<polygon fill="#ffd180" stroke="#706f6f" points="754,-731.125 522,-731.125 522,-496.125 754,-496.125 754,-731.125"/>
<g id="a_node11_1"><a xlink:href="http://schema.mobivoc.org/ParkingFacility" xlink:title="&lt;TABLE&gt;">
<text text-anchor="start" x="611.7598" y="-716.225" font-family="Roboto" font-size="8.00" fill="#000000">Parking facility</text>
</a>
</g>
<g id="a_node11_2"><a xlink:href="http://schema.mobivoc.org/exitRate" xlink:title="&lt;TABLE&gt;">
<text text-anchor="start" x="534" y="-701.225" font-family="Roboto" font-size="8.00" fill="#000000">exit rate : string</text>
</a>
</g>
<g id="a_node11_3"><a xlink:href="http://schema.mobivoc.org/fillRate" xlink:title="&lt;TABLE&gt;">
<text text-anchor="start" x="534" y="-686.225" font-family="Roboto" font-size="8.00" fill="#000000">fill rate : string</text>
</a>
</g>
<g id="a_node11_4"><a xlink:href="http://schema.mobivoc.org/numberOfCarsharingParkingSpaces" xlink:title="&lt;TABLE&gt;">
<text text-anchor="start" x="534" y="-671.225" font-family="Roboto" font-size="8.00" fill="#000000">number of carsharing spaces : integer</text>
</a>
</g>
<g id="a_node11_5"><a xlink:href="http://schema.mobivoc.org/numberOfOccupiedParkingSpaces" xlink:title="&lt;TABLE&gt;">
<text text-anchor="start" x="534" y="-656.225" font-family="Roboto" font-size="8.00" fill="#000000">number of occupied parking spaces : integer</text>
</a>
</g>
<g id="a_node11_6"><a xlink:href="http://schema.mobivoc.org/numberOfBicycleParkingSpaces" xlink:title="&lt;TABLE&gt;">
<text text-anchor="start" x="534" y="-641.225" font-family="Roboto" font-size="8.00" fill="#000000">number of parking spaces for bicycles : integer</text>
</a>
</g>
<g id="a_node11_7"><a xlink:href="http://schema.mobivoc.org/numberOfParkingSpacesForDisabledPersons" xlink:title="&lt;TABLE&gt;">
<text text-anchor="start" x="534" y="-626.225" font-family="Roboto" font-size="8.00" fill="#000000">number of parking spaces for disabled persons : integer</text>
</a>
</g>
<g id="a_node11_8"><a xlink:href="http://schema.mobivoc.org/numberOfMotorbikeParkingSpaces" xlink:title="&lt;TABLE&gt;">
<text text-anchor="start" x="534" y="-611.225" font-family="Roboto" font-size="8.00" fill="#000000">number of parking spaces for motorbikes : integer</text>
</a>
</g>
<g id="a_node11_9"><a xlink:href="http://schema.mobivoc.org/numberOfVacantParkingSpaces" xlink:title="&lt;TABLE&gt;">
<text text-anchor="start" x="534" y="-596.225" font-family="Roboto" font-size="8.00" fill="#000000">number of vacant parking spaces : integer</text>
</a>
</g>
<g id="a_node11_10"><a xlink:href="http://schema.mobivoc.org/numberOfWomensParkingSpaces" xlink:title="&lt;TABLE&gt;">
<text text-anchor="start" x="534" y="-581.225" font-family="Roboto" font-size="8.00" fill="#000000">number of women&#39;s parking spaces : integer</text>
</a>
</g>
<g id="a_node11_11"><a xlink:href="http://schema.mobivoc.org/queuingTime" xlink:title="&lt;TABLE&gt;">
<text text-anchor="start" x="534" y="-566.225" font-family="Roboto" font-size="8.00" fill="#000000">queuing time : string</text>
</a>
</g>
<g id="a_node11_12"><a xlink:href="http://schema.mobivoc.org/rateOfOccupancy" xlink:title="&lt;TABLE&gt;">
<text text-anchor="start" x="534" y="-551.225" font-family="Roboto" font-size="8.00" fill="#000000">rate of occupancy : string</text>
</a>
</g>
<g id="a_node11_13"><a xlink:href="http://schema.mobivoc.org/totalCapacity" xlink:title="&lt;TABLE&gt;">
<text text-anchor="start" x="534" y="-536.225" font-family="Roboto" font-size="8.00" fill="#000000">total capacity : integer</text>
</a>
</g>
<text text-anchor="start" x="533.5078" y="-521.225" font-family="Roboto" font-size="8.00" fill="#000000">Any facility or area assigned for parking vehicles. A parking</text>
<text text-anchor="start" x="534" y="-506.225" font-family="Roboto" font-size="8.00" fill="#000000">facility can provide one or more parking spaces.</text>
<polygon fill="#706f6f" stroke="#706f6f" points="530,-710.625 530,-710.625 746,-710.625 746,-710.625 530,-710.625"/>
<polygon fill="#706f6f" stroke="#706f6f" points="530,-530.625 530,-530.625 746,-530.625 746,-530.625 530,-530.625"/>
</g>
<!-- http://schema.mobivoc.org/ParkingLot&#45;&gt;http://schema.mobivoc.org/ParkingFacility -->
<g id="edge18" class="edge">
<title>http://schema.mobivoc.org/ParkingLot&#45;&gt;http://schema.mobivoc.org/ParkingFacility</title>
<path fill="none" stroke="#000000" d="M381.7748,-782.9773C388.4922,-777.9105 395.3843,-772.8248 402,-768.125 437.5739,-742.8534 476.9756,-716.4562 513.2305,-692.7786"/>
<polygon fill="none" stroke="#000000" points="515.4185,-695.5304 521.8858,-687.1385 511.5967,-689.6657 515.4185,-695.5304"/>
</g>
<!-- http://schema.mobivoc.org/BicycleParkingStation -->
<g id="node2" class="node">
<title>http://schema.mobivoc.org/BicycleParkingStation</title>
<polygon fill="#ffd180" stroke="#706f6f" points="543,-853.125 413,-853.125 413,-783.125 543,-783.125 543,-853.125"/>
<g id="a_node2_14"><a xlink:href="http://schema.mobivoc.org/BicycleParkingStation" xlink:title="&lt;TABLE&gt;">
<text text-anchor="start" x="437.8809" y="-838.725" font-family="Roboto" font-size="8.00" fill="#000000">Bicycle parking station</text>
</a>
</g>
<text text-anchor="start" x="424.877" y="-823.725" font-family="Roboto" font-size="8.00" fill="#000000">Building or structure designed</text>
<text text-anchor="start" x="425" y="-808.725" font-family="Roboto" font-size="8.00" fill="#000000">for use as a bicycle parking</text>
<text text-anchor="start" x="425" y="-793.725" font-family="Roboto" font-size="8.00" fill="#000000">facility.</text>
<polygon fill="#706f6f" stroke="#706f6f" points="421,-833.125 421,-833.125 535,-833.125 535,-833.125 421,-833.125"/>
</g>
<!-- http://schema.mobivoc.org/BicycleParkingStation&#45;&gt;http://schema.mobivoc.org/ParkingFacility -->
<g id="edge15" class="edge">
<title>http://schema.mobivoc.org/BicycleParkingStation&#45;&gt;http://schema.mobivoc.org/ParkingFacility</title>
<path fill="none" stroke="#000000" d="M505.505,-782.9702C515.32,-770.4253 527.0226,-755.468 539.3508,-739.711"/>
<polygon fill="none" stroke="#000000" points="542.4425,-741.4393 545.8481,-731.4067 536.9294,-737.1259 542.4425,-741.4393"/>
</g>
<!-- http://schema.mobivoc.org/AutomatedParkingGarage -->
<g id="node3" class="node">
<title>http://schema.mobivoc.org/AutomatedParkingGarage</title>
<polygon fill="#ffd180" stroke="#706f6f" points="710.5,-868.125 565.5,-868.125 565.5,-768.125 710.5,-768.125 710.5,-868.125"/>
<g id="a_node3_15"><a xlink:href="http://schema.mobivoc.org/AutomatedParkingGarage" xlink:title="&lt;TABLE&gt;">
<text text-anchor="start" x="591.3574" y="-853.725" font-family="Roboto" font-size="8.00" fill="#000000">Automated parking garage</text>
</a>
</g>
<text text-anchor="start" x="577.6621" y="-838.725" font-family="Roboto" font-size="8.00" fill="#000000">Parking garage with an automated</text>
<text text-anchor="start" x="578" y="-823.725" font-family="Roboto" font-size="8.00" fill="#000000">parking system that automatically</text>
<text text-anchor="start" x="578" y="-808.725" font-family="Roboto" font-size="8.00" fill="#000000">moves cars to the available</text>
<text text-anchor="start" x="578" y="-793.725" font-family="Roboto" font-size="8.00" fill="#000000">parking space somewhere in</text>
<text text-anchor="start" x="578" y="-778.725" font-family="Roboto" font-size="8.00" fill="#000000">the garage.</text>
<polygon fill="#706f6f" stroke="#706f6f" points="574,-848.125 574,-848.125 703,-848.125 703,-848.125 574,-848.125"/>
</g>
<!-- http://schema.mobivoc.org/AutomatedParkingGarage&#45;&gt;http://schema.mobivoc.org/ParkingFacility -->
<g id="edge24" class="edge">
<title>http://schema.mobivoc.org/AutomatedParkingGarage&#45;&gt;http://schema.mobivoc.org/ParkingFacility</title>
<path fill="none" stroke="#000000" d="M638,-768.0987C638,-759.7623 638,-750.7929 638,-741.5228"/>
<polygon fill="none" stroke="#000000" points="641.5001,-741.3615 638,-731.3615 634.5001,-741.3616 641.5001,-741.3615"/>
</g>
<!-- http://schema.mobivoc.org/ParkingUsageType -->
<g id="node4" class="node">
<title>http://schema.mobivoc.org/ParkingUsageType</title>
<polygon fill="#ffd180" stroke="#706f6f" points="329.5,-85 200.5,-85 200.5,0 329.5,0 329.5,-85"/>
<g id="a_node4_16"><a xlink:href="http://schema.mobivoc.org/ParkingUsageType" xlink:title="&lt;TABLE&gt;">
<text text-anchor="start" x="231.6699" y="-70.1" font-family="Roboto" font-size="8.00" fill="#000000">Parking usage type</text>
</a>
</g>
<text text-anchor="start" x="213" y="-55.1" font-family="Roboto" font-size="8.00" fill="#000000">A type of special purpose</text>
<text text-anchor="start" x="212.6953" y="-40.1" font-family="Roboto" font-size="8.00" fill="#000000">a parking space is designated</text>
<text text-anchor="start" x="213" y="-25.1" font-family="Roboto" font-size="8.00" fill="#000000">for, like women&#39;s parking</text>
<text text-anchor="start" x="213" y="-10.1" font-family="Roboto" font-size="8.00" fill="#000000">spaces.</text>
<polygon fill="#706f6f" stroke="#706f6f" points="209,-64.5 209,-64.5 322,-64.5 322,-64.5 209,-64.5"/>
</g>
<!-- http://schema.mobivoc.org/ParkingFacilityEntrance -->
<g id="node5" class="node">
<title>http://schema.mobivoc.org/ParkingFacilityEntrance</title>
<polygon fill="#ffd180" stroke="#706f6f" points="124,-383.25 0,-383.25 0,-313.25 124,-313.25 124,-383.25"/>
<g id="a_node5_17"><a xlink:href="http://schema.mobivoc.org/ParkingFacilityEntrance" xlink:title="&lt;TABLE&gt;">
<text text-anchor="start" x="46.3418" y="-368.85" font-family="Roboto" font-size="8.00" fill="#000000">Entrance</text>
</a>
</g>
<text text-anchor="start" x="11.543" y="-353.85" font-family="Roboto" font-size="8.00" fill="#000000">Entrance of a parking facility</text>
<text text-anchor="start" x="12" y="-338.85" font-family="Roboto" font-size="8.00" fill="#000000">where vehicles can enter</text>
<text text-anchor="start" x="12" y="-323.85" font-family="Roboto" font-size="8.00" fill="#000000">the parking facility.</text>
<polygon fill="#706f6f" stroke="#706f6f" points="8,-363.25 8,-363.25 116,-363.25 116,-363.25 8,-363.25"/>
</g>
<!-- http://schema.org/CivicStructure -->
<g id="node19" class="node">
<title>http://schema.org/CivicStructure</title>
<polygon fill="#cecece" stroke="#706f6f" points="306.3946,-183.375 173.6054,-183.375 173.6054,-147.375 306.3946,-147.375 306.3946,-183.375"/>
<text text-anchor="middle" x="240" y="-163.6625" font-family="Roboto" font-size="8.00" fill="#000000">http://schema.org/CivicStructure</text>
</g>
<!-- http://schema.mobivoc.org/ParkingFacilityEntrance&#45;&gt;http://schema.org/CivicStructure -->
<g id="edge21" class="edge">
<title>http://schema.mobivoc.org/ParkingFacilityEntrance&#45;&gt;http://schema.org/CivicStructure</title>
<path fill="none" stroke="#000000" d="M83.3034,-313.0453C96.7501,-292.2885 115.2665,-266.1756 135,-245.75 155.6083,-224.4189 182.1594,-204.1467 203.4057,-189.2978"/>
<polygon fill="none" stroke="#000000" points="205.6038,-192.0338 211.856,-183.4805 201.6345,-186.268 205.6038,-192.0338"/>
</g>
<!-- http://schema.mobivoc.org/ParkingGarage -->
<g id="node6" class="node">
<title>http://schema.mobivoc.org/ParkingGarage</title>
<polygon fill="#ffd180" stroke="#706f6f" points="847.5,-853.125 732.5,-853.125 732.5,-783.125 847.5,-783.125 847.5,-853.125"/>
<g id="a_node6_18"><a xlink:href="http://schema.mobivoc.org/ParkingGarage" xlink:title="&lt;TABLE&gt;">
<text text-anchor="start" x="763.7949" y="-838.725" font-family="Roboto" font-size="8.00" fill="#000000">Parking garage</text>
</a>
</g>
<text text-anchor="start" x="744.6289" y="-823.725" font-family="Roboto" font-size="8.00" fill="#000000">A single level or multilevel</text>
<text text-anchor="start" x="745" y="-808.725" font-family="Roboto" font-size="8.00" fill="#000000">parking building to park</text>
<text text-anchor="start" x="745" y="-793.725" font-family="Roboto" font-size="8.00" fill="#000000">at.</text>
<polygon fill="#706f6f" stroke="#706f6f" points="741,-833.125 741,-833.125 840,-833.125 840,-833.125 741,-833.125"/>
</g>
<!-- http://schema.mobivoc.org/ParkingGarage&#45;&gt;http://schema.mobivoc.org/ParkingFacility -->
<g id="edge22" class="edge">
<title>http://schema.mobivoc.org/ParkingGarage&#45;&gt;http://schema.mobivoc.org/ParkingFacility</title>
<path fill="none" stroke="#000000" d="M763.8703,-782.9702C754.546,-770.4253 743.4286,-755.468 731.7167,-739.711"/>
<polygon fill="none" stroke="#000000" points="734.3188,-737.3446 725.5443,-731.4067 728.7007,-741.5204 734.3188,-737.3446"/>
</g>
<!-- http://schema.mobivoc.org/ParkingFacilityExit -->
<g id="node7" class="node">
<title>http://schema.mobivoc.org/ParkingFacilityExit</title>
<polygon fill="#ffd180" stroke="#706f6f" points="257.5,-383.25 146.5,-383.25 146.5,-313.25 257.5,-313.25 257.5,-383.25"/>
<g id="a_node7_19"><a xlink:href="http://schema.mobivoc.org/ParkingFacilityExit" xlink:title="&lt;TABLE&gt;">
<text text-anchor="start" x="195.9668" y="-368.85" font-family="Roboto" font-size="8.00" fill="#000000">Exit</text>
</a>
</g>
<text text-anchor="start" x="159" y="-353.85" font-family="Roboto" font-size="8.00" fill="#000000">Exit of a parking facility</text>
<text text-anchor="start" x="158.5703" y="-338.85" font-family="Roboto" font-size="8.00" fill="#000000">where vehicles can leave</text>
<text text-anchor="start" x="159" y="-323.85" font-family="Roboto" font-size="8.00" fill="#000000">the parking facility.</text>
<polygon fill="#706f6f" stroke="#706f6f" points="155,-363.25 155,-363.25 250,-363.25 250,-363.25 155,-363.25"/>
</g>
<!-- http://schema.mobivoc.org/ParkingFacilityExit&#45;&gt;http://schema.org/CivicStructure -->
<g id="edge23" class="edge">
<title>http://schema.mobivoc.org/ParkingFacilityExit&#45;&gt;http://schema.org/CivicStructure</title>
<path fill="none" stroke="#000000" d="M209.3268,-312.9899C216.5349,-278.3007 227.4027,-225.9996 234.0808,-193.861"/>
<polygon fill="none" stroke="#000000" points="237.5659,-194.2923 236.1736,-183.7893 230.7123,-192.8681 237.5659,-194.2923"/>
</g>
<!-- http://schema.mobivoc.org/ParkingFacilityFeature -->
<g id="node8" class="node">
<title>http://schema.mobivoc.org/ParkingFacilityFeature</title>
<polygon fill="#ffd180" stroke="#706f6f" points="1086.5,-383.25 955.5,-383.25 955.5,-313.25 1086.5,-313.25 1086.5,-383.25"/>
<g id="a_node8_20"><a xlink:href="http://schema.mobivoc.org/ParkingFacilityFeature" xlink:title="&lt;TABLE&gt;">
<text text-anchor="start" x="981.6387" y="-368.85" font-family="Roboto" font-size="8.00" fill="#000000">Parking facility feature</text>
</a>
</g>
<text text-anchor="start" x="967.7734" y="-353.85" font-family="Roboto" font-size="8.00" fill="#000000">Features of the parking facility</text>
<text text-anchor="start" x="968" y="-338.85" font-family="Roboto" font-size="8.00" fill="#000000">(e.g. parking for disabled</text>
<text text-anchor="start" x="968" y="-323.85" font-family="Roboto" font-size="8.00" fill="#000000">people).</text>
<polygon fill="#706f6f" stroke="#706f6f" points="964,-363.25 964,-363.25 1079,-363.25 1079,-363.25 964,-363.25"/>
</g>
<!-- http://schema.mobivoc.org/UndergroundParkingGarage -->
<g id="node9" class="node">
<title>http://schema.mobivoc.org/UndergroundParkingGarage</title>
<polygon fill="#ffd180" stroke="#706f6f" points="1008,-853.125 870,-853.125 870,-783.125 1008,-783.125 1008,-853.125"/>
<g id="a_node9_21"><a xlink:href="http://schema.mobivoc.org/UndergroundParkingGarage" xlink:title="&lt;TABLE&gt;">
<text text-anchor="start" x="888.5625" y="-838.725" font-family="Roboto" font-size="8.00" fill="#000000">Underground parking garage</text>
</a>
</g>
<text text-anchor="start" x="882" y="-823.725" font-family="Roboto" font-size="8.00" fill="#000000">Parking facility with one</text>
<text text-anchor="start" x="882" y="-808.725" font-family="Roboto" font-size="8.00" fill="#000000">or more levels below the</text>
<text text-anchor="start" x="881.8945" y="-793.725" font-family="Roboto" font-size="8.00" fill="#000000">surface and none above ground.</text>
<polygon fill="#706f6f" stroke="#706f6f" points="878,-833.125 878,-833.125 1000,-833.125 1000,-833.125 878,-833.125"/>
</g>
<!-- http://schema.mobivoc.org/UndergroundParkingGarage&#45;&gt;http://schema.mobivoc.org/ParkingFacility -->
<g id="edge20" class="edge">
<title>http://schema.mobivoc.org/UndergroundParkingGarage&#45;&gt;http://schema.mobivoc.org/ParkingFacility</title>
<path fill="none" stroke="#000000" d="M887.2563,-782.9702C852.9109,-759.6359 806.2804,-727.955 762.6404,-698.3059"/>
<polygon fill="none" stroke="#000000" points="764.4826,-695.3262 754.2441,-692.6015 760.5488,-701.1163 764.4826,-695.3262"/>
</g>
<!-- http://schema.mobivoc.org/Capacity -->
<g id="node10" class="node">
<title>http://schema.mobivoc.org/Capacity</title>
<polygon fill="#ffd180" stroke="#706f6f" points="490,-200.375 366,-200.375 366,-130.375 490,-130.375 490,-200.375"/>
<g id="a_node10_22"><a xlink:href="http://schema.mobivoc.org/Capacity" xlink:title="&lt;TABLE&gt;">
<text text-anchor="start" x="412.5371" y="-185.975" font-family="Roboto" font-size="8.00" fill="#000000">Capacity</text>
</a>
</g>
<g id="a_node10_23"><a xlink:href="http://schema.mobivoc.org/maximumValue" xlink:title="&lt;TABLE&gt;">
<text text-anchor="start" x="378" y="-170.975" font-family="Roboto" font-size="8.00" fill="#000000">maximum value : integer</text>
</a>
</g>
<text text-anchor="start" x="377.7383" y="-155.975" font-family="Roboto" font-size="8.00" fill="#000000">Capacity of a parking facility</text>
<text text-anchor="start" x="378" y="-140.975" font-family="Roboto" font-size="8.00" fill="#000000">or a parking space.</text>
<polygon fill="#706f6f" stroke="#706f6f" points="374,-180.375 374,-180.375 482,-180.375 482,-180.375 374,-180.375"/>
<polygon fill="#706f6f" stroke="#706f6f" points="374,-165.375 374,-165.375 482,-165.375 482,-165.375 374,-165.375"/>
</g>
<!-- http://schema.mobivoc.org/Capacity&#45;&gt;http://schema.mobivoc.org/ParkingUsageType -->
<g id="edge4" class="edge">
<title>http://schema.mobivoc.org/Capacity&#45;&gt;http://schema.mobivoc.org/ParkingUsageType</title>
<g id="a_edge4"><a xlink:href="http://schema.mobivoc.org/parkingUsageType" xlink:title="parking usage type">
<path fill="none" stroke="#000000" d="M379.7705,-130.1705C371.7609,-124.2591 363.5578,-118.165 355.8555,-112.375 346.8748,-105.6241 337.436,-98.4521 328.1781,-91.3732"/>
<polygon fill="#000000" stroke="#000000" points="330.172,-88.4917 320.105,-85.1892 325.9153,-94.0487 330.172,-88.4917"/>
</a>
</g>
<g id="a_edge4&#45;label"><a xlink:href="http://schema.mobivoc.org/parkingUsageType" xlink:title="parking usage type">
<text text-anchor="middle" x="389.5723" y="-105.975" font-family="Roboto" font-size="8.00" fill="#000000">parking usage type</text>
</a>
</g>
</g>
<!-- http://schema.mobivoc.org/UserGroup -->
<g id="node16" class="node">
<title>http://schema.mobivoc.org/UserGroup</title>
<polygon fill="#cecece" stroke="#706f6f" points="504.6566,-60.5 351.3434,-60.5 351.3434,-24.5 504.6566,-24.5 504.6566,-60.5"/>
<text text-anchor="middle" x="428" y="-40.7875" font-family="Roboto" font-size="8.00" fill="#000000">http://schema.mobivoc.org/UserGroup</text>
</g>
<!-- http://schema.mobivoc.org/Capacity&#45;&gt;http://schema.mobivoc.org/UserGroup -->
<g id="edge2" class="edge">
<title>http://schema.mobivoc.org/Capacity&#45;&gt;http://schema.mobivoc.org/UserGroup</title>
<g id="a_edge2"><a xlink:href="http://schema.mobivoc.org/intendedForUserGroup" xlink:title="intended for user group">
<path fill="none" stroke="#000000" d="M428,-130.164C428,-111.371 428,-88.5477 428,-70.9004"/>
<polygon fill="#000000" stroke="#000000" points="431.5001,-70.6636 428,-60.6637 424.5001,-70.6637 431.5001,-70.6636"/>
</a>
</g>
<g id="a_edge2&#45;label"><a xlink:href="http://schema.mobivoc.org/intendedForUserGroup" xlink:title="intended for user group">
<text text-anchor="middle" x="469.4648" y="-105.975" font-family="Roboto" font-size="8.00" fill="#000000">intended for user group</text>
</a>
</g>
</g>
<!-- http://schema.org/Vehicle -->
<g id="node18" class="node">
<title>http://schema.org/Vehicle</title>
<polygon fill="#cecece" stroke="#706f6f" points="635.5547,-60.5 526.4453,-60.5 526.4453,-24.5 635.5547,-24.5 635.5547,-60.5"/>
<text text-anchor="middle" x="581" y="-40.7875" font-family="Roboto" font-size="8.00" fill="#000000">http://schema.org/Vehicle</text>
</g>
<!-- http://schema.mobivoc.org/Capacity&#45;&gt;http://schema.org/Vehicle -->
<g id="edge11" class="edge">
<title>http://schema.mobivoc.org/Capacity&#45;&gt;http://schema.org/Vehicle</title>
<g id="a_edge11"><a xlink:href="http://schema.mobivoc.org/intendedForVehicle" xlink:title="intended for vehicle">
<path fill="none" stroke="#000000" d="M490.082,-131.0026C499.0591,-125.1794 507.9685,-118.8938 516,-112.375 532.0229,-99.3699 547.8412,-82.4788 559.861,-68.5618"/>
<polygon fill="#000000" stroke="#000000" points="562.6754,-70.6544 566.4719,-60.7631 557.3358,-66.128 562.6754,-70.6544"/>
</a>
</g>
<g id="a_edge11&#45;label"><a xlink:href="http://schema.mobivoc.org/intendedForVehicle" xlink:title="intended for vehicle">
<text text-anchor="middle" x="560.834" y="-105.975" font-family="Roboto" font-size="8.00" fill="#000000">intended for vehicle</text>
</a>
</g>
</g>
<!-- http://schema.mobivoc.org/ParkingFacility&#45;&gt;http://schema.mobivoc.org/ParkingFacilityEntrance -->
<g id="edge9" class="edge">
<title>http://schema.mobivoc.org/ParkingFacility&#45;&gt;http://schema.mobivoc.org/ParkingFacilityEntrance</title>
<g id="a_edge9"><a xlink:href="http://schema.mobivoc.org/entrance" xlink:title="entrance">
<path fill="none" stroke="#000000" d="M521.8394,-597.523C413.2406,-577.7903 250.8704,-535.8554 135,-450.75 114.2937,-435.5415 97.2067,-412.6762 84.7832,-392.398"/>
<polygon fill="#000000" stroke="#000000" points="87.6817,-390.4234 79.5776,-383.5988 81.657,-393.9876 87.6817,-390.4234"/>
</a>
</g>
<g id="a_edge9&#45;label"><a xlink:href="http://schema.mobivoc.org/entrance" xlink:title="entrance">
<text text-anchor="middle" x="186.5039" y="-471.725" font-family="Roboto" font-size="8.00" fill="#000000">entrance</text>
</a>
</g>
</g>
<!-- http://schema.mobivoc.org/ParkingFacility&#45;&gt;http://schema.mobivoc.org/ParkingFacilityExit -->
<g id="edge8" class="edge">
<title>http://schema.mobivoc.org/ParkingFacility&#45;&gt;http://schema.mobivoc.org/ParkingFacilityExit</title>
<g id="a_edge8"><a xlink:href="http://schema.mobivoc.org/exit" xlink:title="exit">
<path fill="none" stroke="#000000" d="M521.8747,-596.0381C440.6515,-578.4275 334.2369,-544.0329 262.2422,-478.125 237.6685,-455.6289 222.3127,-421.0855 213.2588,-393.2777"/>
<polygon fill="#000000" stroke="#000000" points="216.4954,-391.896 210.2029,-383.3722 209.8065,-393.9597 216.4954,-391.896"/>
</a>
</g>
<g id="a_edge8&#45;label"><a xlink:href="http://schema.mobivoc.org/exit" xlink:title="exit">
<text text-anchor="middle" x="269.3789" y="-471.725" font-family="Roboto" font-size="8.00" fill="#000000">exit</text>
</a>
</g>
</g>
<!-- http://schema.mobivoc.org/ParkingFacility&#45;&gt;http://schema.mobivoc.org/ParkingFacilityFeature -->
<g id="edge7" class="edge">
<title>http://schema.mobivoc.org/ParkingFacility&#45;&gt;http://schema.mobivoc.org/ParkingFacilityFeature</title>
<g id="a_edge7"><a xlink:href="http://schema.mobivoc.org/feature" xlink:title="feature">
<path fill="none" stroke="#000000" d="M754.0773,-564.3203C812.9857,-536.076 883.6004,-497.0372 939,-450.75 959.1988,-433.8736 977.8629,-411.361 992.2656,-391.7333"/>
<polygon fill="#000000" stroke="#000000" points="995.1729,-393.6852 998.1693,-383.5229 989.4896,-389.5986 995.1729,-393.6852"/>
</a>
</g>
<g id="a_edge7&#45;label"><a xlink:href="http://schema.mobivoc.org/feature" xlink:title="feature">
<text text-anchor="middle" x="921.6309" y="-471.725" font-family="Roboto" font-size="8.00" fill="#000000">feature</text>
</a>
</g>
</g>
<!-- http://schema.mobivoc.org/ParkingFacility&#45;&gt;http://schema.mobivoc.org/Capacity -->
<g id="edge10" class="edge">
<title>http://schema.mobivoc.org/ParkingFacility&#45;&gt;http://schema.mobivoc.org/Capacity</title>
<g id="a_edge10"><a xlink:href="http://schema.mobivoc.org/capacity" xlink:title="has capacity">
<path fill="none" stroke="#000000" d="M521.7844,-577.6226C461.5816,-552.3967 393.4573,-512.0199 358.2305,-450.75 312.8175,-371.7633 326.3528,-331.1025 358.2305,-245.75 363.3257,-232.1075 371.8963,-219.2472 381.3196,-207.9805"/>
<polygon fill="#000000" stroke="#000000" points="383.9711,-210.2654 387.9473,-200.445 378.7149,-205.6423 383.9711,-210.2654"/>
</a>
</g>
<g id="a_edge10&#45;label"><a xlink:href="http://schema.mobivoc.org/capacity" xlink:title="has capacity">
<text text-anchor="middle" x="381.3848" y="-346.5375" font-family="Roboto" font-size="8.00" fill="#000000">has capacity</text>
</a>
</g>
</g>
<!-- http://schema.mobivoc.org/ParkingSpace -->
<g id="node13" class="node">
<title>http://schema.mobivoc.org/ParkingSpace</title>
<polygon fill="#ffd180" stroke="#706f6f" points="706.5,-450.75 569.5,-450.75 569.5,-245.75 706.5,-245.75 706.5,-450.75"/>
<g id="a_node13_24"><a xlink:href="http://schema.mobivoc.org/ParkingSpace" xlink:title="&lt;TABLE&gt;">
<text text-anchor="start" x="613.334" y="-435.85" font-family="Roboto" font-size="8.00" fill="#000000">Parking space</text>
</a>
</g>
<text text-anchor="start" x="582" y="-420.85" font-family="Roboto" font-size="8.00" fill="#000000">A parking space is a location</text>
<text text-anchor="start" x="582" y="-405.85" font-family="Roboto" font-size="8.00" fill="#000000">that is designated for parking</text>
<text text-anchor="start" x="582" y="-390.85" font-family="Roboto" font-size="8.00" fill="#000000">a vehicle. A parking space</text>
<text text-anchor="start" x="581.752" y="-375.85" font-family="Roboto" font-size="8.00" fill="#000000">has a certain size, is sometimes</text>
<text text-anchor="start" x="582" y="-360.85" font-family="Roboto" font-size="8.00" fill="#000000">marked and can be located</text>
<text text-anchor="start" x="582" y="-345.85" font-family="Roboto" font-size="8.00" fill="#000000">at roadside or inside a parking</text>
<text text-anchor="start" x="582" y="-330.85" font-family="Roboto" font-size="8.00" fill="#000000">facility. Depending on the</text>
<text text-anchor="start" x="582" y="-315.85" font-family="Roboto" font-size="8.00" fill="#000000">location of the parking space,</text>
<text text-anchor="start" x="582" y="-300.85" font-family="Roboto" font-size="8.00" fill="#000000">there can be regulations</text>
<text text-anchor="start" x="582" y="-285.85" font-family="Roboto" font-size="8.00" fill="#000000">regarding the time allowed</text>
<text text-anchor="start" x="582" y="-270.85" font-family="Roboto" font-size="8.00" fill="#000000">to park and a fee paid to</text>
<text text-anchor="start" x="582" y="-255.85" font-family="Roboto" font-size="8.00" fill="#000000">use the parking space.</text>
<polygon fill="#706f6f" stroke="#706f6f" points="578,-430.25 578,-430.25 699,-430.25 699,-430.25 578,-430.25"/>
</g>
<!-- http://schema.mobivoc.org/ParkingFacility&#45;&gt;http://schema.mobivoc.org/ParkingSpace -->
<g id="edge13" class="edge">
<title>http://schema.mobivoc.org/ParkingFacility&#45;&gt;http://schema.mobivoc.org/ParkingSpace</title>
<g id="a_edge13"><a xlink:href="http://schema.mobivoc.org/parkingSpace" xlink:title="parking space">
<path fill="none" stroke="#000000" d="M638,-496.0688C638,-484.4881 638,-472.7517 638,-461.2185"/>
<polygon fill="#000000" stroke="#000000" points="641.5001,-461.1446 638,-451.1447 634.5001,-461.1447 641.5001,-461.1446"/>
</a>
</g>
<g id="a_edge13&#45;label"><a xlink:href="http://schema.mobivoc.org/parkingSpace" xlink:title="parking space">
<text text-anchor="middle" x="662.9082" y="-471.725" font-family="Roboto" font-size="8.00" fill="#000000">parking space</text>
</a>
</g>
</g>
<!-- http://schema.mobivoc.org/ArrangementPattern -->
<g id="node14" class="node">
<title>http://schema.mobivoc.org/ArrangementPattern</title>
<polygon fill="#ffd180" stroke="#706f6f" points="897,-200.375 775,-200.375 775,-130.375 897,-130.375 897,-200.375"/>
<g id="a_node14_25"><a xlink:href="http://schema.mobivoc.org/ArrangementPattern" xlink:title="&lt;TABLE&gt;">
<text text-anchor="start" x="799.1738" y="-185.975" font-family="Roboto" font-size="8.00" fill="#000000">Arrangement pattern</text>
</a>
</g>
<text text-anchor="start" x="786.5879" y="-170.975" font-family="Roboto" font-size="8.00" fill="#000000">Pattern how parking spaces</text>
<text text-anchor="start" x="787" y="-155.975" font-family="Roboto" font-size="8.00" fill="#000000">are arranged in a parking</text>
<text text-anchor="start" x="787" y="-140.975" font-family="Roboto" font-size="8.00" fill="#000000">facility or at roadside.</text>
<polygon fill="#706f6f" stroke="#706f6f" points="783,-180.375 783,-180.375 889,-180.375 889,-180.375 783,-180.375"/>
</g>
<!-- http://schema.mobivoc.org/ParkingFacility&#45;&gt;http://schema.mobivoc.org/ArrangementPattern -->
<g id="edge14" class="edge">
<title>http://schema.mobivoc.org/ParkingFacility&#45;&gt;http://schema.mobivoc.org/ArrangementPattern</title>
<g id="a_edge14"><a xlink:href="http://schema.mobivoc.org/arrangement" xlink:title="arrangement pattern">
<path fill="none" stroke="#000000" d="M754.0349,-544.6435C785.8747,-519.4316 816.4388,-487.8382 834,-450.75 870.9038,-372.8117 858.5516,-268.9395 846.8616,-210.4235"/>
<polygon fill="#000000" stroke="#000000" points="850.2375,-209.4667 844.7739,-200.3893 843.3843,-210.8926 850.2375,-209.4667"/>
</a>
</g>
<g id="a_edge14&#45;label"><a xlink:href="http://schema.mobivoc.org/arrangement" xlink:title="arrangement pattern">
<text text-anchor="middle" x="894.3926" y="-346.5375" font-family="Roboto" font-size="8.00" fill="#000000">arrangement pattern</text>
</a>
</g>
</g>
<!-- http://schema.mobivoc.org/ParkingFacilityConnection -->
<g id="node15" class="node">
<title>http://schema.mobivoc.org/ParkingFacilityConnection</title>
<polygon fill="#ffd180" stroke="#706f6f" points="1245.5,-383.25 1108.5,-383.25 1108.5,-313.25 1245.5,-313.25 1245.5,-383.25"/>
<g id="a_node15_26"><a xlink:href="http://schema.mobivoc.org/ParkingFacilityConnection" xlink:title="&lt;TABLE&gt;">
<text text-anchor="start" x="1128.4395" y="-368.85" font-family="Roboto" font-size="8.00" fill="#000000">Parking facility connections</text>
</a>
</g>
<text text-anchor="start" x="1120.7637" y="-353.85" font-family="Roboto" font-size="8.00" fill="#000000">Transport connections available</text>
<text text-anchor="start" x="1121" y="-338.85" font-family="Roboto" font-size="8.00" fill="#000000">at the parking facility (e.g.</text>
<text text-anchor="start" x="1121" y="-323.85" font-family="Roboto" font-size="8.00" fill="#000000">Park &amp; Ride).</text>
<polygon fill="#706f6f" stroke="#706f6f" points="1117,-363.25 1117,-363.25 1238,-363.25 1238,-363.25 1117,-363.25"/>
</g>
<!-- http://schema.mobivoc.org/ParkingFacility&#45;&gt;http://schema.mobivoc.org/ParkingFacilityConnection -->
<g id="edge5" class="edge">
<title>http://schema.mobivoc.org/ParkingFacility&#45;&gt;http://schema.mobivoc.org/ParkingFacilityConnection</title>
<g id="a_edge5"><a xlink:href="http://schema.mobivoc.org/connectedTo" xlink:title="connected to">
<path fill="none" stroke="#000000" d="M754.4016,-591.7932C852.9938,-569.0062 994.4236,-525.8305 1098,-450.75 1119.4878,-435.1739 1137.9657,-412.1486 1151.6364,-391.8649"/>
<polygon fill="#000000" stroke="#000000" points="1154.6487,-393.6536 1157.1957,-383.3695 1148.7913,-389.8206 1154.6487,-393.6536"/>
</a>
</g>
<g id="a_edge5&#45;label"><a xlink:href="http://schema.mobivoc.org/connectedTo" xlink:title="connected to">
<text text-anchor="middle" x="1088.2227" y="-471.725" font-family="Roboto" font-size="8.00" fill="#000000">connected to</text>
</a>
</g>
</g>
<!-- http://schema.mobivoc.org/ChargingPoint -->
<g id="node17" class="node">
<title>http://schema.mobivoc.org/ChargingPoint</title>
<polygon fill="#cecece" stroke="#706f6f" points="703.3167,-183.375 536.6833,-183.375 536.6833,-147.375 703.3167,-147.375 703.3167,-183.375"/>
<text text-anchor="middle" x="620" y="-163.6625" font-family="Roboto" font-size="8.00" fill="#000000">http://schema.mobivoc.org/ChargingPoint</text>
</g>
<!-- http://schema.mobivoc.org/ParkingFacility&#45;&gt;http://schema.mobivoc.org/ChargingPoint -->
<g id="edge6" class="edge">
<title>http://schema.mobivoc.org/ParkingFacility&#45;&gt;http://schema.mobivoc.org/ChargingPoint</title>
<g id="a_edge6"><a xlink:href="http://schema.mobivoc.org/chargingPoint" xlink:title="has charging point">
<path fill="none" stroke="#000000" d="M712.1046,-495.912C754.0812,-412.8699 788.5259,-301.9803 735,-218.375 726.6379,-205.3138 714.1514,-195.4263 700.4486,-187.9553"/>
<polygon fill="#000000" stroke="#000000" points="701.8095,-184.7228 691.2994,-183.3857 698.6817,-190.9852 701.8095,-184.7228"/>
</a>
</g>
<g id="a_edge6&#45;label"><a xlink:href="http://schema.mobivoc.org/chargingPoint" xlink:title="has charging point">
<text text-anchor="middle" x="795.8867" y="-346.5375" font-family="Roboto" font-size="8.00" fill="#000000">has charging point</text>
</a>
</g>
</g>
<!-- http://schema.mobivoc.org/ParkingFacility&#45;&gt;http://schema.org/CivicStructure -->
<g id="edge16" class="edge">
<title>http://schema.mobivoc.org/ParkingFacility&#45;&gt;http://schema.org/CivicStructure</title>
<path fill="none" stroke="#000000" d="M521.6913,-581.637C453.8857,-556.9346 372.5995,-515.7355 325,-450.75 269.1194,-374.4586 296.2364,-336.0036 268,-245.75 262.4626,-228.0504 255.6247,-208.3868 250.0925,-192.9394"/>
<polygon fill="none" stroke="#000000" points="253.3585,-191.6786 246.6723,-183.46 246.7739,-194.0543 253.3585,-191.6786"/>
</g>
<!-- http://schema.mobivoc.org/RealTimeCapacity -->
<g id="node12" class="node">
<title>http://schema.mobivoc.org/RealTimeCapacity</title>
<polygon fill="#ffd180" stroke="#706f6f" points="547.5,-390.75 414.5,-390.75 414.5,-305.75 547.5,-305.75 547.5,-390.75"/>
<g id="a_node12_27"><a xlink:href="http://schema.mobivoc.org/RealTimeCapacity" xlink:title="&lt;TABLE&gt;">
<text text-anchor="start" x="448.9355" y="-375.85" font-family="Roboto" font-size="8.00" fill="#000000">Real time capacity</text>
</a>
</g>
<g id="a_node12_28"><a xlink:href="http://schema.mobivoc.org/currentValue" xlink:title="&lt;TABLE&gt;">
<text text-anchor="start" x="427" y="-360.85" font-family="Roboto" font-size="8.00" fill="#000000">current value : integer</text>
</a>
</g>
<g id="a_node12_29"><a xlink:href="http://purl.org/dc/terms/date" xlink:title="&lt;TABLE&gt;">
<text text-anchor="start" x="427" y="-345.85" font-family="Roboto" font-size="8.00" fill="#000000">date (dct:) : datetime</text>
</a>
</g>
<text text-anchor="start" x="426.7832" y="-330.85" font-family="Roboto" font-size="8.00" fill="#000000">Real&#45;time capacity of a parking</text>
<text text-anchor="start" x="427" y="-315.85" font-family="Roboto" font-size="8.00" fill="#000000">facility or parking space.</text>
<polygon fill="#706f6f" stroke="#706f6f" points="423,-370.25 423,-370.25 540,-370.25 540,-370.25 423,-370.25"/>
<polygon fill="#706f6f" stroke="#706f6f" points="423,-340.25 423,-340.25 540,-340.25 540,-340.25 423,-340.25"/>
</g>
<!-- http://schema.mobivoc.org/RealTimeCapacity&#45;&gt;http://schema.mobivoc.org/Capacity -->
<g id="edge17" class="edge">
<title>http://schema.mobivoc.org/RealTimeCapacity&#45;&gt;http://schema.mobivoc.org/Capacity</title>
<path fill="none" stroke="#000000" d="M468.5739,-305.3739C460.3084,-276.8541 449.4695,-239.455 441.074,-210.4865"/>
<polygon fill="none" stroke="#000000" points="444.3599,-209.2504 438.2145,-200.6199 437.6365,-211.199 444.3599,-209.2504"/>
</g>
<!-- http://schema.mobivoc.org/ParkingSpace&#45;&gt;http://schema.mobivoc.org/Capacity -->
<g id="edge12" class="edge">
<title>http://schema.mobivoc.org/ParkingSpace&#45;&gt;http://schema.mobivoc.org/Capacity</title>
<g id="a_edge12"><a xlink:href="http://schema.mobivoc.org/capacity" xlink:title="has capacity">
<path fill="none" stroke="#000000" d="M569.4545,-255.5871C565.7264,-252.1202 561.9032,-248.8205 558,-245.75 542.7511,-233.7546 535.116,-237.3048 518.2305,-227.75 506.872,-221.3227 495.1287,-213.8666 484.0205,-206.3931"/>
<polygon fill="#000000" stroke="#000000" points="485.8993,-203.438 475.6667,-200.6914 481.9532,-209.2197 485.8993,-203.438"/>
</a>
</g>
<g id="a_edge12&#45;label"><a xlink:href="http://schema.mobivoc.org/capacity" xlink:title="has capacity">
<text text-anchor="middle" x="541.3848" y="-221.35" font-family="Roboto" font-size="8.00" fill="#000000">has capacity</text>
</a>
</g>
</g>
<!-- http://schema.mobivoc.org/ParkingSpace&#45;&gt;http://schema.mobivoc.org/ArrangementPattern -->
<g id="edge1" class="edge">
<title>http://schema.mobivoc.org/ParkingSpace&#45;&gt;http://schema.mobivoc.org/ArrangementPattern</title>
<g id="a_edge1"><a xlink:href="http://schema.mobivoc.org/arrangement" xlink:title="arrangement pattern">
<path fill="none" stroke="#000000" d="M706.5363,-263.0697C712.2682,-257.04 718.1231,-251.1985 724,-245.75 738.9458,-231.8938 756.3412,-218.3624 772.9029,-206.4728"/>
<polygon fill="#000000" stroke="#000000" points="775.3278,-209.0447 781.4702,-200.412 771.2851,-203.3301 775.3278,-209.0447"/>
</a>
</g>
<g id="a_edge1&#45;label"><a xlink:href="http://schema.mobivoc.org/arrangement" xlink:title="arrangement pattern">
<text text-anchor="middle" x="792.3926" y="-221.35" font-family="Roboto" font-size="8.00" fill="#000000">arrangement pattern</text>
</a>
</g>
</g>
<!-- http://schema.mobivoc.org/ParkingSpace&#45;&gt;http://schema.mobivoc.org/ChargingPoint -->
<g id="edge3" class="edge">
<title>http://schema.mobivoc.org/ParkingSpace&#45;&gt;http://schema.mobivoc.org/ChargingPoint</title>
<g id="a_edge3"><a xlink:href="http://schema.mobivoc.org/chargingPoint" xlink:title="has charging point">
<path fill="none" stroke="#000000" d="M574.055,-245.5778C571.7987,-239.6663 569.8258,-233.7033 568.2266,-227.75 564.4295,-213.6148 572.2622,-200.6702 582.9021,-190.2816"/>
<polygon fill="#000000" stroke="#000000" points="585.4036,-192.7429 590.6083,-183.5146 580.7847,-187.483 585.4036,-192.7429"/>
</a>
</g>
<g id="a_edge3&#45;label"><a xlink:href="http://schema.mobivoc.org/chargingPoint" xlink:title="has charging point">
<text text-anchor="middle" x="601.8867" y="-221.35" font-family="Roboto" font-size="8.00" fill="#000000">has charging point</text>
</a>
</g>
</g>
<!-- http://schema.mobivoc.org/ParkingSpace&#45;&gt;http://schema.org/CivicStructure -->
<g id="edge19" class="edge">
<title>http://schema.mobivoc.org/ParkingSpace&#45;&gt;http://schema.org/CivicStructure</title>
<path fill="none" stroke="#000000" d="M569.3858,-253.8968C565.7085,-250.9586 561.9109,-248.2237 558,-245.75 538.4672,-233.3952 377.3491,-206.2647 355,-200.375 339.0401,-196.169 321.9658,-191.2215 305.9889,-186.3919"/>
<polygon fill="none" stroke="#000000" points="306.7887,-182.9767 296.2026,-183.4077 304.7469,-189.6723 306.7887,-182.9767"/>
</g>
</g>
</svg>
